<?xml version="1.0" encoding="utf-8" standalone="no"?>
<!DOCTYPE svg PUBLIC "-//W3C//DTD SVG 1.1//EN"
  "http://www.w3.org/Graphics/SVG/1.1/DTD/svg11.dtd">
<!-- Created with matplotlib (https://matplotlib.org/) -->
<svg height="977.157684pt" version="1.1" viewBox="0 0 1056.027864 977.157684" width="1056.027864pt" xmlns="http://www.w3.org/2000/svg" xmlns:xlink="http://www.w3.org/1999/xlink">
 <metadata>
  <rdf:RDF xmlns:cc="http://creativecommons.org/ns#" xmlns:dc="http://purl.org/dc/elements/1.1/" xmlns:rdf="http://www.w3.org/1999/02/22-rdf-syntax-ns#">
   <cc:Work>
    <dc:type rdf:resource="http://purl.org/dc/dcmitype/StillImage"/>
    <dc:date>2021-03-30T11:21:33.681216</dc:date>
    <dc:format>image/svg+xml</dc:format>
    <dc:creator>
     <cc:Agent>
      <dc:title>Matplotlib v3.3.4, https://matplotlib.org/</dc:title>
     </cc:Agent>
    </dc:creator>
   </cc:Work>
  </rdf:RDF>
 </metadata>
 <defs>
  <style type="text/css">*{stroke-linecap:butt;stroke-linejoin:round;}</style>
 </defs>
 <g id="figure_1">
  <g id="patch_1">
   <path d="M 0 977.157684 
L 1056.027864 977.157684 
L 1056.027864 0 
L 0 0 
z
" style="fill:none;"/>
  </g>
  <g id="axes_1">
   <g id="patch_2">
    <path d="M 285.070542 601.956 
L 1048.827864 601.956 
L 1048.827864 7.2 
L 285.070542 7.2 
z
" style="fill:#ffffff;"/>
   </g>
   <g id="patch_3">
    <path clip-path="url(#pe43b6cb890)" d="M 290.525952 330.514496 
L 334.169227 330.514496 
L 334.169227 238.257371 
L 290.525952 238.257371 
L 290.525952 330.514496 
z
" style="fill:#ea96a3;stroke:#474747;stroke-linejoin:miter;"/>
   </g>
   <g id="patch_4">
    <path clip-path="url(#pe43b6cb890)" d="M 345.080046 389.290843 
L 388.723322 389.290843 
L 388.723322 330.159576 
L 345.080046 330.159576 
L 345.080046 389.290843 
z
" style="fill:#e4946a;stroke:#474747;stroke-linejoin:miter;"/>
   </g>
   <g id="patch_5">
    <path clip-path="url(#pe43b6cb890)" d="M 399.634141 406.697357 
L 443.277416 406.697357 
L 443.277416 353.499922 
L 399.634141 353.499922 
L 399.634141 406.697357 
z
" style="fill:#c29a4b;stroke:#474747;stroke-linejoin:miter;"/>
   </g>
   <g id="patch_6">
    <path clip-path="url(#pe43b6cb890)" d="M 454.188235 424.248455 
L 497.831511 424.248455 
L 497.831511 385.778697 
L 454.188235 385.778697 
L 454.188235 424.248455 
z
" style="fill:#a69f46;stroke:#474747;stroke-linejoin:miter;"/>
   </g>
   <g id="patch_7">
    <path clip-path="url(#pe43b6cb890)" d="M 508.742329 515.974414 
L 552.385605 515.974414 
L 552.385605 513.338258 
L 508.742329 513.338258 
L 508.742329 515.974414 
z
" style="fill:#88a746;stroke:#474747;stroke-linejoin:miter;"/>
   </g>
   <g id="patch_8">
    <path clip-path="url(#pe43b6cb890)" d="M 563.296424 566.997136 
L 606.939699 566.997136 
L 606.939699 520.785084 
L 563.296424 520.785084 
L 563.296424 566.997136 
z
" style="fill:#48b05e;stroke:#474747;stroke-linejoin:miter;"/>
   </g>
   <g id="patch_9">
    <path clip-path="url(#pe43b6cb890)" d="M 617.850518 546.525252 
L 661.493794 546.525252 
L 661.493794 431.038344 
L 617.850518 431.038344 
L 617.850518 546.525252 
z
" style="fill:#4aad8f;stroke:#474747;stroke-linejoin:miter;"/>
   </g>
   <g id="patch_10">
    <path clip-path="url(#pe43b6cb890)" d="M 672.404613 538.522895 
L 716.047888 538.522895 
L 716.047888 529.755931 
L 672.404613 529.755931 
L 672.404613 538.522895 
z
" style="fill:#4baba4;stroke:#474747;stroke-linejoin:miter;"/>
   </g>
   <g id="patch_11">
    <path clip-path="url(#pe43b6cb890)" d="M 726.958707 547.898882 
L 770.601983 547.898882 
L 770.601983 532.207318 
L 726.958707 532.207318 
L 726.958707 547.898882 
z
" style="fill:#4eabb8;stroke:#474747;stroke-linejoin:miter;"/>
   </g>
   <g id="patch_12">
    <path clip-path="url(#pe43b6cb890)" d="M 781.512801 550.732522 
L 825.156077 550.732522 
L 825.156077 538.324752 
L 781.512801 538.324752 
L 781.512801 550.732522 
z
" style="fill:#55acd7;stroke:#474747;stroke-linejoin:miter;"/>
   </g>
   <g id="patch_13">
    <path clip-path="url(#pe43b6cb890)" d="M 836.066896 553.974586 
L 879.710171 553.974586 
L 879.710171 539.86888 
L 836.066896 539.86888 
L 836.066896 553.974586 
z
" style="fill:#a0adea;stroke:#474747;stroke-linejoin:miter;"/>
   </g>
   <g id="patch_14">
    <path clip-path="url(#pe43b6cb890)" d="M 890.62099 554.936563 
L 934.264266 554.936563 
L 934.264266 546.033505 
L 890.62099 546.033505 
L 890.62099 554.936563 
z
" style="fill:#c79fe9;stroke:#474747;stroke-linejoin:miter;"/>
   </g>
   <g id="patch_15">
    <path clip-path="url(#pe43b6cb890)" d="M 945.175085 570.810898 
L 988.81836 570.810898 
L 988.81836 527.510432 
L 945.175085 527.510432 
L 945.175085 570.810898 
z
" style="fill:#e78ae0;stroke:#474747;stroke-linejoin:miter;"/>
   </g>
   <g id="patch_16">
    <path clip-path="url(#pe43b6cb890)" d="M 999.729179 562.502242 
L 1043.372454 562.502242 
L 1043.372454 536.308347 
L 999.729179 536.308347 
L 999.729179 562.502242 
z
" style="fill:#e891c1;stroke:#474747;stroke-linejoin:miter;"/>
   </g>
   <g id="matplotlib.axis_1">
    <g id="xtick_1">
     <g id="line2d_1">
      <defs>
       <path d="M 0 0 
L 0 4.8 
" id="mf060fb0c5f" style="stroke:#000000;"/>
      </defs>
      <g>
       <use style="stroke:#000000;" x="312.34759" xlink:href="#mf060fb0c5f" y="601.956"/>
      </g>
     </g>
     <g id="text_1">
      <!-- White adipose tissue -->
      <g transform="translate(48.002437 888.337409)rotate(-45)scale(0.352 -0.352)">
       <defs>
        <path d="M 3.328125 72.90625 
L 13.28125 72.90625 
L 28.609375 11.28125 
L 43.890625 72.90625 
L 54.984375 72.90625 
L 70.3125 11.28125 
L 85.59375 72.90625 
L 95.609375 72.90625 
L 77.296875 0 
L 64.890625 0 
L 49.515625 63.28125 
L 33.984375 0 
L 21.578125 0 
z
" id="DejaVuSans-87"/>
        <path d="M 54.890625 33.015625 
L 54.890625 0 
L 45.90625 0 
L 45.90625 32.71875 
Q 45.90625 40.484375 42.875 44.328125 
Q 39.84375 48.1875 33.796875 48.1875 
Q 26.515625 48.1875 22.3125 43.546875 
Q 18.109375 38.921875 18.109375 30.90625 
L 18.109375 0 
L 9.078125 0 
L 9.078125 75.984375 
L 18.109375 75.984375 
L 18.109375 46.1875 
Q 21.34375 51.125 25.703125 53.5625 
Q 30.078125 56 35.796875 56 
Q 45.21875 56 50.046875 50.171875 
Q 54.890625 44.34375 54.890625 33.015625 
z
" id="DejaVuSans-104"/>
        <path d="M 9.421875 54.6875 
L 18.40625 54.6875 
L 18.40625 0 
L 9.421875 0 
z
M 9.421875 75.984375 
L 18.40625 75.984375 
L 18.40625 64.59375 
L 9.421875 64.59375 
z
" id="DejaVuSans-105"/>
        <path d="M 18.3125 70.21875 
L 18.3125 54.6875 
L 36.8125 54.6875 
L 36.8125 47.703125 
L 18.3125 47.703125 
L 18.3125 18.015625 
Q 18.3125 11.328125 20.140625 9.421875 
Q 21.96875 7.515625 27.59375 7.515625 
L 36.8125 7.515625 
L 36.8125 0 
L 27.59375 0 
Q 17.1875 0 13.234375 3.875 
Q 9.28125 7.765625 9.28125 18.015625 
L 9.28125 47.703125 
L 2.6875 47.703125 
L 2.6875 54.6875 
L 9.28125 54.6875 
L 9.28125 70.21875 
z
" id="DejaVuSans-116"/>
        <path d="M 56.203125 29.59375 
L 56.203125 25.203125 
L 14.890625 25.203125 
Q 15.484375 15.921875 20.484375 11.0625 
Q 25.484375 6.203125 34.421875 6.203125 
Q 39.59375 6.203125 44.453125 7.46875 
Q 49.3125 8.734375 54.109375 11.28125 
L 54.109375 2.78125 
Q 49.265625 0.734375 44.1875 -0.34375 
Q 39.109375 -1.421875 33.890625 -1.421875 
Q 20.796875 -1.421875 13.15625 6.1875 
Q 5.515625 13.8125 5.515625 26.8125 
Q 5.515625 40.234375 12.765625 48.109375 
Q 20.015625 56 32.328125 56 
Q 43.359375 56 49.78125 48.890625 
Q 56.203125 41.796875 56.203125 29.59375 
z
M 47.21875 32.234375 
Q 47.125 39.59375 43.09375 43.984375 
Q 39.0625 48.390625 32.421875 48.390625 
Q 24.90625 48.390625 20.390625 44.140625 
Q 15.875 39.890625 15.1875 32.171875 
z
" id="DejaVuSans-101"/>
        <path id="DejaVuSans-32"/>
        <path d="M 34.28125 27.484375 
Q 23.390625 27.484375 19.1875 25 
Q 14.984375 22.515625 14.984375 16.5 
Q 14.984375 11.71875 18.140625 8.90625 
Q 21.296875 6.109375 26.703125 6.109375 
Q 34.1875 6.109375 38.703125 11.40625 
Q 43.21875 16.703125 43.21875 25.484375 
L 43.21875 27.484375 
z
M 52.203125 31.203125 
L 52.203125 0 
L 43.21875 0 
L 43.21875 8.296875 
Q 40.140625 3.328125 35.546875 0.953125 
Q 30.953125 -1.421875 24.3125 -1.421875 
Q 15.921875 -1.421875 10.953125 3.296875 
Q 6 8.015625 6 15.921875 
Q 6 25.140625 12.171875 29.828125 
Q 18.359375 34.515625 30.609375 34.515625 
L 43.21875 34.515625 
L 43.21875 35.40625 
Q 43.21875 41.609375 39.140625 45 
Q 35.0625 48.390625 27.6875 48.390625 
Q 23 48.390625 18.546875 47.265625 
Q 14.109375 46.140625 10.015625 43.890625 
L 10.015625 52.203125 
Q 14.9375 54.109375 19.578125 55.046875 
Q 24.21875 56 28.609375 56 
Q 40.484375 56 46.34375 49.84375 
Q 52.203125 43.703125 52.203125 31.203125 
z
" id="DejaVuSans-97"/>
        <path d="M 45.40625 46.390625 
L 45.40625 75.984375 
L 54.390625 75.984375 
L 54.390625 0 
L 45.40625 0 
L 45.40625 8.203125 
Q 42.578125 3.328125 38.25 0.953125 
Q 33.9375 -1.421875 27.875 -1.421875 
Q 17.96875 -1.421875 11.734375 6.484375 
Q 5.515625 14.40625 5.515625 27.296875 
Q 5.515625 40.1875 11.734375 48.09375 
Q 17.96875 56 27.875 56 
Q 33.9375 56 38.25 53.625 
Q 42.578125 51.265625 45.40625 46.390625 
z
M 14.796875 27.296875 
Q 14.796875 17.390625 18.875 11.75 
Q 22.953125 6.109375 30.078125 6.109375 
Q 37.203125 6.109375 41.296875 11.75 
Q 45.40625 17.390625 45.40625 27.296875 
Q 45.40625 37.203125 41.296875 42.84375 
Q 37.203125 48.484375 30.078125 48.484375 
Q 22.953125 48.484375 18.875 42.84375 
Q 14.796875 37.203125 14.796875 27.296875 
z
" id="DejaVuSans-100"/>
        <path d="M 18.109375 8.203125 
L 18.109375 -20.796875 
L 9.078125 -20.796875 
L 9.078125 54.6875 
L 18.109375 54.6875 
L 18.109375 46.390625 
Q 20.953125 51.265625 25.265625 53.625 
Q 29.59375 56 35.59375 56 
Q 45.5625 56 51.78125 48.09375 
Q 58.015625 40.1875 58.015625 27.296875 
Q 58.015625 14.40625 51.78125 6.484375 
Q 45.5625 -1.421875 35.59375 -1.421875 
Q 29.59375 -1.421875 25.265625 0.953125 
Q 20.953125 3.328125 18.109375 8.203125 
z
M 48.6875 27.296875 
Q 48.6875 37.203125 44.609375 42.84375 
Q 40.53125 48.484375 33.40625 48.484375 
Q 26.265625 48.484375 22.1875 42.84375 
Q 18.109375 37.203125 18.109375 27.296875 
Q 18.109375 17.390625 22.1875 11.75 
Q 26.265625 6.109375 33.40625 6.109375 
Q 40.53125 6.109375 44.609375 11.75 
Q 48.6875 17.390625 48.6875 27.296875 
z
" id="DejaVuSans-112"/>
        <path d="M 30.609375 48.390625 
Q 23.390625 48.390625 19.1875 42.75 
Q 14.984375 37.109375 14.984375 27.296875 
Q 14.984375 17.484375 19.15625 11.84375 
Q 23.34375 6.203125 30.609375 6.203125 
Q 37.796875 6.203125 41.984375 11.859375 
Q 46.1875 17.53125 46.1875 27.296875 
Q 46.1875 37.015625 41.984375 42.703125 
Q 37.796875 48.390625 30.609375 48.390625 
z
M 30.609375 56 
Q 42.328125 56 49.015625 48.375 
Q 55.71875 40.765625 55.71875 27.296875 
Q 55.71875 13.875 49.015625 6.21875 
Q 42.328125 -1.421875 30.609375 -1.421875 
Q 18.84375 -1.421875 12.171875 6.21875 
Q 5.515625 13.875 5.515625 27.296875 
Q 5.515625 40.765625 12.171875 48.375 
Q 18.84375 56 30.609375 56 
z
" id="DejaVuSans-111"/>
        <path d="M 44.28125 53.078125 
L 44.28125 44.578125 
Q 40.484375 46.53125 36.375 47.5 
Q 32.28125 48.484375 27.875 48.484375 
Q 21.1875 48.484375 17.84375 46.4375 
Q 14.5 44.390625 14.5 40.28125 
Q 14.5 37.15625 16.890625 35.375 
Q 19.28125 33.59375 26.515625 31.984375 
L 29.59375 31.296875 
Q 39.15625 29.25 43.1875 25.515625 
Q 47.21875 21.78125 47.21875 15.09375 
Q 47.21875 7.46875 41.1875 3.015625 
Q 35.15625 -1.421875 24.609375 -1.421875 
Q 20.21875 -1.421875 15.453125 -0.5625 
Q 10.6875 0.296875 5.421875 2 
L 5.421875 11.28125 
Q 10.40625 8.6875 15.234375 7.390625 
Q 20.0625 6.109375 24.8125 6.109375 
Q 31.15625 6.109375 34.5625 8.28125 
Q 37.984375 10.453125 37.984375 14.40625 
Q 37.984375 18.0625 35.515625 20.015625 
Q 33.0625 21.96875 24.703125 23.78125 
L 21.578125 24.515625 
Q 13.234375 26.265625 9.515625 29.90625 
Q 5.8125 33.546875 5.8125 39.890625 
Q 5.8125 47.609375 11.28125 51.796875 
Q 16.75 56 26.8125 56 
Q 31.78125 56 36.171875 55.265625 
Q 40.578125 54.546875 44.28125 53.078125 
z
" id="DejaVuSans-115"/>
        <path d="M 8.5 21.578125 
L 8.5 54.6875 
L 17.484375 54.6875 
L 17.484375 21.921875 
Q 17.484375 14.15625 20.5 10.265625 
Q 23.53125 6.390625 29.59375 6.390625 
Q 36.859375 6.390625 41.078125 11.03125 
Q 45.3125 15.671875 45.3125 23.6875 
L 45.3125 54.6875 
L 54.296875 54.6875 
L 54.296875 0 
L 45.3125 0 
L 45.3125 8.40625 
Q 42.046875 3.421875 37.71875 1 
Q 33.40625 -1.421875 27.6875 -1.421875 
Q 18.265625 -1.421875 13.375 4.4375 
Q 8.5 10.296875 8.5 21.578125 
z
M 31.109375 56 
z
" id="DejaVuSans-117"/>
       </defs>
       <use xlink:href="#DejaVuSans-87"/>
       <use x="98.876953" xlink:href="#DejaVuSans-104"/>
       <use x="162.255859" xlink:href="#DejaVuSans-105"/>
       <use x="190.039062" xlink:href="#DejaVuSans-116"/>
       <use x="229.248047" xlink:href="#DejaVuSans-101"/>
       <use x="290.771484" xlink:href="#DejaVuSans-32"/>
       <use x="322.558594" xlink:href="#DejaVuSans-97"/>
       <use x="383.837891" xlink:href="#DejaVuSans-100"/>
       <use x="447.314453" xlink:href="#DejaVuSans-105"/>
       <use x="475.097656" xlink:href="#DejaVuSans-112"/>
       <use x="538.574219" xlink:href="#DejaVuSans-111"/>
       <use x="599.755859" xlink:href="#DejaVuSans-115"/>
       <use x="651.855469" xlink:href="#DejaVuSans-101"/>
       <use x="713.378906" xlink:href="#DejaVuSans-32"/>
       <use x="745.166016" xlink:href="#DejaVuSans-116"/>
       <use x="784.375" xlink:href="#DejaVuSans-105"/>
       <use x="812.158203" xlink:href="#DejaVuSans-115"/>
       <use x="864.257812" xlink:href="#DejaVuSans-115"/>
       <use x="916.357422" xlink:href="#DejaVuSans-117"/>
       <use x="979.736328" xlink:href="#DejaVuSans-101"/>
      </g>
     </g>
    </g>
    <g id="xtick_2">
     <g id="line2d_2">
      <g>
       <use style="stroke:#000000;" x="366.901684" xlink:href="#mf060fb0c5f" y="601.956"/>
      </g>
     </g>
     <g id="text_2">
      <!-- Adipose-derived stem cells -->
      <g transform="translate(26.112632 964.781309)rotate(-45)scale(0.352 -0.352)">
       <defs>
        <path d="M 34.1875 63.1875 
L 20.796875 26.90625 
L 47.609375 26.90625 
z
M 28.609375 72.90625 
L 39.796875 72.90625 
L 67.578125 0 
L 57.328125 0 
L 50.6875 18.703125 
L 17.828125 18.703125 
L 11.1875 0 
L 0.78125 0 
z
" id="DejaVuSans-65"/>
        <path d="M 4.890625 31.390625 
L 31.203125 31.390625 
L 31.203125 23.390625 
L 4.890625 23.390625 
z
" id="DejaVuSans-45"/>
        <path d="M 41.109375 46.296875 
Q 39.59375 47.171875 37.8125 47.578125 
Q 36.03125 48 33.890625 48 
Q 26.265625 48 22.1875 43.046875 
Q 18.109375 38.09375 18.109375 28.8125 
L 18.109375 0 
L 9.078125 0 
L 9.078125 54.6875 
L 18.109375 54.6875 
L 18.109375 46.1875 
Q 20.953125 51.171875 25.484375 53.578125 
Q 30.03125 56 36.53125 56 
Q 37.453125 56 38.578125 55.875 
Q 39.703125 55.765625 41.0625 55.515625 
z
" id="DejaVuSans-114"/>
        <path d="M 2.984375 54.6875 
L 12.5 54.6875 
L 29.59375 8.796875 
L 46.6875 54.6875 
L 56.203125 54.6875 
L 35.6875 0 
L 23.484375 0 
z
" id="DejaVuSans-118"/>
        <path d="M 52 44.1875 
Q 55.375 50.25 60.0625 53.125 
Q 64.75 56 71.09375 56 
Q 79.640625 56 84.28125 50.015625 
Q 88.921875 44.046875 88.921875 33.015625 
L 88.921875 0 
L 79.890625 0 
L 79.890625 32.71875 
Q 79.890625 40.578125 77.09375 44.375 
Q 74.3125 48.1875 68.609375 48.1875 
Q 61.625 48.1875 57.5625 43.546875 
Q 53.515625 38.921875 53.515625 30.90625 
L 53.515625 0 
L 44.484375 0 
L 44.484375 32.71875 
Q 44.484375 40.625 41.703125 44.40625 
Q 38.921875 48.1875 33.109375 48.1875 
Q 26.21875 48.1875 22.15625 43.53125 
Q 18.109375 38.875 18.109375 30.90625 
L 18.109375 0 
L 9.078125 0 
L 9.078125 54.6875 
L 18.109375 54.6875 
L 18.109375 46.1875 
Q 21.1875 51.21875 25.484375 53.609375 
Q 29.78125 56 35.6875 56 
Q 41.65625 56 45.828125 52.96875 
Q 50 49.953125 52 44.1875 
z
" id="DejaVuSans-109"/>
        <path d="M 48.78125 52.59375 
L 48.78125 44.1875 
Q 44.96875 46.296875 41.140625 47.34375 
Q 37.3125 48.390625 33.40625 48.390625 
Q 24.65625 48.390625 19.8125 42.84375 
Q 14.984375 37.3125 14.984375 27.296875 
Q 14.984375 17.28125 19.8125 11.734375 
Q 24.65625 6.203125 33.40625 6.203125 
Q 37.3125 6.203125 41.140625 7.25 
Q 44.96875 8.296875 48.78125 10.40625 
L 48.78125 2.09375 
Q 45.015625 0.34375 40.984375 -0.53125 
Q 36.96875 -1.421875 32.421875 -1.421875 
Q 20.0625 -1.421875 12.78125 6.34375 
Q 5.515625 14.109375 5.515625 27.296875 
Q 5.515625 40.671875 12.859375 48.328125 
Q 20.21875 56 33.015625 56 
Q 37.15625 56 41.109375 55.140625 
Q 45.0625 54.296875 48.78125 52.59375 
z
" id="DejaVuSans-99"/>
        <path d="M 9.421875 75.984375 
L 18.40625 75.984375 
L 18.40625 0 
L 9.421875 0 
z
" id="DejaVuSans-108"/>
       </defs>
       <use xlink:href="#DejaVuSans-65"/>
       <use x="66.658203" xlink:href="#DejaVuSans-100"/>
       <use x="130.134766" xlink:href="#DejaVuSans-105"/>
       <use x="157.917969" xlink:href="#DejaVuSans-112"/>
       <use x="221.394531" xlink:href="#DejaVuSans-111"/>
       <use x="282.576172" xlink:href="#DejaVuSans-115"/>
       <use x="334.675781" xlink:href="#DejaVuSans-101"/>
       <use x="396.199219" xlink:href="#DejaVuSans-45"/>
       <use x="432.283203" xlink:href="#DejaVuSans-100"/>
       <use x="495.759766" xlink:href="#DejaVuSans-101"/>
       <use x="557.283203" xlink:href="#DejaVuSans-114"/>
       <use x="598.396484" xlink:href="#DejaVuSans-105"/>
       <use x="626.179688" xlink:href="#DejaVuSans-118"/>
       <use x="685.359375" xlink:href="#DejaVuSans-101"/>
       <use x="746.882812" xlink:href="#DejaVuSans-100"/>
       <use x="810.359375" xlink:href="#DejaVuSans-32"/>
       <use x="842.146484" xlink:href="#DejaVuSans-115"/>
       <use x="894.246094" xlink:href="#DejaVuSans-116"/>
       <use x="933.455078" xlink:href="#DejaVuSans-101"/>
       <use x="994.978516" xlink:href="#DejaVuSans-109"/>
       <use x="1092.390625" xlink:href="#DejaVuSans-32"/>
       <use x="1124.177734" xlink:href="#DejaVuSans-99"/>
       <use x="1179.158203" xlink:href="#DejaVuSans-101"/>
       <use x="1240.681641" xlink:href="#DejaVuSans-108"/>
       <use x="1268.464844" xlink:href="#DejaVuSans-108"/>
       <use x="1296.248047" xlink:href="#DejaVuSans-115"/>
      </g>
     </g>
    </g>
    <g id="xtick_3">
     <g id="line2d_3">
      <g>
       <use style="stroke:#000000;" x="421.455778" xlink:href="#mf060fb0c5f" y="601.956"/>
      </g>
     </g>
     <g id="text_3">
      <!-- SGBS adipocyte D10 -->
      <g transform="translate(159.599642 885.848393)rotate(-45)scale(0.352 -0.352)">
       <defs>
        <path d="M 53.515625 70.515625 
L 53.515625 60.890625 
Q 47.90625 63.578125 42.921875 64.890625 
Q 37.9375 66.21875 33.296875 66.21875 
Q 25.25 66.21875 20.875 63.09375 
Q 16.5 59.96875 16.5 54.203125 
Q 16.5 49.359375 19.40625 46.890625 
Q 22.3125 44.4375 30.421875 42.921875 
L 36.375 41.703125 
Q 47.40625 39.59375 52.65625 34.296875 
Q 57.90625 29 57.90625 20.125 
Q 57.90625 9.515625 50.796875 4.046875 
Q 43.703125 -1.421875 29.984375 -1.421875 
Q 24.8125 -1.421875 18.96875 -0.25 
Q 13.140625 0.921875 6.890625 3.21875 
L 6.890625 13.375 
Q 12.890625 10.015625 18.65625 8.296875 
Q 24.421875 6.59375 29.984375 6.59375 
Q 38.421875 6.59375 43.015625 9.90625 
Q 47.609375 13.234375 47.609375 19.390625 
Q 47.609375 24.75 44.3125 27.78125 
Q 41.015625 30.8125 33.5 32.328125 
L 27.484375 33.5 
Q 16.453125 35.6875 11.515625 40.375 
Q 6.59375 45.0625 6.59375 53.421875 
Q 6.59375 63.09375 13.40625 68.65625 
Q 20.21875 74.21875 32.171875 74.21875 
Q 37.3125 74.21875 42.625 73.28125 
Q 47.953125 72.359375 53.515625 70.515625 
z
" id="DejaVuSans-83"/>
        <path d="M 59.515625 10.40625 
L 59.515625 29.984375 
L 43.40625 29.984375 
L 43.40625 38.09375 
L 69.28125 38.09375 
L 69.28125 6.78125 
Q 63.578125 2.734375 56.6875 0.65625 
Q 49.8125 -1.421875 42 -1.421875 
Q 24.90625 -1.421875 15.25 8.5625 
Q 5.609375 18.5625 5.609375 36.375 
Q 5.609375 54.25 15.25 64.234375 
Q 24.90625 74.21875 42 74.21875 
Q 49.125 74.21875 55.546875 72.453125 
Q 61.96875 70.703125 67.390625 67.28125 
L 67.390625 56.78125 
Q 61.921875 61.421875 55.765625 63.765625 
Q 49.609375 66.109375 42.828125 66.109375 
Q 29.4375 66.109375 22.71875 58.640625 
Q 16.015625 51.171875 16.015625 36.375 
Q 16.015625 21.625 22.71875 14.15625 
Q 29.4375 6.6875 42.828125 6.6875 
Q 48.046875 6.6875 52.140625 7.59375 
Q 56.25 8.5 59.515625 10.40625 
z
" id="DejaVuSans-71"/>
        <path d="M 19.671875 34.8125 
L 19.671875 8.109375 
L 35.5 8.109375 
Q 43.453125 8.109375 47.28125 11.40625 
Q 51.125 14.703125 51.125 21.484375 
Q 51.125 28.328125 47.28125 31.5625 
Q 43.453125 34.8125 35.5 34.8125 
z
M 19.671875 64.796875 
L 19.671875 42.828125 
L 34.28125 42.828125 
Q 41.5 42.828125 45.03125 45.53125 
Q 48.578125 48.25 48.578125 53.8125 
Q 48.578125 59.328125 45.03125 62.0625 
Q 41.5 64.796875 34.28125 64.796875 
z
M 9.8125 72.90625 
L 35.015625 72.90625 
Q 46.296875 72.90625 52.390625 68.21875 
Q 58.5 63.53125 58.5 54.890625 
Q 58.5 48.1875 55.375 44.234375 
Q 52.25 40.28125 46.1875 39.3125 
Q 53.46875 37.75 57.5 32.78125 
Q 61.53125 27.828125 61.53125 20.40625 
Q 61.53125 10.640625 54.890625 5.3125 
Q 48.25 0 35.984375 0 
L 9.8125 0 
z
" id="DejaVuSans-66"/>
        <path d="M 32.171875 -5.078125 
Q 28.375 -14.84375 24.75 -17.8125 
Q 21.140625 -20.796875 15.09375 -20.796875 
L 7.90625 -20.796875 
L 7.90625 -13.28125 
L 13.1875 -13.28125 
Q 16.890625 -13.28125 18.9375 -11.515625 
Q 21 -9.765625 23.484375 -3.21875 
L 25.09375 0.875 
L 2.984375 54.6875 
L 12.5 54.6875 
L 29.59375 11.921875 
L 46.6875 54.6875 
L 56.203125 54.6875 
z
" id="DejaVuSans-121"/>
        <path d="M 19.671875 64.796875 
L 19.671875 8.109375 
L 31.59375 8.109375 
Q 46.6875 8.109375 53.6875 14.9375 
Q 60.6875 21.78125 60.6875 36.53125 
Q 60.6875 51.171875 53.6875 57.984375 
Q 46.6875 64.796875 31.59375 64.796875 
z
M 9.8125 72.90625 
L 30.078125 72.90625 
Q 51.265625 72.90625 61.171875 64.09375 
Q 71.09375 55.28125 71.09375 36.53125 
Q 71.09375 17.671875 61.125 8.828125 
Q 51.171875 0 30.078125 0 
L 9.8125 0 
z
" id="DejaVuSans-68"/>
        <path d="M 12.40625 8.296875 
L 28.515625 8.296875 
L 28.515625 63.921875 
L 10.984375 60.40625 
L 10.984375 69.390625 
L 28.421875 72.90625 
L 38.28125 72.90625 
L 38.28125 8.296875 
L 54.390625 8.296875 
L 54.390625 0 
L 12.40625 0 
z
" id="DejaVuSans-49"/>
        <path d="M 31.78125 66.40625 
Q 24.171875 66.40625 20.328125 58.90625 
Q 16.5 51.421875 16.5 36.375 
Q 16.5 21.390625 20.328125 13.890625 
Q 24.171875 6.390625 31.78125 6.390625 
Q 39.453125 6.390625 43.28125 13.890625 
Q 47.125 21.390625 47.125 36.375 
Q 47.125 51.421875 43.28125 58.90625 
Q 39.453125 66.40625 31.78125 66.40625 
z
M 31.78125 74.21875 
Q 44.046875 74.21875 50.515625 64.515625 
Q 56.984375 54.828125 56.984375 36.375 
Q 56.984375 17.96875 50.515625 8.265625 
Q 44.046875 -1.421875 31.78125 -1.421875 
Q 19.53125 -1.421875 13.0625 8.265625 
Q 6.59375 17.96875 6.59375 36.375 
Q 6.59375 54.828125 13.0625 64.515625 
Q 19.53125 74.21875 31.78125 74.21875 
z
" id="DejaVuSans-48"/>
       </defs>
       <use xlink:href="#DejaVuSans-83"/>
       <use x="63.476562" xlink:href="#DejaVuSans-71"/>
       <use x="140.966797" xlink:href="#DejaVuSans-66"/>
       <use x="207.820312" xlink:href="#DejaVuSans-83"/>
       <use x="271.296875" xlink:href="#DejaVuSans-32"/>
       <use x="303.083984" xlink:href="#DejaVuSans-97"/>
       <use x="364.363281" xlink:href="#DejaVuSans-100"/>
       <use x="427.839844" xlink:href="#DejaVuSans-105"/>
       <use x="455.623047" xlink:href="#DejaVuSans-112"/>
       <use x="519.099609" xlink:href="#DejaVuSans-111"/>
       <use x="580.28125" xlink:href="#DejaVuSans-99"/>
       <use x="635.261719" xlink:href="#DejaVuSans-121"/>
       <use x="694.441406" xlink:href="#DejaVuSans-116"/>
       <use x="733.650391" xlink:href="#DejaVuSans-101"/>
       <use x="795.173828" xlink:href="#DejaVuSans-32"/>
       <use x="826.960938" xlink:href="#DejaVuSans-68"/>
       <use x="903.962891" xlink:href="#DejaVuSans-49"/>
       <use x="967.585938" xlink:href="#DejaVuSans-48"/>
      </g>
     </g>
    </g>
    <g id="xtick_4">
     <g id="line2d_4">
      <g>
       <use style="stroke:#000000;" x="476.009873" xlink:href="#mf060fb0c5f" y="601.956"/>
      </g>
     </g>
     <g id="text_4">
      <!-- Brown adipose tissue -->
      <g transform="translate(205.928316 894.073813)rotate(-45)scale(0.352 -0.352)">
       <defs>
        <path d="M 4.203125 54.6875 
L 13.1875 54.6875 
L 24.421875 12.015625 
L 35.59375 54.6875 
L 46.1875 54.6875 
L 57.421875 12.015625 
L 68.609375 54.6875 
L 77.59375 54.6875 
L 63.28125 0 
L 52.6875 0 
L 40.921875 44.828125 
L 29.109375 0 
L 18.5 0 
z
" id="DejaVuSans-119"/>
        <path d="M 54.890625 33.015625 
L 54.890625 0 
L 45.90625 0 
L 45.90625 32.71875 
Q 45.90625 40.484375 42.875 44.328125 
Q 39.84375 48.1875 33.796875 48.1875 
Q 26.515625 48.1875 22.3125 43.546875 
Q 18.109375 38.921875 18.109375 30.90625 
L 18.109375 0 
L 9.078125 0 
L 9.078125 54.6875 
L 18.109375 54.6875 
L 18.109375 46.1875 
Q 21.34375 51.125 25.703125 53.5625 
Q 30.078125 56 35.796875 56 
Q 45.21875 56 50.046875 50.171875 
Q 54.890625 44.34375 54.890625 33.015625 
z
" id="DejaVuSans-110"/>
       </defs>
       <use xlink:href="#DejaVuSans-66"/>
       <use x="68.603516" xlink:href="#DejaVuSans-114"/>
       <use x="107.466797" xlink:href="#DejaVuSans-111"/>
       <use x="168.648438" xlink:href="#DejaVuSans-119"/>
       <use x="250.435547" xlink:href="#DejaVuSans-110"/>
       <use x="313.814453" xlink:href="#DejaVuSans-32"/>
       <use x="345.601562" xlink:href="#DejaVuSans-97"/>
       <use x="406.880859" xlink:href="#DejaVuSans-100"/>
       <use x="470.357422" xlink:href="#DejaVuSans-105"/>
       <use x="498.140625" xlink:href="#DejaVuSans-112"/>
       <use x="561.617188" xlink:href="#DejaVuSans-111"/>
       <use x="622.798828" xlink:href="#DejaVuSans-115"/>
       <use x="674.898438" xlink:href="#DejaVuSans-101"/>
       <use x="736.421875" xlink:href="#DejaVuSans-32"/>
       <use x="768.208984" xlink:href="#DejaVuSans-116"/>
       <use x="807.417969" xlink:href="#DejaVuSans-105"/>
       <use x="835.201172" xlink:href="#DejaVuSans-115"/>
       <use x="887.300781" xlink:href="#DejaVuSans-115"/>
       <use x="939.400391" xlink:href="#DejaVuSans-117"/>
       <use x="1002.779297" xlink:href="#DejaVuSans-101"/>
      </g>
     </g>
    </g>
    <g id="xtick_5">
     <g id="line2d_5">
      <g>
       <use style="stroke:#000000;" x="530.563967" xlink:href="#mf060fb0c5f" y="601.956"/>
      </g>
     </g>
     <g id="text_5">
      <!-- Hepatocytes -->
      <g transform="translate(368.855717 785.700506)rotate(-45)scale(0.352 -0.352)">
       <defs>
        <path d="M 9.8125 72.90625 
L 19.671875 72.90625 
L 19.671875 43.015625 
L 55.515625 43.015625 
L 55.515625 72.90625 
L 65.375 72.90625 
L 65.375 0 
L 55.515625 0 
L 55.515625 34.71875 
L 19.671875 34.71875 
L 19.671875 0 
L 9.8125 0 
z
" id="DejaVuSans-72"/>
       </defs>
       <use xlink:href="#DejaVuSans-72"/>
       <use x="75.195312" xlink:href="#DejaVuSans-101"/>
       <use x="136.71875" xlink:href="#DejaVuSans-112"/>
       <use x="200.195312" xlink:href="#DejaVuSans-97"/>
       <use x="261.474609" xlink:href="#DejaVuSans-116"/>
       <use x="300.683594" xlink:href="#DejaVuSans-111"/>
       <use x="361.865234" xlink:href="#DejaVuSans-99"/>
       <use x="416.845703" xlink:href="#DejaVuSans-121"/>
       <use x="476.025391" xlink:href="#DejaVuSans-116"/>
       <use x="515.234375" xlink:href="#DejaVuSans-101"/>
       <use x="576.757812" xlink:href="#DejaVuSans-115"/>
      </g>
     </g>
    </g>
    <g id="xtick_6">
     <g id="line2d_6">
      <g>
       <use style="stroke:#000000;" x="585.118062" xlink:href="#mf060fb0c5f" y="601.956"/>
      </g>
     </g>
     <g id="text_6">
      <!-- Embryonic stem cells -->
      <g transform="translate(313.698659 895.411659)rotate(-45)scale(0.352 -0.352)">
       <defs>
        <path d="M 9.8125 72.90625 
L 55.90625 72.90625 
L 55.90625 64.59375 
L 19.671875 64.59375 
L 19.671875 43.015625 
L 54.390625 43.015625 
L 54.390625 34.71875 
L 19.671875 34.71875 
L 19.671875 8.296875 
L 56.78125 8.296875 
L 56.78125 0 
L 9.8125 0 
z
" id="DejaVuSans-69"/>
        <path d="M 48.6875 27.296875 
Q 48.6875 37.203125 44.609375 42.84375 
Q 40.53125 48.484375 33.40625 48.484375 
Q 26.265625 48.484375 22.1875 42.84375 
Q 18.109375 37.203125 18.109375 27.296875 
Q 18.109375 17.390625 22.1875 11.75 
Q 26.265625 6.109375 33.40625 6.109375 
Q 40.53125 6.109375 44.609375 11.75 
Q 48.6875 17.390625 48.6875 27.296875 
z
M 18.109375 46.390625 
Q 20.953125 51.265625 25.265625 53.625 
Q 29.59375 56 35.59375 56 
Q 45.5625 56 51.78125 48.09375 
Q 58.015625 40.1875 58.015625 27.296875 
Q 58.015625 14.40625 51.78125 6.484375 
Q 45.5625 -1.421875 35.59375 -1.421875 
Q 29.59375 -1.421875 25.265625 0.953125 
Q 20.953125 3.328125 18.109375 8.203125 
L 18.109375 0 
L 9.078125 0 
L 9.078125 75.984375 
L 18.109375 75.984375 
z
" id="DejaVuSans-98"/>
       </defs>
       <use xlink:href="#DejaVuSans-69"/>
       <use x="63.183594" xlink:href="#DejaVuSans-109"/>
       <use x="160.595703" xlink:href="#DejaVuSans-98"/>
       <use x="224.072266" xlink:href="#DejaVuSans-114"/>
       <use x="265.185547" xlink:href="#DejaVuSans-121"/>
       <use x="324.365234" xlink:href="#DejaVuSans-111"/>
       <use x="385.546875" xlink:href="#DejaVuSans-110"/>
       <use x="448.925781" xlink:href="#DejaVuSans-105"/>
       <use x="476.708984" xlink:href="#DejaVuSans-99"/>
       <use x="531.689453" xlink:href="#DejaVuSans-32"/>
       <use x="563.476562" xlink:href="#DejaVuSans-115"/>
       <use x="615.576172" xlink:href="#DejaVuSans-116"/>
       <use x="654.785156" xlink:href="#DejaVuSans-101"/>
       <use x="716.308594" xlink:href="#DejaVuSans-109"/>
       <use x="813.720703" xlink:href="#DejaVuSans-32"/>
       <use x="845.507812" xlink:href="#DejaVuSans-99"/>
       <use x="900.488281" xlink:href="#DejaVuSans-101"/>
       <use x="962.011719" xlink:href="#DejaVuSans-108"/>
       <use x="989.794922" xlink:href="#DejaVuSans-108"/>
       <use x="1017.578125" xlink:href="#DejaVuSans-115"/>
      </g>
     </g>
    </g>
    <g id="xtick_7">
     <g id="line2d_7">
      <g>
       <use style="stroke:#000000;" x="639.672156" xlink:href="#mf060fb0c5f" y="601.956"/>
      </g>
     </g>
     <g id="text_7">
      <!-- Adipose -->
      <g transform="translate(535.876305 727.788107)rotate(-45)scale(0.352 -0.352)">
       <use xlink:href="#DejaVuSans-65"/>
       <use x="66.658203" xlink:href="#DejaVuSans-100"/>
       <use x="130.134766" xlink:href="#DejaVuSans-105"/>
       <use x="157.917969" xlink:href="#DejaVuSans-112"/>
       <use x="221.394531" xlink:href="#DejaVuSans-111"/>
       <use x="282.576172" xlink:href="#DejaVuSans-115"/>
       <use x="334.675781" xlink:href="#DejaVuSans-101"/>
      </g>
     </g>
    </g>
    <g id="xtick_8">
     <g id="line2d_8">
      <g>
       <use style="stroke:#000000;" x="694.22625" xlink:href="#mf060fb0c5f" y="601.956"/>
      </g>
     </g>
     <g id="text_8">
      <!-- Primary keratinocytes -->
      <g transform="translate(416.514305 901.704202)rotate(-45)scale(0.352 -0.352)">
       <defs>
        <path d="M 19.671875 64.796875 
L 19.671875 37.40625 
L 32.078125 37.40625 
Q 38.96875 37.40625 42.71875 40.96875 
Q 46.484375 44.53125 46.484375 51.125 
Q 46.484375 57.671875 42.71875 61.234375 
Q 38.96875 64.796875 32.078125 64.796875 
z
M 9.8125 72.90625 
L 32.078125 72.90625 
Q 44.34375 72.90625 50.609375 67.359375 
Q 56.890625 61.8125 56.890625 51.125 
Q 56.890625 40.328125 50.609375 34.8125 
Q 44.34375 29.296875 32.078125 29.296875 
L 19.671875 29.296875 
L 19.671875 0 
L 9.8125 0 
z
" id="DejaVuSans-80"/>
        <path d="M 9.078125 75.984375 
L 18.109375 75.984375 
L 18.109375 31.109375 
L 44.921875 54.6875 
L 56.390625 54.6875 
L 27.390625 29.109375 
L 57.625 0 
L 45.90625 0 
L 18.109375 26.703125 
L 18.109375 0 
L 9.078125 0 
z
" id="DejaVuSans-107"/>
       </defs>
       <use xlink:href="#DejaVuSans-80"/>
       <use x="58.552734" xlink:href="#DejaVuSans-114"/>
       <use x="99.666016" xlink:href="#DejaVuSans-105"/>
       <use x="127.449219" xlink:href="#DejaVuSans-109"/>
       <use x="224.861328" xlink:href="#DejaVuSans-97"/>
       <use x="286.140625" xlink:href="#DejaVuSans-114"/>
       <use x="327.253906" xlink:href="#DejaVuSans-121"/>
       <use x="386.433594" xlink:href="#DejaVuSans-32"/>
       <use x="418.220703" xlink:href="#DejaVuSans-107"/>
       <use x="472.505859" xlink:href="#DejaVuSans-101"/>
       <use x="534.029297" xlink:href="#DejaVuSans-114"/>
       <use x="575.142578" xlink:href="#DejaVuSans-97"/>
       <use x="636.421875" xlink:href="#DejaVuSans-116"/>
       <use x="675.630859" xlink:href="#DejaVuSans-105"/>
       <use x="703.414062" xlink:href="#DejaVuSans-110"/>
       <use x="766.792969" xlink:href="#DejaVuSans-111"/>
       <use x="827.974609" xlink:href="#DejaVuSans-99"/>
       <use x="882.955078" xlink:href="#DejaVuSans-121"/>
       <use x="942.134766" xlink:href="#DejaVuSans-116"/>
       <use x="981.34375" xlink:href="#DejaVuSans-101"/>
       <use x="1042.867188" xlink:href="#DejaVuSans-115"/>
      </g>
     </g>
    </g>
    <g id="xtick_9">
     <g id="line2d_9">
      <g>
       <use style="stroke:#000000;" x="748.780345" xlink:href="#mf060fb0c5f" y="601.956"/>
      </g>
     </g>
     <g id="text_9">
      <!-- Fetal liver -->
      <g transform="translate(621.397179 751.375422)rotate(-45)scale(0.352 -0.352)">
       <defs>
        <path d="M 9.8125 72.90625 
L 51.703125 72.90625 
L 51.703125 64.59375 
L 19.671875 64.59375 
L 19.671875 43.109375 
L 48.578125 43.109375 
L 48.578125 34.8125 
L 19.671875 34.8125 
L 19.671875 0 
L 9.8125 0 
z
" id="DejaVuSans-70"/>
       </defs>
       <use xlink:href="#DejaVuSans-70"/>
       <use x="52.019531" xlink:href="#DejaVuSans-101"/>
       <use x="113.542969" xlink:href="#DejaVuSans-116"/>
       <use x="152.751953" xlink:href="#DejaVuSans-97"/>
       <use x="214.03125" xlink:href="#DejaVuSans-108"/>
       <use x="241.814453" xlink:href="#DejaVuSans-32"/>
       <use x="273.601562" xlink:href="#DejaVuSans-108"/>
       <use x="301.384766" xlink:href="#DejaVuSans-105"/>
       <use x="329.167969" xlink:href="#DejaVuSans-118"/>
       <use x="388.347656" xlink:href="#DejaVuSans-101"/>
       <use x="449.871094" xlink:href="#DejaVuSans-114"/>
      </g>
     </g>
    </g>
    <g id="xtick_10">
     <g id="line2d_10">
      <g>
       <use style="stroke:#000000;" x="803.334439" xlink:href="#mf060fb0c5f" y="601.956"/>
      </g>
     </g>
     <g id="text_10">
      <!-- Hepatoblasts -->
      <g transform="translate(634.4236 792.903096)rotate(-45)scale(0.352 -0.352)">
       <use xlink:href="#DejaVuSans-72"/>
       <use x="75.195312" xlink:href="#DejaVuSans-101"/>
       <use x="136.71875" xlink:href="#DejaVuSans-112"/>
       <use x="200.195312" xlink:href="#DejaVuSans-97"/>
       <use x="261.474609" xlink:href="#DejaVuSans-116"/>
       <use x="300.683594" xlink:href="#DejaVuSans-111"/>
       <use x="361.865234" xlink:href="#DejaVuSans-98"/>
       <use x="425.341797" xlink:href="#DejaVuSans-108"/>
       <use x="453.125" xlink:href="#DejaVuSans-97"/>
       <use x="514.404297" xlink:href="#DejaVuSans-115"/>
       <use x="566.503906" xlink:href="#DejaVuSans-116"/>
       <use x="605.712891" xlink:href="#DejaVuSans-115"/>
      </g>
     </g>
    </g>
    <g id="xtick_11">
     <g id="line2d_11">
      <g>
       <use style="stroke:#000000;" x="857.888534" xlink:href="#mf060fb0c5f" y="601.956"/>
      </g>
     </g>
     <g id="text_11">
      <!-- Endometrial stromal cells -->
      <g transform="translate(535.891551 945.989239)rotate(-45)scale(0.352 -0.352)">
       <use xlink:href="#DejaVuSans-69"/>
       <use x="63.183594" xlink:href="#DejaVuSans-110"/>
       <use x="126.5625" xlink:href="#DejaVuSans-100"/>
       <use x="190.039062" xlink:href="#DejaVuSans-111"/>
       <use x="251.220703" xlink:href="#DejaVuSans-109"/>
       <use x="348.632812" xlink:href="#DejaVuSans-101"/>
       <use x="410.15625" xlink:href="#DejaVuSans-116"/>
       <use x="449.365234" xlink:href="#DejaVuSans-114"/>
       <use x="490.478516" xlink:href="#DejaVuSans-105"/>
       <use x="518.261719" xlink:href="#DejaVuSans-97"/>
       <use x="579.541016" xlink:href="#DejaVuSans-108"/>
       <use x="607.324219" xlink:href="#DejaVuSans-32"/>
       <use x="639.111328" xlink:href="#DejaVuSans-115"/>
       <use x="691.210938" xlink:href="#DejaVuSans-116"/>
       <use x="730.419922" xlink:href="#DejaVuSans-114"/>
       <use x="769.283203" xlink:href="#DejaVuSans-111"/>
       <use x="830.464844" xlink:href="#DejaVuSans-109"/>
       <use x="927.876953" xlink:href="#DejaVuSans-97"/>
       <use x="989.15625" xlink:href="#DejaVuSans-108"/>
       <use x="1016.939453" xlink:href="#DejaVuSans-32"/>
       <use x="1048.726562" xlink:href="#DejaVuSans-99"/>
       <use x="1103.707031" xlink:href="#DejaVuSans-101"/>
       <use x="1165.230469" xlink:href="#DejaVuSans-108"/>
       <use x="1193.013672" xlink:href="#DejaVuSans-108"/>
       <use x="1220.796875" xlink:href="#DejaVuSans-115"/>
      </g>
     </g>
    </g>
    <g id="xtick_12">
     <g id="line2d_12">
      <g>
       <use style="stroke:#000000;" x="912.442628" xlink:href="#mf060fb0c5f" y="601.956"/>
      </g>
     </g>
     <g id="text_12">
      <!-- Erythroid cells -->
      <g transform="translate(729.71775 806.717134)rotate(-45)scale(0.352 -0.352)">
       <use xlink:href="#DejaVuSans-69"/>
       <use x="63.183594" xlink:href="#DejaVuSans-114"/>
       <use x="104.296875" xlink:href="#DejaVuSans-121"/>
       <use x="163.476562" xlink:href="#DejaVuSans-116"/>
       <use x="202.685547" xlink:href="#DejaVuSans-104"/>
       <use x="266.064453" xlink:href="#DejaVuSans-114"/>
       <use x="304.927734" xlink:href="#DejaVuSans-111"/>
       <use x="366.109375" xlink:href="#DejaVuSans-105"/>
       <use x="393.892578" xlink:href="#DejaVuSans-100"/>
       <use x="457.369141" xlink:href="#DejaVuSans-32"/>
       <use x="489.15625" xlink:href="#DejaVuSans-99"/>
       <use x="544.136719" xlink:href="#DejaVuSans-101"/>
       <use x="605.660156" xlink:href="#DejaVuSans-108"/>
       <use x="633.443359" xlink:href="#DejaVuSans-108"/>
       <use x="661.226562" xlink:href="#DejaVuSans-115"/>
      </g>
     </g>
    </g>
    <g id="xtick_13">
     <g id="line2d_13">
      <g>
       <use style="stroke:#000000;" x="966.996722" xlink:href="#mf060fb0c5f" y="601.956"/>
      </g>
     </g>
     <g id="text_13">
      <!-- Pre-adipocytes -->
      <g transform="translate(777.823738 813.165241)rotate(-45)scale(0.352 -0.352)">
       <use xlink:href="#DejaVuSans-80"/>
       <use x="58.552734" xlink:href="#DejaVuSans-114"/>
       <use x="97.416016" xlink:href="#DejaVuSans-101"/>
       <use x="158.939453" xlink:href="#DejaVuSans-45"/>
       <use x="195.023438" xlink:href="#DejaVuSans-97"/>
       <use x="256.302734" xlink:href="#DejaVuSans-100"/>
       <use x="319.779297" xlink:href="#DejaVuSans-105"/>
       <use x="347.5625" xlink:href="#DejaVuSans-112"/>
       <use x="411.039062" xlink:href="#DejaVuSans-111"/>
       <use x="472.220703" xlink:href="#DejaVuSans-99"/>
       <use x="527.201172" xlink:href="#DejaVuSans-121"/>
       <use x="586.380859" xlink:href="#DejaVuSans-116"/>
       <use x="625.589844" xlink:href="#DejaVuSans-101"/>
       <use x="687.113281" xlink:href="#DejaVuSans-115"/>
      </g>
     </g>
    </g>
    <g id="xtick_14">
     <g id="line2d_14">
      <g>
       <use style="stroke:#000000;" x="1021.550817" xlink:href="#mf060fb0c5f" y="601.956"/>
      </g>
     </g>
     <g id="text_14">
      <!-- Luminal cells -->
      <g transform="translate(854.358954 791.184119)rotate(-45)scale(0.352 -0.352)">
       <defs>
        <path d="M 9.8125 72.90625 
L 19.671875 72.90625 
L 19.671875 8.296875 
L 55.171875 8.296875 
L 55.171875 0 
L 9.8125 0 
z
" id="DejaVuSans-76"/>
       </defs>
       <use xlink:href="#DejaVuSans-76"/>
       <use x="53.962891" xlink:href="#DejaVuSans-117"/>
       <use x="117.341797" xlink:href="#DejaVuSans-109"/>
       <use x="214.753906" xlink:href="#DejaVuSans-105"/>
       <use x="242.537109" xlink:href="#DejaVuSans-110"/>
       <use x="305.916016" xlink:href="#DejaVuSans-97"/>
       <use x="367.195312" xlink:href="#DejaVuSans-108"/>
       <use x="394.978516" xlink:href="#DejaVuSans-32"/>
       <use x="426.765625" xlink:href="#DejaVuSans-99"/>
       <use x="481.746094" xlink:href="#DejaVuSans-101"/>
       <use x="543.269531" xlink:href="#DejaVuSans-108"/>
       <use x="571.052734" xlink:href="#DejaVuSans-108"/>
       <use x="598.835938" xlink:href="#DejaVuSans-115"/>
      </g>
     </g>
    </g>
   </g>
   <g id="matplotlib.axis_2">
    <g id="ytick_1">
     <g id="line2d_15">
      <defs>
       <path d="M 0 0 
L -4.8 0 
" id="ma5ba89c64f" style="stroke:#000000;"/>
      </defs>
      <g>
       <use style="stroke:#000000;" x="285.070542" xlink:href="#ma5ba89c64f" y="566.06119"/>
      </g>
     </g>
     <g id="text_15">
      <!-- 0.0 -->
      <g transform="translate(220.791542 579.43444)scale(0.352 -0.352)">
       <defs>
        <path d="M 10.6875 12.40625 
L 21 12.40625 
L 21 0 
L 10.6875 0 
z
" id="DejaVuSans-46"/>
       </defs>
       <use xlink:href="#DejaVuSans-48"/>
       <use x="63.623047" xlink:href="#DejaVuSans-46"/>
       <use x="95.410156" xlink:href="#DejaVuSans-48"/>
      </g>
     </g>
    </g>
    <g id="ytick_2">
     <g id="line2d_16">
      <g>
       <use style="stroke:#000000;" x="285.070542" xlink:href="#ma5ba89c64f" y="466.06377"/>
      </g>
     </g>
     <g id="text_16">
      <!-- 0.5 -->
      <g transform="translate(220.791542 479.43702)scale(0.352 -0.352)">
       <defs>
        <path d="M 10.796875 72.90625 
L 49.515625 72.90625 
L 49.515625 64.59375 
L 19.828125 64.59375 
L 19.828125 46.734375 
Q 21.96875 47.46875 24.109375 47.828125 
Q 26.265625 48.1875 28.421875 48.1875 
Q 40.625 48.1875 47.75 41.5 
Q 54.890625 34.8125 54.890625 23.390625 
Q 54.890625 11.625 47.5625 5.09375 
Q 40.234375 -1.421875 26.90625 -1.421875 
Q 22.3125 -1.421875 17.546875 -0.640625 
Q 12.796875 0.140625 7.71875 1.703125 
L 7.71875 11.625 
Q 12.109375 9.234375 16.796875 8.0625 
Q 21.484375 6.890625 26.703125 6.890625 
Q 35.15625 6.890625 40.078125 11.328125 
Q 45.015625 15.765625 45.015625 23.390625 
Q 45.015625 31 40.078125 35.4375 
Q 35.15625 39.890625 26.703125 39.890625 
Q 22.75 39.890625 18.8125 39.015625 
Q 14.890625 38.140625 10.796875 36.28125 
z
" id="DejaVuSans-53"/>
       </defs>
       <use xlink:href="#DejaVuSans-48"/>
       <use x="63.623047" xlink:href="#DejaVuSans-46"/>
       <use x="95.410156" xlink:href="#DejaVuSans-53"/>
      </g>
     </g>
    </g>
    <g id="ytick_3">
     <g id="line2d_17">
      <g>
       <use style="stroke:#000000;" x="285.070542" xlink:href="#ma5ba89c64f" y="366.06635"/>
      </g>
     </g>
     <g id="text_17">
      <!-- 1.0 -->
      <g transform="translate(220.791542 379.4396)scale(0.352 -0.352)">
       <use xlink:href="#DejaVuSans-49"/>
       <use x="63.623047" xlink:href="#DejaVuSans-46"/>
       <use x="95.410156" xlink:href="#DejaVuSans-48"/>
      </g>
     </g>
    </g>
    <g id="ytick_4">
     <g id="line2d_18">
      <g>
       <use style="stroke:#000000;" x="285.070542" xlink:href="#ma5ba89c64f" y="266.06893"/>
      </g>
     </g>
     <g id="text_18">
      <!-- 1.5 -->
      <g transform="translate(220.791542 279.44218)scale(0.352 -0.352)">
       <use xlink:href="#DejaVuSans-49"/>
       <use x="63.623047" xlink:href="#DejaVuSans-46"/>
       <use x="95.410156" xlink:href="#DejaVuSans-53"/>
      </g>
     </g>
    </g>
    <g id="ytick_5">
     <g id="line2d_19">
      <g>
       <use style="stroke:#000000;" x="285.070542" xlink:href="#ma5ba89c64f" y="166.071509"/>
      </g>
     </g>
     <g id="text_19">
      <!-- 2.0 -->
      <g transform="translate(220.791542 179.444759)scale(0.352 -0.352)">
       <defs>
        <path d="M 19.1875 8.296875 
L 53.609375 8.296875 
L 53.609375 0 
L 7.328125 0 
L 7.328125 8.296875 
Q 12.9375 14.109375 22.625 23.890625 
Q 32.328125 33.6875 34.8125 36.53125 
Q 39.546875 41.84375 41.421875 45.53125 
Q 43.3125 49.21875 43.3125 52.78125 
Q 43.3125 58.59375 39.234375 62.25 
Q 35.15625 65.921875 28.609375 65.921875 
Q 23.96875 65.921875 18.8125 64.3125 
Q 13.671875 62.703125 7.8125 59.421875 
L 7.8125 69.390625 
Q 13.765625 71.78125 18.9375 73 
Q 24.125 74.21875 28.421875 74.21875 
Q 39.75 74.21875 46.484375 68.546875 
Q 53.21875 62.890625 53.21875 53.421875 
Q 53.21875 48.921875 51.53125 44.890625 
Q 49.859375 40.875 45.40625 35.40625 
Q 44.1875 33.984375 37.640625 27.21875 
Q 31.109375 20.453125 19.1875 8.296875 
z
" id="DejaVuSans-50"/>
       </defs>
       <use xlink:href="#DejaVuSans-50"/>
       <use x="63.623047" xlink:href="#DejaVuSans-46"/>
       <use x="95.410156" xlink:href="#DejaVuSans-48"/>
      </g>
     </g>
    </g>
    <g id="ytick_6">
     <g id="line2d_20">
      <g>
       <use style="stroke:#000000;" x="285.070542" xlink:href="#ma5ba89c64f" y="66.074089"/>
      </g>
     </g>
     <g id="text_20">
      <!-- 2.5 -->
      <g transform="translate(220.791542 79.447339)scale(0.352 -0.352)">
       <use xlink:href="#DejaVuSans-50"/>
       <use x="63.623047" xlink:href="#DejaVuSans-46"/>
       <use x="95.410156" xlink:href="#DejaVuSans-53"/>
      </g>
     </g>
    </g>
    <g id="text_21">
     <!-- LV246 -->
     <g transform="translate(208.805542 362.946)rotate(-90)scale(0.384 -0.384)">
      <defs>
       <path d="M 28.609375 0 
L 0.78125 72.90625 
L 11.078125 72.90625 
L 34.1875 11.53125 
L 57.328125 72.90625 
L 67.578125 72.90625 
L 39.796875 0 
z
" id="DejaVuSans-86"/>
       <path d="M 37.796875 64.3125 
L 12.890625 25.390625 
L 37.796875 25.390625 
z
M 35.203125 72.90625 
L 47.609375 72.90625 
L 47.609375 25.390625 
L 58.015625 25.390625 
L 58.015625 17.1875 
L 47.609375 17.1875 
L 47.609375 0 
L 37.796875 0 
L 37.796875 17.1875 
L 4.890625 17.1875 
L 4.890625 26.703125 
z
" id="DejaVuSans-52"/>
       <path d="M 33.015625 40.375 
Q 26.375 40.375 22.484375 35.828125 
Q 18.609375 31.296875 18.609375 23.390625 
Q 18.609375 15.53125 22.484375 10.953125 
Q 26.375 6.390625 33.015625 6.390625 
Q 39.65625 6.390625 43.53125 10.953125 
Q 47.40625 15.53125 47.40625 23.390625 
Q 47.40625 31.296875 43.53125 35.828125 
Q 39.65625 40.375 33.015625 40.375 
z
M 52.59375 71.296875 
L 52.59375 62.3125 
Q 48.875 64.0625 45.09375 64.984375 
Q 41.3125 65.921875 37.59375 65.921875 
Q 27.828125 65.921875 22.671875 59.328125 
Q 17.53125 52.734375 16.796875 39.40625 
Q 19.671875 43.65625 24.015625 45.921875 
Q 28.375 48.1875 33.59375 48.1875 
Q 44.578125 48.1875 50.953125 41.515625 
Q 57.328125 34.859375 57.328125 23.390625 
Q 57.328125 12.15625 50.6875 5.359375 
Q 44.046875 -1.421875 33.015625 -1.421875 
Q 20.359375 -1.421875 13.671875 8.265625 
Q 6.984375 17.96875 6.984375 36.375 
Q 6.984375 53.65625 15.1875 63.9375 
Q 23.390625 74.21875 37.203125 74.21875 
Q 40.921875 74.21875 44.703125 73.484375 
Q 48.484375 72.75 52.59375 71.296875 
z
" id="DejaVuSans-54"/>
      </defs>
      <use xlink:href="#DejaVuSans-76"/>
      <use x="44.712891" xlink:href="#DejaVuSans-86"/>
      <use x="113.121094" xlink:href="#DejaVuSans-50"/>
      <use x="176.744141" xlink:href="#DejaVuSans-52"/>
      <use x="240.367188" xlink:href="#DejaVuSans-54"/>
     </g>
    </g>
   </g>
   <g id="line2d_21">
    <path clip-path="url(#pe43b6cb890)" d="M 312.34759 330.514496 
L 312.34759 368.830796 
" style="fill:none;stroke:#474747;stroke-linecap:square;"/>
   </g>
   <g id="line2d_22">
    <path clip-path="url(#pe43b6cb890)" d="M 312.34759 238.257371 
L 312.34759 236.666132 
" style="fill:none;stroke:#474747;stroke-linecap:square;"/>
   </g>
   <g id="line2d_23">
    <path clip-path="url(#pe43b6cb890)" d="M 301.436771 368.830796 
L 323.258409 368.830796 
" style="fill:none;stroke:#474747;stroke-linecap:square;"/>
   </g>
   <g id="line2d_24">
    <path clip-path="url(#pe43b6cb890)" d="M 301.436771 236.666132 
L 323.258409 236.666132 
" style="fill:none;stroke:#474747;stroke-linecap:square;"/>
   </g>
   <g id="line2d_25">
    <defs>
     <path d="M -0 3.535534 
L 2.12132 0 
L -0 -3.535534 
L -2.12132 -0 
z
" id="mecb93a3028" style="stroke:#474747;stroke-linejoin:miter;"/>
    </defs>
    <g clip-path="url(#pe43b6cb890)">
     <use style="fill:#474747;stroke:#474747;stroke-linejoin:miter;" x="312.34759" xlink:href="#mecb93a3028" y="34.234364"/>
     <use style="fill:#474747;stroke:#474747;stroke-linejoin:miter;" x="312.34759" xlink:href="#mecb93a3028" y="44.934771"/>
     <use style="fill:#474747;stroke:#474747;stroke-linejoin:miter;" x="312.34759" xlink:href="#mecb93a3028" y="45.355054"/>
    </g>
   </g>
   <g id="line2d_26">
    <path clip-path="url(#pe43b6cb890)" d="M 366.901684 389.290843 
L 366.901684 401.840749 
" style="fill:none;stroke:#474747;stroke-linecap:square;"/>
   </g>
   <g id="line2d_27">
    <path clip-path="url(#pe43b6cb890)" d="M 366.901684 330.159576 
L 366.901684 298.814006 
" style="fill:none;stroke:#474747;stroke-linecap:square;"/>
   </g>
   <g id="line2d_28">
    <path clip-path="url(#pe43b6cb890)" d="M 355.990865 401.840749 
L 377.812503 401.840749 
" style="fill:none;stroke:#474747;stroke-linecap:square;"/>
   </g>
   <g id="line2d_29">
    <path clip-path="url(#pe43b6cb890)" d="M 355.990865 298.814006 
L 377.812503 298.814006 
" style="fill:none;stroke:#474747;stroke-linecap:square;"/>
   </g>
   <g id="line2d_30">
    <g clip-path="url(#pe43b6cb890)">
     <use style="fill:#474747;stroke:#474747;stroke-linejoin:miter;" x="366.901684" xlink:href="#mecb93a3028" y="556.309405"/>
     <use style="fill:#474747;stroke:#474747;stroke-linejoin:miter;" x="366.901684" xlink:href="#mecb93a3028" y="561.325061"/>
    </g>
   </g>
   <g id="line2d_31">
    <path clip-path="url(#pe43b6cb890)" d="M 421.455778 406.697357 
L 421.455778 441.94206 
" style="fill:none;stroke:#474747;stroke-linecap:square;"/>
   </g>
   <g id="line2d_32">
    <path clip-path="url(#pe43b6cb890)" d="M 421.455778 353.499922 
L 421.455778 290.166423 
" style="fill:none;stroke:#474747;stroke-linecap:square;"/>
   </g>
   <g id="line2d_33">
    <path clip-path="url(#pe43b6cb890)" d="M 410.54496 441.94206 
L 432.366597 441.94206 
" style="fill:none;stroke:#474747;stroke-linecap:square;"/>
   </g>
   <g id="line2d_34">
    <path clip-path="url(#pe43b6cb890)" d="M 410.54496 290.166423 
L 432.366597 290.166423 
" style="fill:none;stroke:#474747;stroke-linecap:square;"/>
   </g>
   <g id="line2d_35"/>
   <g id="line2d_36">
    <path clip-path="url(#pe43b6cb890)" d="M 476.009873 424.248455 
L 476.009873 425.223546 
" style="fill:none;stroke:#474747;stroke-linecap:square;"/>
   </g>
   <g id="line2d_37">
    <path clip-path="url(#pe43b6cb890)" d="M 476.009873 385.778697 
L 476.009873 379.485966 
" style="fill:none;stroke:#474747;stroke-linecap:square;"/>
   </g>
   <g id="line2d_38">
    <path clip-path="url(#pe43b6cb890)" d="M 465.099054 425.223546 
L 486.920692 425.223546 
" style="fill:none;stroke:#474747;stroke-linecap:square;"/>
   </g>
   <g id="line2d_39">
    <path clip-path="url(#pe43b6cb890)" d="M 465.099054 379.485966 
L 486.920692 379.485966 
" style="fill:none;stroke:#474747;stroke-linecap:square;"/>
   </g>
   <g id="line2d_40"/>
   <g id="line2d_41">
    <path clip-path="url(#pe43b6cb890)" d="M 530.563967 515.974414 
L 530.563967 518.46147 
" style="fill:none;stroke:#474747;stroke-linecap:square;"/>
   </g>
   <g id="line2d_42">
    <path clip-path="url(#pe43b6cb890)" d="M 530.563967 513.338258 
L 530.563967 513.189159 
" style="fill:none;stroke:#474747;stroke-linecap:square;"/>
   </g>
   <g id="line2d_43">
    <path clip-path="url(#pe43b6cb890)" d="M 519.653148 518.46147 
L 541.474786 518.46147 
" style="fill:none;stroke:#474747;stroke-linecap:square;"/>
   </g>
   <g id="line2d_44">
    <path clip-path="url(#pe43b6cb890)" d="M 519.653148 513.189159 
L 541.474786 513.189159 
" style="fill:none;stroke:#474747;stroke-linecap:square;"/>
   </g>
   <g id="line2d_45"/>
   <g id="line2d_46">
    <path clip-path="url(#pe43b6cb890)" d="M 585.118062 566.997136 
L 585.118062 574.921636 
" style="fill:none;stroke:#474747;stroke-linecap:square;"/>
   </g>
   <g id="line2d_47">
    <path clip-path="url(#pe43b6cb890)" d="M 585.118062 520.785084 
L 585.118062 515.989498 
" style="fill:none;stroke:#474747;stroke-linecap:square;"/>
   </g>
   <g id="line2d_48">
    <path clip-path="url(#pe43b6cb890)" d="M 574.207243 574.921636 
L 596.02888 574.921636 
" style="fill:none;stroke:#474747;stroke-linecap:square;"/>
   </g>
   <g id="line2d_49">
    <path clip-path="url(#pe43b6cb890)" d="M 574.207243 515.989498 
L 596.02888 515.989498 
" style="fill:none;stroke:#474747;stroke-linecap:square;"/>
   </g>
   <g id="line2d_50"/>
   <g id="line2d_51">
    <path clip-path="url(#pe43b6cb890)" d="M 639.672156 546.525252 
L 639.672156 566.605416 
" style="fill:none;stroke:#474747;stroke-linecap:square;"/>
   </g>
   <g id="line2d_52">
    <path clip-path="url(#pe43b6cb890)" d="M 639.672156 431.038344 
L 639.672156 418.791703 
" style="fill:none;stroke:#474747;stroke-linecap:square;"/>
   </g>
   <g id="line2d_53">
    <path clip-path="url(#pe43b6cb890)" d="M 628.761337 566.605416 
L 650.582975 566.605416 
" style="fill:none;stroke:#474747;stroke-linecap:square;"/>
   </g>
   <g id="line2d_54">
    <path clip-path="url(#pe43b6cb890)" d="M 628.761337 418.791703 
L 650.582975 418.791703 
" style="fill:none;stroke:#474747;stroke-linecap:square;"/>
   </g>
   <g id="line2d_55"/>
   <g id="line2d_56">
    <path clip-path="url(#pe43b6cb890)" d="M 694.22625 538.522895 
L 694.22625 544.588591 
" style="fill:none;stroke:#474747;stroke-linecap:square;"/>
   </g>
   <g id="line2d_57">
    <path clip-path="url(#pe43b6cb890)" d="M 694.22625 529.755931 
L 694.22625 527.054663 
" style="fill:none;stroke:#474747;stroke-linecap:square;"/>
   </g>
   <g id="line2d_58">
    <path clip-path="url(#pe43b6cb890)" d="M 683.315432 544.588591 
L 705.137069 544.588591 
" style="fill:none;stroke:#474747;stroke-linecap:square;"/>
   </g>
   <g id="line2d_59">
    <path clip-path="url(#pe43b6cb890)" d="M 683.315432 527.054663 
L 705.137069 527.054663 
" style="fill:none;stroke:#474747;stroke-linecap:square;"/>
   </g>
   <g id="line2d_60"/>
   <g id="line2d_61">
    <path clip-path="url(#pe43b6cb890)" d="M 748.780345 547.898882 
L 748.780345 549.734724 
" style="fill:none;stroke:#474747;stroke-linecap:square;"/>
   </g>
   <g id="line2d_62">
    <path clip-path="url(#pe43b6cb890)" d="M 748.780345 532.207318 
L 748.780345 522.323887 
" style="fill:none;stroke:#474747;stroke-linecap:square;"/>
   </g>
   <g id="line2d_63">
    <path clip-path="url(#pe43b6cb890)" d="M 737.869526 549.734724 
L 759.691164 549.734724 
" style="fill:none;stroke:#474747;stroke-linecap:square;"/>
   </g>
   <g id="line2d_64">
    <path clip-path="url(#pe43b6cb890)" d="M 737.869526 522.323887 
L 759.691164 522.323887 
" style="fill:none;stroke:#474747;stroke-linecap:square;"/>
   </g>
   <g id="line2d_65"/>
   <g id="line2d_66">
    <path clip-path="url(#pe43b6cb890)" d="M 803.334439 550.732522 
L 803.334439 556.052831 
" style="fill:none;stroke:#474747;stroke-linecap:square;"/>
   </g>
   <g id="line2d_67">
    <path clip-path="url(#pe43b6cb890)" d="M 803.334439 538.324752 
L 803.334439 531.237291 
" style="fill:none;stroke:#474747;stroke-linecap:square;"/>
   </g>
   <g id="line2d_68">
    <path clip-path="url(#pe43b6cb890)" d="M 792.42362 556.052831 
L 814.245258 556.052831 
" style="fill:none;stroke:#474747;stroke-linecap:square;"/>
   </g>
   <g id="line2d_69">
    <path clip-path="url(#pe43b6cb890)" d="M 792.42362 531.237291 
L 814.245258 531.237291 
" style="fill:none;stroke:#474747;stroke-linecap:square;"/>
   </g>
   <g id="line2d_70"/>
   <g id="line2d_71">
    <path clip-path="url(#pe43b6cb890)" d="M 857.888534 553.974586 
L 857.888534 556.83301 
" style="fill:none;stroke:#474747;stroke-linecap:square;"/>
   </g>
   <g id="line2d_72">
    <path clip-path="url(#pe43b6cb890)" d="M 857.888534 539.86888 
L 857.888534 531.186986 
" style="fill:none;stroke:#474747;stroke-linecap:square;"/>
   </g>
   <g id="line2d_73">
    <path clip-path="url(#pe43b6cb890)" d="M 846.977715 556.83301 
L 868.799352 556.83301 
" style="fill:none;stroke:#474747;stroke-linecap:square;"/>
   </g>
   <g id="line2d_74">
    <path clip-path="url(#pe43b6cb890)" d="M 846.977715 531.186986 
L 868.799352 531.186986 
" style="fill:none;stroke:#474747;stroke-linecap:square;"/>
   </g>
   <g id="line2d_75"/>
   <g id="line2d_76">
    <path clip-path="url(#pe43b6cb890)" d="M 912.442628 554.936563 
L 912.442628 559.65217 
" style="fill:none;stroke:#474747;stroke-linecap:square;"/>
   </g>
   <g id="line2d_77">
    <path clip-path="url(#pe43b6cb890)" d="M 912.442628 546.033505 
L 912.442628 537.955194 
" style="fill:none;stroke:#474747;stroke-linecap:square;"/>
   </g>
   <g id="line2d_78">
    <path clip-path="url(#pe43b6cb890)" d="M 901.531809 559.65217 
L 923.353447 559.65217 
" style="fill:none;stroke:#474747;stroke-linecap:square;"/>
   </g>
   <g id="line2d_79">
    <path clip-path="url(#pe43b6cb890)" d="M 901.531809 537.955194 
L 923.353447 537.955194 
" style="fill:none;stroke:#474747;stroke-linecap:square;"/>
   </g>
   <g id="line2d_80">
    <g clip-path="url(#pe43b6cb890)">
     <use style="fill:#474747;stroke:#474747;stroke-linejoin:miter;" x="912.442628" xlink:href="#mecb93a3028" y="519.890885"/>
    </g>
   </g>
   <g id="line2d_81">
    <path clip-path="url(#pe43b6cb890)" d="M 966.996722 570.810898 
L 966.996722 571.878038 
" style="fill:none;stroke:#474747;stroke-linecap:square;"/>
   </g>
   <g id="line2d_82">
    <path clip-path="url(#pe43b6cb890)" d="M 966.996722 527.510432 
L 966.996722 509.297496 
" style="fill:none;stroke:#474747;stroke-linecap:square;"/>
   </g>
   <g id="line2d_83">
    <path clip-path="url(#pe43b6cb890)" d="M 956.085903 571.878038 
L 977.907541 571.878038 
" style="fill:none;stroke:#474747;stroke-linecap:square;"/>
   </g>
   <g id="line2d_84">
    <path clip-path="url(#pe43b6cb890)" d="M 956.085903 509.297496 
L 977.907541 509.297496 
" style="fill:none;stroke:#474747;stroke-linecap:square;"/>
   </g>
   <g id="line2d_85"/>
   <g id="line2d_86">
    <path clip-path="url(#pe43b6cb890)" d="M 1021.550817 562.502242 
L 1021.550817 571.076501 
" style="fill:none;stroke:#474747;stroke-linecap:square;"/>
   </g>
   <g id="line2d_87">
    <path clip-path="url(#pe43b6cb890)" d="M 1021.550817 536.308347 
L 1021.550817 518.688711 
" style="fill:none;stroke:#474747;stroke-linecap:square;"/>
   </g>
   <g id="line2d_88">
    <path clip-path="url(#pe43b6cb890)" d="M 1010.639998 571.076501 
L 1032.461636 571.076501 
" style="fill:none;stroke:#474747;stroke-linecap:square;"/>
   </g>
   <g id="line2d_89">
    <path clip-path="url(#pe43b6cb890)" d="M 1010.639998 518.688711 
L 1032.461636 518.688711 
" style="fill:none;stroke:#474747;stroke-linecap:square;"/>
   </g>
   <g id="line2d_90"/>
   <g id="line2d_91">
    <path clip-path="url(#pe43b6cb890)" d="M 290.525952 271.79638 
L 334.169227 271.79638 
" style="fill:none;stroke:#474747;stroke-linecap:square;"/>
   </g>
   <g id="line2d_92">
    <path clip-path="url(#pe43b6cb890)" d="M 345.080046 341.942272 
L 388.723322 341.942272 
" style="fill:none;stroke:#474747;stroke-linecap:square;"/>
   </g>
   <g id="line2d_93">
    <path clip-path="url(#pe43b6cb890)" d="M 399.634141 396.853106 
L 443.277416 396.853106 
" style="fill:none;stroke:#474747;stroke-linecap:square;"/>
   </g>
   <g id="line2d_94">
    <path clip-path="url(#pe43b6cb890)" d="M 454.188235 410.612283 
L 497.831511 410.612283 
" style="fill:none;stroke:#474747;stroke-linecap:square;"/>
   </g>
   <g id="line2d_95">
    <path clip-path="url(#pe43b6cb890)" d="M 508.742329 513.487357 
L 552.385605 513.487357 
" style="fill:none;stroke:#474747;stroke-linecap:square;"/>
   </g>
   <g id="line2d_96">
    <path clip-path="url(#pe43b6cb890)" d="M 563.296424 529.67487 
L 606.939699 529.67487 
" style="fill:none;stroke:#474747;stroke-linecap:square;"/>
   </g>
   <g id="line2d_97">
    <path clip-path="url(#pe43b6cb890)" d="M 617.850518 530.424845 
L 661.493794 530.424845 
" style="fill:none;stroke:#474747;stroke-linecap:square;"/>
   </g>
   <g id="line2d_98">
    <path clip-path="url(#pe43b6cb890)" d="M 672.404613 532.457198 
L 716.047888 532.457198 
" style="fill:none;stroke:#474747;stroke-linecap:square;"/>
   </g>
   <g id="line2d_99">
    <path clip-path="url(#pe43b6cb890)" d="M 726.958707 543.085031 
L 770.601983 543.085031 
" style="fill:none;stroke:#474747;stroke-linecap:square;"/>
   </g>
   <g id="line2d_100">
    <path clip-path="url(#pe43b6cb890)" d="M 781.512801 545.412214 
L 825.156077 545.412214 
" style="fill:none;stroke:#474747;stroke-linecap:square;"/>
   </g>
   <g id="line2d_101">
    <path clip-path="url(#pe43b6cb890)" d="M 836.066896 547.892312 
L 879.710171 547.892312 
" style="fill:none;stroke:#474747;stroke-linecap:square;"/>
   </g>
   <g id="line2d_102">
    <path clip-path="url(#pe43b6cb890)" d="M 890.62099 550.075556 
L 934.264266 550.075556 
" style="fill:none;stroke:#474747;stroke-linecap:square;"/>
   </g>
   <g id="line2d_103">
    <path clip-path="url(#pe43b6cb890)" d="M 945.175085 551.905599 
L 988.81836 551.905599 
" style="fill:none;stroke:#474747;stroke-linecap:square;"/>
   </g>
   <g id="line2d_104">
    <path clip-path="url(#pe43b6cb890)" d="M 999.729179 553.927983 
L 1043.372454 553.927983 
" style="fill:none;stroke:#474747;stroke-linecap:square;"/>
   </g>
   <g id="patch_17">
    <path d="M 285.070542 601.956 
L 285.070542 7.2 
" style="fill:none;stroke:#000000;stroke-linecap:square;stroke-linejoin:miter;"/>
   </g>
   <g id="patch_18">
    <path d="M 285.070542 601.956 
L 1048.827864 601.956 
" style="fill:none;stroke:#000000;stroke-linecap:square;stroke-linejoin:miter;"/>
   </g>
  </g>
 </g>
 <defs>
  <clipPath id="pe43b6cb890">
   <rect height="594.756" width="763.757321" x="285.070542" y="7.2"/>
  </clipPath>
 </defs>
</svg>
