<?xml version="1.0" encoding="utf-8" standalone="no"?>
<!DOCTYPE svg PUBLIC "-//W3C//DTD SVG 1.1//EN"
  "http://www.w3.org/Graphics/SVG/1.1/DTD/svg11.dtd">
<!-- Created with matplotlib (https://matplotlib.org/) -->
<svg height="548.558396pt" version="1.1" viewBox="0 0 1048.072134 548.558396" width="1048.072134pt" xmlns="http://www.w3.org/2000/svg" xmlns:xlink="http://www.w3.org/1999/xlink">
 <metadata>
  <rdf:RDF xmlns:cc="http://creativecommons.org/ns#" xmlns:dc="http://purl.org/dc/elements/1.1/" xmlns:rdf="http://www.w3.org/1999/02/22-rdf-syntax-ns#">
   <cc:Work>
    <dc:type rdf:resource="http://purl.org/dc/dcmitype/StillImage"/>
    <dc:date>2021-05-23T01:59:41.261213</dc:date>
    <dc:format>image/svg+xml</dc:format>
    <dc:creator>
     <cc:Agent>
      <dc:title>Matplotlib v3.3.4, https://matplotlib.org/</dc:title>
     </cc:Agent>
    </dc:creator>
   </cc:Work>
  </rdf:RDF>
 </metadata>
 <defs>
  <style type="text/css">*{stroke-linecap:butt;stroke-linejoin:round;}</style>
 </defs>
 <g id="figure_1">
  <g id="patch_1">
   <path d="M 0 548.558396 
L 1048.072134 548.558396 
L 1048.072134 0 
L 0 0 
z
" style="fill:#ffffff;"/>
  </g>
  <g id="axes_1">
   <g id="patch_2">
    <path d="M 105.604794 313.796 
L 1040.872134 313.796 
L 1040.872134 7.2 
L 105.604794 7.2 
z
" style="fill:#ffffff;"/>
   </g>
   <g id="matplotlib.axis_1">
    <g id="xtick_1">
     <g id="text_1">
      <!-- ovarian granulosa cells -->
      <g style="fill:#262626;" transform="translate(14.292237 437.265001)rotate(-45)scale(0.132 -0.132)">
       <defs>
        <path d="M 30.609375 48.390625 
Q 23.390625 48.390625 19.1875 42.75 
Q 14.984375 37.109375 14.984375 27.296875 
Q 14.984375 17.484375 19.15625 11.84375 
Q 23.34375 6.203125 30.609375 6.203125 
Q 37.796875 6.203125 41.984375 11.859375 
Q 46.1875 17.53125 46.1875 27.296875 
Q 46.1875 37.015625 41.984375 42.703125 
Q 37.796875 48.390625 30.609375 48.390625 
z
M 30.609375 56 
Q 42.328125 56 49.015625 48.375 
Q 55.71875 40.765625 55.71875 27.296875 
Q 55.71875 13.875 49.015625 6.21875 
Q 42.328125 -1.421875 30.609375 -1.421875 
Q 18.84375 -1.421875 12.171875 6.21875 
Q 5.515625 13.875 5.515625 27.296875 
Q 5.515625 40.765625 12.171875 48.375 
Q 18.84375 56 30.609375 56 
z
" id="DejaVuSans-111"/>
        <path d="M 2.984375 54.6875 
L 12.5 54.6875 
L 29.59375 8.796875 
L 46.6875 54.6875 
L 56.203125 54.6875 
L 35.6875 0 
L 23.484375 0 
z
" id="DejaVuSans-118"/>
        <path d="M 34.28125 27.484375 
Q 23.390625 27.484375 19.1875 25 
Q 14.984375 22.515625 14.984375 16.5 
Q 14.984375 11.71875 18.140625 8.90625 
Q 21.296875 6.109375 26.703125 6.109375 
Q 34.1875 6.109375 38.703125 11.40625 
Q 43.21875 16.703125 43.21875 25.484375 
L 43.21875 27.484375 
z
M 52.203125 31.203125 
L 52.203125 0 
L 43.21875 0 
L 43.21875 8.296875 
Q 40.140625 3.328125 35.546875 0.953125 
Q 30.953125 -1.421875 24.3125 -1.421875 
Q 15.921875 -1.421875 10.953125 3.296875 
Q 6 8.015625 6 15.921875 
Q 6 25.140625 12.171875 29.828125 
Q 18.359375 34.515625 30.609375 34.515625 
L 43.21875 34.515625 
L 43.21875 35.40625 
Q 43.21875 41.609375 39.140625 45 
Q 35.0625 48.390625 27.6875 48.390625 
Q 23 48.390625 18.546875 47.265625 
Q 14.109375 46.140625 10.015625 43.890625 
L 10.015625 52.203125 
Q 14.9375 54.109375 19.578125 55.046875 
Q 24.21875 56 28.609375 56 
Q 40.484375 56 46.34375 49.84375 
Q 52.203125 43.703125 52.203125 31.203125 
z
" id="DejaVuSans-97"/>
        <path d="M 41.109375 46.296875 
Q 39.59375 47.171875 37.8125 47.578125 
Q 36.03125 48 33.890625 48 
Q 26.265625 48 22.1875 43.046875 
Q 18.109375 38.09375 18.109375 28.8125 
L 18.109375 0 
L 9.078125 0 
L 9.078125 54.6875 
L 18.109375 54.6875 
L 18.109375 46.1875 
Q 20.953125 51.171875 25.484375 53.578125 
Q 30.03125 56 36.53125 56 
Q 37.453125 56 38.578125 55.875 
Q 39.703125 55.765625 41.0625 55.515625 
z
" id="DejaVuSans-114"/>
        <path d="M 9.421875 54.6875 
L 18.40625 54.6875 
L 18.40625 0 
L 9.421875 0 
z
M 9.421875 75.984375 
L 18.40625 75.984375 
L 18.40625 64.59375 
L 9.421875 64.59375 
z
" id="DejaVuSans-105"/>
        <path d="M 54.890625 33.015625 
L 54.890625 0 
L 45.90625 0 
L 45.90625 32.71875 
Q 45.90625 40.484375 42.875 44.328125 
Q 39.84375 48.1875 33.796875 48.1875 
Q 26.515625 48.1875 22.3125 43.546875 
Q 18.109375 38.921875 18.109375 30.90625 
L 18.109375 0 
L 9.078125 0 
L 9.078125 54.6875 
L 18.109375 54.6875 
L 18.109375 46.1875 
Q 21.34375 51.125 25.703125 53.5625 
Q 30.078125 56 35.796875 56 
Q 45.21875 56 50.046875 50.171875 
Q 54.890625 44.34375 54.890625 33.015625 
z
" id="DejaVuSans-110"/>
        <path id="DejaVuSans-32"/>
        <path d="M 45.40625 27.984375 
Q 45.40625 37.75 41.375 43.109375 
Q 37.359375 48.484375 30.078125 48.484375 
Q 22.859375 48.484375 18.828125 43.109375 
Q 14.796875 37.75 14.796875 27.984375 
Q 14.796875 18.265625 18.828125 12.890625 
Q 22.859375 7.515625 30.078125 7.515625 
Q 37.359375 7.515625 41.375 12.890625 
Q 45.40625 18.265625 45.40625 27.984375 
z
M 54.390625 6.78125 
Q 54.390625 -7.171875 48.1875 -13.984375 
Q 42 -20.796875 29.203125 -20.796875 
Q 24.46875 -20.796875 20.265625 -20.09375 
Q 16.0625 -19.390625 12.109375 -17.921875 
L 12.109375 -9.1875 
Q 16.0625 -11.328125 19.921875 -12.34375 
Q 23.78125 -13.375 27.78125 -13.375 
Q 36.625 -13.375 41.015625 -8.765625 
Q 45.40625 -4.15625 45.40625 5.171875 
L 45.40625 9.625 
Q 42.625 4.78125 38.28125 2.390625 
Q 33.9375 0 27.875 0 
Q 17.828125 0 11.671875 7.65625 
Q 5.515625 15.328125 5.515625 27.984375 
Q 5.515625 40.671875 11.671875 48.328125 
Q 17.828125 56 27.875 56 
Q 33.9375 56 38.28125 53.609375 
Q 42.625 51.21875 45.40625 46.390625 
L 45.40625 54.6875 
L 54.390625 54.6875 
z
" id="DejaVuSans-103"/>
        <path d="M 8.5 21.578125 
L 8.5 54.6875 
L 17.484375 54.6875 
L 17.484375 21.921875 
Q 17.484375 14.15625 20.5 10.265625 
Q 23.53125 6.390625 29.59375 6.390625 
Q 36.859375 6.390625 41.078125 11.03125 
Q 45.3125 15.671875 45.3125 23.6875 
L 45.3125 54.6875 
L 54.296875 54.6875 
L 54.296875 0 
L 45.3125 0 
L 45.3125 8.40625 
Q 42.046875 3.421875 37.71875 1 
Q 33.40625 -1.421875 27.6875 -1.421875 
Q 18.265625 -1.421875 13.375 4.4375 
Q 8.5 10.296875 8.5 21.578125 
z
M 31.109375 56 
z
" id="DejaVuSans-117"/>
        <path d="M 9.421875 75.984375 
L 18.40625 75.984375 
L 18.40625 0 
L 9.421875 0 
z
" id="DejaVuSans-108"/>
        <path d="M 44.28125 53.078125 
L 44.28125 44.578125 
Q 40.484375 46.53125 36.375 47.5 
Q 32.28125 48.484375 27.875 48.484375 
Q 21.1875 48.484375 17.84375 46.4375 
Q 14.5 44.390625 14.5 40.28125 
Q 14.5 37.15625 16.890625 35.375 
Q 19.28125 33.59375 26.515625 31.984375 
L 29.59375 31.296875 
Q 39.15625 29.25 43.1875 25.515625 
Q 47.21875 21.78125 47.21875 15.09375 
Q 47.21875 7.46875 41.1875 3.015625 
Q 35.15625 -1.421875 24.609375 -1.421875 
Q 20.21875 -1.421875 15.453125 -0.5625 
Q 10.6875 0.296875 5.421875 2 
L 5.421875 11.28125 
Q 10.40625 8.6875 15.234375 7.390625 
Q 20.0625 6.109375 24.8125 6.109375 
Q 31.15625 6.109375 34.5625 8.28125 
Q 37.984375 10.453125 37.984375 14.40625 
Q 37.984375 18.0625 35.515625 20.015625 
Q 33.0625 21.96875 24.703125 23.78125 
L 21.578125 24.515625 
Q 13.234375 26.265625 9.515625 29.90625 
Q 5.8125 33.546875 5.8125 39.890625 
Q 5.8125 47.609375 11.28125 51.796875 
Q 16.75 56 26.8125 56 
Q 31.78125 56 36.171875 55.265625 
Q 40.578125 54.546875 44.28125 53.078125 
z
" id="DejaVuSans-115"/>
        <path d="M 48.78125 52.59375 
L 48.78125 44.1875 
Q 44.96875 46.296875 41.140625 47.34375 
Q 37.3125 48.390625 33.40625 48.390625 
Q 24.65625 48.390625 19.8125 42.84375 
Q 14.984375 37.3125 14.984375 27.296875 
Q 14.984375 17.28125 19.8125 11.734375 
Q 24.65625 6.203125 33.40625 6.203125 
Q 37.3125 6.203125 41.140625 7.25 
Q 44.96875 8.296875 48.78125 10.40625 
L 48.78125 2.09375 
Q 45.015625 0.34375 40.984375 -0.53125 
Q 36.96875 -1.421875 32.421875 -1.421875 
Q 20.0625 -1.421875 12.78125 6.34375 
Q 5.515625 14.109375 5.515625 27.296875 
Q 5.515625 40.671875 12.859375 48.328125 
Q 20.21875 56 33.015625 56 
Q 37.15625 56 41.109375 55.140625 
Q 45.0625 54.296875 48.78125 52.59375 
z
" id="DejaVuSans-99"/>
        <path d="M 56.203125 29.59375 
L 56.203125 25.203125 
L 14.890625 25.203125 
Q 15.484375 15.921875 20.484375 11.0625 
Q 25.484375 6.203125 34.421875 6.203125 
Q 39.59375 6.203125 44.453125 7.46875 
Q 49.3125 8.734375 54.109375 11.28125 
L 54.109375 2.78125 
Q 49.265625 0.734375 44.1875 -0.34375 
Q 39.109375 -1.421875 33.890625 -1.421875 
Q 20.796875 -1.421875 13.15625 6.1875 
Q 5.515625 13.8125 5.515625 26.8125 
Q 5.515625 40.234375 12.765625 48.109375 
Q 20.015625 56 32.328125 56 
Q 43.359375 56 49.78125 48.890625 
Q 56.203125 41.796875 56.203125 29.59375 
z
M 47.21875 32.234375 
Q 47.125 39.59375 43.09375 43.984375 
Q 39.0625 48.390625 32.421875 48.390625 
Q 24.90625 48.390625 20.390625 44.140625 
Q 15.875 39.890625 15.1875 32.171875 
z
" id="DejaVuSans-101"/>
       </defs>
       <use xlink:href="#DejaVuSans-111"/>
       <use x="61.181641" xlink:href="#DejaVuSans-118"/>
       <use x="120.361328" xlink:href="#DejaVuSans-97"/>
       <use x="181.640625" xlink:href="#DejaVuSans-114"/>
       <use x="222.753906" xlink:href="#DejaVuSans-105"/>
       <use x="250.537109" xlink:href="#DejaVuSans-97"/>
       <use x="311.816406" xlink:href="#DejaVuSans-110"/>
       <use x="375.195312" xlink:href="#DejaVuSans-32"/>
       <use x="406.982422" xlink:href="#DejaVuSans-103"/>
       <use x="470.458984" xlink:href="#DejaVuSans-114"/>
       <use x="511.572266" xlink:href="#DejaVuSans-97"/>
       <use x="572.851562" xlink:href="#DejaVuSans-110"/>
       <use x="636.230469" xlink:href="#DejaVuSans-117"/>
       <use x="699.609375" xlink:href="#DejaVuSans-108"/>
       <use x="727.392578" xlink:href="#DejaVuSans-111"/>
       <use x="788.574219" xlink:href="#DejaVuSans-115"/>
       <use x="840.673828" xlink:href="#DejaVuSans-97"/>
       <use x="901.953125" xlink:href="#DejaVuSans-32"/>
       <use x="933.740234" xlink:href="#DejaVuSans-99"/>
       <use x="988.720703" xlink:href="#DejaVuSans-101"/>
       <use x="1050.244141" xlink:href="#DejaVuSans-108"/>
       <use x="1078.027344" xlink:href="#DejaVuSans-108"/>
       <use x="1105.810547" xlink:href="#DejaVuSans-115"/>
      </g>
     </g>
    </g>
    <g id="xtick_2">
     <g id="text_2">
      <!-- ovary -->
      <g style="fill:#262626;" transform="translate(133.462727 355.505204)rotate(-45)scale(0.132 -0.132)">
       <defs>
        <path d="M 32.171875 -5.078125 
Q 28.375 -14.84375 24.75 -17.8125 
Q 21.140625 -20.796875 15.09375 -20.796875 
L 7.90625 -20.796875 
L 7.90625 -13.28125 
L 13.1875 -13.28125 
Q 16.890625 -13.28125 18.9375 -11.515625 
Q 21 -9.765625 23.484375 -3.21875 
L 25.09375 0.875 
L 2.984375 54.6875 
L 12.5 54.6875 
L 29.59375 11.921875 
L 46.6875 54.6875 
L 56.203125 54.6875 
z
" id="DejaVuSans-121"/>
       </defs>
       <use xlink:href="#DejaVuSans-111"/>
       <use x="61.181641" xlink:href="#DejaVuSans-118"/>
       <use x="120.361328" xlink:href="#DejaVuSans-97"/>
       <use x="181.640625" xlink:href="#DejaVuSans-114"/>
       <use x="222.753906" xlink:href="#DejaVuSans-121"/>
      </g>
     </g>
    </g>
    <g id="xtick_3">
     <g id="text_3">
      <!-- mural granulosa cells -->
      <g style="fill:#262626;" transform="translate(96.977359 429.401266)rotate(-45)scale(0.132 -0.132)">
       <defs>
        <path d="M 52 44.1875 
Q 55.375 50.25 60.0625 53.125 
Q 64.75 56 71.09375 56 
Q 79.640625 56 84.28125 50.015625 
Q 88.921875 44.046875 88.921875 33.015625 
L 88.921875 0 
L 79.890625 0 
L 79.890625 32.71875 
Q 79.890625 40.578125 77.09375 44.375 
Q 74.3125 48.1875 68.609375 48.1875 
Q 61.625 48.1875 57.5625 43.546875 
Q 53.515625 38.921875 53.515625 30.90625 
L 53.515625 0 
L 44.484375 0 
L 44.484375 32.71875 
Q 44.484375 40.625 41.703125 44.40625 
Q 38.921875 48.1875 33.109375 48.1875 
Q 26.21875 48.1875 22.15625 43.53125 
Q 18.109375 38.875 18.109375 30.90625 
L 18.109375 0 
L 9.078125 0 
L 9.078125 54.6875 
L 18.109375 54.6875 
L 18.109375 46.1875 
Q 21.1875 51.21875 25.484375 53.609375 
Q 29.78125 56 35.6875 56 
Q 41.65625 56 45.828125 52.96875 
Q 50 49.953125 52 44.1875 
z
" id="DejaVuSans-109"/>
       </defs>
       <use xlink:href="#DejaVuSans-109"/>
       <use x="97.412109" xlink:href="#DejaVuSans-117"/>
       <use x="160.791016" xlink:href="#DejaVuSans-114"/>
       <use x="201.904297" xlink:href="#DejaVuSans-97"/>
       <use x="263.183594" xlink:href="#DejaVuSans-108"/>
       <use x="290.966797" xlink:href="#DejaVuSans-32"/>
       <use x="322.753906" xlink:href="#DejaVuSans-103"/>
       <use x="386.230469" xlink:href="#DejaVuSans-114"/>
       <use x="427.34375" xlink:href="#DejaVuSans-97"/>
       <use x="488.623047" xlink:href="#DejaVuSans-110"/>
       <use x="552.001953" xlink:href="#DejaVuSans-117"/>
       <use x="615.380859" xlink:href="#DejaVuSans-108"/>
       <use x="643.164062" xlink:href="#DejaVuSans-111"/>
       <use x="704.345703" xlink:href="#DejaVuSans-115"/>
       <use x="756.445312" xlink:href="#DejaVuSans-97"/>
       <use x="817.724609" xlink:href="#DejaVuSans-32"/>
       <use x="849.511719" xlink:href="#DejaVuSans-99"/>
       <use x="904.492188" xlink:href="#DejaVuSans-101"/>
       <use x="966.015625" xlink:href="#DejaVuSans-108"/>
       <use x="993.798828" xlink:href="#DejaVuSans-108"/>
       <use x="1021.582031" xlink:href="#DejaVuSans-115"/>
      </g>
     </g>
    </g>
    <g id="xtick_4">
     <g id="text_4">
      <!-- cumulus granulosa cells -->
      <g style="fill:#262626;" transform="translate(122.119926 441.669392)rotate(-45)scale(0.132 -0.132)">
       <use xlink:href="#DejaVuSans-99"/>
       <use x="54.980469" xlink:href="#DejaVuSans-117"/>
       <use x="118.359375" xlink:href="#DejaVuSans-109"/>
       <use x="215.771484" xlink:href="#DejaVuSans-117"/>
       <use x="279.150391" xlink:href="#DejaVuSans-108"/>
       <use x="306.933594" xlink:href="#DejaVuSans-117"/>
       <use x="370.3125" xlink:href="#DejaVuSans-115"/>
       <use x="422.412109" xlink:href="#DejaVuSans-32"/>
       <use x="454.199219" xlink:href="#DejaVuSans-103"/>
       <use x="517.675781" xlink:href="#DejaVuSans-114"/>
       <use x="558.789062" xlink:href="#DejaVuSans-97"/>
       <use x="620.068359" xlink:href="#DejaVuSans-110"/>
       <use x="683.447266" xlink:href="#DejaVuSans-117"/>
       <use x="746.826172" xlink:href="#DejaVuSans-108"/>
       <use x="774.609375" xlink:href="#DejaVuSans-111"/>
       <use x="835.791016" xlink:href="#DejaVuSans-115"/>
       <use x="887.890625" xlink:href="#DejaVuSans-97"/>
       <use x="949.169922" xlink:href="#DejaVuSans-32"/>
       <use x="980.957031" xlink:href="#DejaVuSans-99"/>
       <use x="1035.9375" xlink:href="#DejaVuSans-101"/>
       <use x="1097.460938" xlink:href="#DejaVuSans-108"/>
       <use x="1125.244141" xlink:href="#DejaVuSans-108"/>
       <use x="1153.027344" xlink:href="#DejaVuSans-115"/>
      </g>
     </g>
    </g>
    <g id="xtick_5">
     <g id="text_5">
      <!-- adrenal tumor -->
      <g style="fill:#262626;" transform="translate(205.587136 395.612876)rotate(-45)scale(0.132 -0.132)">
       <defs>
        <path d="M 45.40625 46.390625 
L 45.40625 75.984375 
L 54.390625 75.984375 
L 54.390625 0 
L 45.40625 0 
L 45.40625 8.203125 
Q 42.578125 3.328125 38.25 0.953125 
Q 33.9375 -1.421875 27.875 -1.421875 
Q 17.96875 -1.421875 11.734375 6.484375 
Q 5.515625 14.40625 5.515625 27.296875 
Q 5.515625 40.1875 11.734375 48.09375 
Q 17.96875 56 27.875 56 
Q 33.9375 56 38.25 53.625 
Q 42.578125 51.265625 45.40625 46.390625 
z
M 14.796875 27.296875 
Q 14.796875 17.390625 18.875 11.75 
Q 22.953125 6.109375 30.078125 6.109375 
Q 37.203125 6.109375 41.296875 11.75 
Q 45.40625 17.390625 45.40625 27.296875 
Q 45.40625 37.203125 41.296875 42.84375 
Q 37.203125 48.484375 30.078125 48.484375 
Q 22.953125 48.484375 18.875 42.84375 
Q 14.796875 37.203125 14.796875 27.296875 
z
" id="DejaVuSans-100"/>
        <path d="M 18.3125 70.21875 
L 18.3125 54.6875 
L 36.8125 54.6875 
L 36.8125 47.703125 
L 18.3125 47.703125 
L 18.3125 18.015625 
Q 18.3125 11.328125 20.140625 9.421875 
Q 21.96875 7.515625 27.59375 7.515625 
L 36.8125 7.515625 
L 36.8125 0 
L 27.59375 0 
Q 17.1875 0 13.234375 3.875 
Q 9.28125 7.765625 9.28125 18.015625 
L 9.28125 47.703125 
L 2.6875 47.703125 
L 2.6875 54.6875 
L 9.28125 54.6875 
L 9.28125 70.21875 
z
" id="DejaVuSans-116"/>
       </defs>
       <use xlink:href="#DejaVuSans-97"/>
       <use x="61.279297" xlink:href="#DejaVuSans-100"/>
       <use x="124.755859" xlink:href="#DejaVuSans-114"/>
       <use x="163.619141" xlink:href="#DejaVuSans-101"/>
       <use x="225.142578" xlink:href="#DejaVuSans-110"/>
       <use x="288.521484" xlink:href="#DejaVuSans-97"/>
       <use x="349.800781" xlink:href="#DejaVuSans-108"/>
       <use x="377.583984" xlink:href="#DejaVuSans-32"/>
       <use x="409.371094" xlink:href="#DejaVuSans-116"/>
       <use x="448.580078" xlink:href="#DejaVuSans-117"/>
       <use x="511.958984" xlink:href="#DejaVuSans-109"/>
       <use x="609.371094" xlink:href="#DejaVuSans-111"/>
       <use x="670.552734" xlink:href="#DejaVuSans-114"/>
      </g>
     </g>
    </g>
    <g id="xtick_6">
     <g id="text_6">
      <!-- adrenal -->
      <g style="fill:#262626;" transform="translate(274.178587 364.432118)rotate(-45)scale(0.132 -0.132)">
       <use xlink:href="#DejaVuSans-97"/>
       <use x="61.279297" xlink:href="#DejaVuSans-100"/>
       <use x="124.755859" xlink:href="#DejaVuSans-114"/>
       <use x="163.619141" xlink:href="#DejaVuSans-101"/>
       <use x="225.142578" xlink:href="#DejaVuSans-110"/>
       <use x="288.521484" xlink:href="#DejaVuSans-97"/>
       <use x="349.800781" xlink:href="#DejaVuSans-108"/>
      </g>
     </g>
    </g>
    <g id="xtick_7">
     <g id="text_7">
      <!-- MCF10a human breast cancer cells -->
      <g style="fill:#262626;" transform="translate(182.932926 493.088473)rotate(-45)scale(0.132 -0.132)">
       <defs>
        <path d="M 9.8125 72.90625 
L 24.515625 72.90625 
L 43.109375 23.296875 
L 61.8125 72.90625 
L 76.515625 72.90625 
L 76.515625 0 
L 66.890625 0 
L 66.890625 64.015625 
L 48.09375 14.015625 
L 38.1875 14.015625 
L 19.390625 64.015625 
L 19.390625 0 
L 9.8125 0 
z
" id="DejaVuSans-77"/>
        <path d="M 64.40625 67.28125 
L 64.40625 56.890625 
Q 59.421875 61.53125 53.78125 63.8125 
Q 48.140625 66.109375 41.796875 66.109375 
Q 29.296875 66.109375 22.65625 58.46875 
Q 16.015625 50.828125 16.015625 36.375 
Q 16.015625 21.96875 22.65625 14.328125 
Q 29.296875 6.6875 41.796875 6.6875 
Q 48.140625 6.6875 53.78125 8.984375 
Q 59.421875 11.28125 64.40625 15.921875 
L 64.40625 5.609375 
Q 59.234375 2.09375 53.4375 0.328125 
Q 47.65625 -1.421875 41.21875 -1.421875 
Q 24.65625 -1.421875 15.125 8.703125 
Q 5.609375 18.84375 5.609375 36.375 
Q 5.609375 53.953125 15.125 64.078125 
Q 24.65625 74.21875 41.21875 74.21875 
Q 47.75 74.21875 53.53125 72.484375 
Q 59.328125 70.75 64.40625 67.28125 
z
" id="DejaVuSans-67"/>
        <path d="M 9.8125 72.90625 
L 51.703125 72.90625 
L 51.703125 64.59375 
L 19.671875 64.59375 
L 19.671875 43.109375 
L 48.578125 43.109375 
L 48.578125 34.8125 
L 19.671875 34.8125 
L 19.671875 0 
L 9.8125 0 
z
" id="DejaVuSans-70"/>
        <path d="M 12.40625 8.296875 
L 28.515625 8.296875 
L 28.515625 63.921875 
L 10.984375 60.40625 
L 10.984375 69.390625 
L 28.421875 72.90625 
L 38.28125 72.90625 
L 38.28125 8.296875 
L 54.390625 8.296875 
L 54.390625 0 
L 12.40625 0 
z
" id="DejaVuSans-49"/>
        <path d="M 31.78125 66.40625 
Q 24.171875 66.40625 20.328125 58.90625 
Q 16.5 51.421875 16.5 36.375 
Q 16.5 21.390625 20.328125 13.890625 
Q 24.171875 6.390625 31.78125 6.390625 
Q 39.453125 6.390625 43.28125 13.890625 
Q 47.125 21.390625 47.125 36.375 
Q 47.125 51.421875 43.28125 58.90625 
Q 39.453125 66.40625 31.78125 66.40625 
z
M 31.78125 74.21875 
Q 44.046875 74.21875 50.515625 64.515625 
Q 56.984375 54.828125 56.984375 36.375 
Q 56.984375 17.96875 50.515625 8.265625 
Q 44.046875 -1.421875 31.78125 -1.421875 
Q 19.53125 -1.421875 13.0625 8.265625 
Q 6.59375 17.96875 6.59375 36.375 
Q 6.59375 54.828125 13.0625 64.515625 
Q 19.53125 74.21875 31.78125 74.21875 
z
" id="DejaVuSans-48"/>
        <path d="M 54.890625 33.015625 
L 54.890625 0 
L 45.90625 0 
L 45.90625 32.71875 
Q 45.90625 40.484375 42.875 44.328125 
Q 39.84375 48.1875 33.796875 48.1875 
Q 26.515625 48.1875 22.3125 43.546875 
Q 18.109375 38.921875 18.109375 30.90625 
L 18.109375 0 
L 9.078125 0 
L 9.078125 75.984375 
L 18.109375 75.984375 
L 18.109375 46.1875 
Q 21.34375 51.125 25.703125 53.5625 
Q 30.078125 56 35.796875 56 
Q 45.21875 56 50.046875 50.171875 
Q 54.890625 44.34375 54.890625 33.015625 
z
" id="DejaVuSans-104"/>
        <path d="M 48.6875 27.296875 
Q 48.6875 37.203125 44.609375 42.84375 
Q 40.53125 48.484375 33.40625 48.484375 
Q 26.265625 48.484375 22.1875 42.84375 
Q 18.109375 37.203125 18.109375 27.296875 
Q 18.109375 17.390625 22.1875 11.75 
Q 26.265625 6.109375 33.40625 6.109375 
Q 40.53125 6.109375 44.609375 11.75 
Q 48.6875 17.390625 48.6875 27.296875 
z
M 18.109375 46.390625 
Q 20.953125 51.265625 25.265625 53.625 
Q 29.59375 56 35.59375 56 
Q 45.5625 56 51.78125 48.09375 
Q 58.015625 40.1875 58.015625 27.296875 
Q 58.015625 14.40625 51.78125 6.484375 
Q 45.5625 -1.421875 35.59375 -1.421875 
Q 29.59375 -1.421875 25.265625 0.953125 
Q 20.953125 3.328125 18.109375 8.203125 
L 18.109375 0 
L 9.078125 0 
L 9.078125 75.984375 
L 18.109375 75.984375 
z
" id="DejaVuSans-98"/>
       </defs>
       <use xlink:href="#DejaVuSans-77"/>
       <use x="86.279297" xlink:href="#DejaVuSans-67"/>
       <use x="156.103516" xlink:href="#DejaVuSans-70"/>
       <use x="213.623047" xlink:href="#DejaVuSans-49"/>
       <use x="277.246094" xlink:href="#DejaVuSans-48"/>
       <use x="340.869141" xlink:href="#DejaVuSans-97"/>
       <use x="402.148438" xlink:href="#DejaVuSans-32"/>
       <use x="433.935547" xlink:href="#DejaVuSans-104"/>
       <use x="497.314453" xlink:href="#DejaVuSans-117"/>
       <use x="560.693359" xlink:href="#DejaVuSans-109"/>
       <use x="658.105469" xlink:href="#DejaVuSans-97"/>
       <use x="719.384766" xlink:href="#DejaVuSans-110"/>
       <use x="782.763672" xlink:href="#DejaVuSans-32"/>
       <use x="814.550781" xlink:href="#DejaVuSans-98"/>
       <use x="878.027344" xlink:href="#DejaVuSans-114"/>
       <use x="916.890625" xlink:href="#DejaVuSans-101"/>
       <use x="978.414062" xlink:href="#DejaVuSans-97"/>
       <use x="1039.693359" xlink:href="#DejaVuSans-115"/>
       <use x="1091.792969" xlink:href="#DejaVuSans-116"/>
       <use x="1131.001953" xlink:href="#DejaVuSans-32"/>
       <use x="1162.789062" xlink:href="#DejaVuSans-99"/>
       <use x="1217.769531" xlink:href="#DejaVuSans-97"/>
       <use x="1279.048828" xlink:href="#DejaVuSans-110"/>
       <use x="1342.427734" xlink:href="#DejaVuSans-99"/>
       <use x="1397.408203" xlink:href="#DejaVuSans-101"/>
       <use x="1458.931641" xlink:href="#DejaVuSans-114"/>
       <use x="1500.044922" xlink:href="#DejaVuSans-32"/>
       <use x="1531.832031" xlink:href="#DejaVuSans-99"/>
       <use x="1586.8125" xlink:href="#DejaVuSans-101"/>
       <use x="1648.335938" xlink:href="#DejaVuSans-108"/>
       <use x="1676.119141" xlink:href="#DejaVuSans-108"/>
       <use x="1703.902344" xlink:href="#DejaVuSans-115"/>
      </g>
     </g>
    </g>
    <g id="xtick_8">
     <g id="text_8">
      <!-- Glioma cells + breast cancer cells -->
      <g style="fill:#262626;" transform="translate(225.784938 487.647154)rotate(-45)scale(0.132 -0.132)">
       <defs>
        <path d="M 59.515625 10.40625 
L 59.515625 29.984375 
L 43.40625 29.984375 
L 43.40625 38.09375 
L 69.28125 38.09375 
L 69.28125 6.78125 
Q 63.578125 2.734375 56.6875 0.65625 
Q 49.8125 -1.421875 42 -1.421875 
Q 24.90625 -1.421875 15.25 8.5625 
Q 5.609375 18.5625 5.609375 36.375 
Q 5.609375 54.25 15.25 64.234375 
Q 24.90625 74.21875 42 74.21875 
Q 49.125 74.21875 55.546875 72.453125 
Q 61.96875 70.703125 67.390625 67.28125 
L 67.390625 56.78125 
Q 61.921875 61.421875 55.765625 63.765625 
Q 49.609375 66.109375 42.828125 66.109375 
Q 29.4375 66.109375 22.71875 58.640625 
Q 16.015625 51.171875 16.015625 36.375 
Q 16.015625 21.625 22.71875 14.15625 
Q 29.4375 6.6875 42.828125 6.6875 
Q 48.046875 6.6875 52.140625 7.59375 
Q 56.25 8.5 59.515625 10.40625 
z
" id="DejaVuSans-71"/>
        <path d="M 46 62.703125 
L 46 35.5 
L 73.1875 35.5 
L 73.1875 27.203125 
L 46 27.203125 
L 46 0 
L 37.796875 0 
L 37.796875 27.203125 
L 10.59375 27.203125 
L 10.59375 35.5 
L 37.796875 35.5 
L 37.796875 62.703125 
z
" id="DejaVuSans-43"/>
       </defs>
       <use xlink:href="#DejaVuSans-71"/>
       <use x="77.490234" xlink:href="#DejaVuSans-108"/>
       <use x="105.273438" xlink:href="#DejaVuSans-105"/>
       <use x="133.056641" xlink:href="#DejaVuSans-111"/>
       <use x="194.238281" xlink:href="#DejaVuSans-109"/>
       <use x="291.650391" xlink:href="#DejaVuSans-97"/>
       <use x="352.929688" xlink:href="#DejaVuSans-32"/>
       <use x="384.716797" xlink:href="#DejaVuSans-99"/>
       <use x="439.697266" xlink:href="#DejaVuSans-101"/>
       <use x="501.220703" xlink:href="#DejaVuSans-108"/>
       <use x="529.003906" xlink:href="#DejaVuSans-108"/>
       <use x="556.787109" xlink:href="#DejaVuSans-115"/>
       <use x="608.886719" xlink:href="#DejaVuSans-32"/>
       <use x="640.673828" xlink:href="#DejaVuSans-43"/>
       <use x="724.462891" xlink:href="#DejaVuSans-32"/>
       <use x="756.25" xlink:href="#DejaVuSans-98"/>
       <use x="819.726562" xlink:href="#DejaVuSans-114"/>
       <use x="858.589844" xlink:href="#DejaVuSans-101"/>
       <use x="920.113281" xlink:href="#DejaVuSans-97"/>
       <use x="981.392578" xlink:href="#DejaVuSans-115"/>
       <use x="1033.492188" xlink:href="#DejaVuSans-116"/>
       <use x="1072.701172" xlink:href="#DejaVuSans-32"/>
       <use x="1104.488281" xlink:href="#DejaVuSans-99"/>
       <use x="1159.46875" xlink:href="#DejaVuSans-97"/>
       <use x="1220.748047" xlink:href="#DejaVuSans-110"/>
       <use x="1284.126953" xlink:href="#DejaVuSans-99"/>
       <use x="1339.107422" xlink:href="#DejaVuSans-101"/>
       <use x="1400.630859" xlink:href="#DejaVuSans-114"/>
       <use x="1441.744141" xlink:href="#DejaVuSans-32"/>
       <use x="1473.53125" xlink:href="#DejaVuSans-99"/>
       <use x="1528.511719" xlink:href="#DejaVuSans-101"/>
       <use x="1590.035156" xlink:href="#DejaVuSans-108"/>
       <use x="1617.818359" xlink:href="#DejaVuSans-108"/>
       <use x="1645.601562" xlink:href="#DejaVuSans-115"/>
      </g>
     </g>
    </g>
    <g id="xtick_9">
     <g id="text_9">
      <!-- oligodendrocytes -->
      <g style="fill:#262626;" transform="translate(341.351703 409.491084)rotate(-45)scale(0.132 -0.132)">
       <use xlink:href="#DejaVuSans-111"/>
       <use x="61.181641" xlink:href="#DejaVuSans-108"/>
       <use x="88.964844" xlink:href="#DejaVuSans-105"/>
       <use x="116.748047" xlink:href="#DejaVuSans-103"/>
       <use x="180.224609" xlink:href="#DejaVuSans-111"/>
       <use x="241.40625" xlink:href="#DejaVuSans-100"/>
       <use x="304.882812" xlink:href="#DejaVuSans-101"/>
       <use x="366.40625" xlink:href="#DejaVuSans-110"/>
       <use x="429.785156" xlink:href="#DejaVuSans-100"/>
       <use x="493.261719" xlink:href="#DejaVuSans-114"/>
       <use x="532.125" xlink:href="#DejaVuSans-111"/>
       <use x="593.306641" xlink:href="#DejaVuSans-99"/>
       <use x="648.287109" xlink:href="#DejaVuSans-121"/>
       <use x="707.466797" xlink:href="#DejaVuSans-116"/>
       <use x="746.675781" xlink:href="#DejaVuSans-101"/>
       <use x="808.199219" xlink:href="#DejaVuSans-115"/>
      </g>
     </g>
    </g>
    <g id="xtick_10">
     <g id="text_10">
      <!-- endothelial -->
      <g style="fill:#262626;" transform="translate(406.953418 381.300062)rotate(-45)scale(0.132 -0.132)">
       <use xlink:href="#DejaVuSans-101"/>
       <use x="61.523438" xlink:href="#DejaVuSans-110"/>
       <use x="124.902344" xlink:href="#DejaVuSans-100"/>
       <use x="188.378906" xlink:href="#DejaVuSans-111"/>
       <use x="249.560547" xlink:href="#DejaVuSans-116"/>
       <use x="288.769531" xlink:href="#DejaVuSans-104"/>
       <use x="352.148438" xlink:href="#DejaVuSans-101"/>
       <use x="413.671875" xlink:href="#DejaVuSans-108"/>
       <use x="441.455078" xlink:href="#DejaVuSans-105"/>
       <use x="469.238281" xlink:href="#DejaVuSans-97"/>
       <use x="530.517578" xlink:href="#DejaVuSans-108"/>
      </g>
     </g>
    </g>
    <g id="xtick_11">
     <g id="text_11">
      <!-- neurons -->
      <g style="fill:#262626;" transform="translate(458.786305 366.877868)rotate(-45)scale(0.132 -0.132)">
       <use xlink:href="#DejaVuSans-110"/>
       <use x="63.378906" xlink:href="#DejaVuSans-101"/>
       <use x="124.902344" xlink:href="#DejaVuSans-117"/>
       <use x="188.28125" xlink:href="#DejaVuSans-114"/>
       <use x="227.144531" xlink:href="#DejaVuSans-111"/>
       <use x="288.326172" xlink:href="#DejaVuSans-110"/>
       <use x="351.705078" xlink:href="#DejaVuSans-115"/>
      </g>
     </g>
    </g>
    <g id="xtick_12">
     <g id="text_12">
      <!-- Pre-adipocytes -->
      <g style="fill:#262626;" transform="translate(464.887902 398.186965)rotate(-45)scale(0.132 -0.132)">
       <defs>
        <path d="M 19.671875 64.796875 
L 19.671875 37.40625 
L 32.078125 37.40625 
Q 38.96875 37.40625 42.71875 40.96875 
Q 46.484375 44.53125 46.484375 51.125 
Q 46.484375 57.671875 42.71875 61.234375 
Q 38.96875 64.796875 32.078125 64.796875 
z
M 9.8125 72.90625 
L 32.078125 72.90625 
Q 44.34375 72.90625 50.609375 67.359375 
Q 56.890625 61.8125 56.890625 51.125 
Q 56.890625 40.328125 50.609375 34.8125 
Q 44.34375 29.296875 32.078125 29.296875 
L 19.671875 29.296875 
L 19.671875 0 
L 9.8125 0 
z
" id="DejaVuSans-80"/>
        <path d="M 4.890625 31.390625 
L 31.203125 31.390625 
L 31.203125 23.390625 
L 4.890625 23.390625 
z
" id="DejaVuSans-45"/>
        <path d="M 18.109375 8.203125 
L 18.109375 -20.796875 
L 9.078125 -20.796875 
L 9.078125 54.6875 
L 18.109375 54.6875 
L 18.109375 46.390625 
Q 20.953125 51.265625 25.265625 53.625 
Q 29.59375 56 35.59375 56 
Q 45.5625 56 51.78125 48.09375 
Q 58.015625 40.1875 58.015625 27.296875 
Q 58.015625 14.40625 51.78125 6.484375 
Q 45.5625 -1.421875 35.59375 -1.421875 
Q 29.59375 -1.421875 25.265625 0.953125 
Q 20.953125 3.328125 18.109375 8.203125 
z
M 48.6875 27.296875 
Q 48.6875 37.203125 44.609375 42.84375 
Q 40.53125 48.484375 33.40625 48.484375 
Q 26.265625 48.484375 22.1875 42.84375 
Q 18.109375 37.203125 18.109375 27.296875 
Q 18.109375 17.390625 22.1875 11.75 
Q 26.265625 6.109375 33.40625 6.109375 
Q 40.53125 6.109375 44.609375 11.75 
Q 48.6875 17.390625 48.6875 27.296875 
z
" id="DejaVuSans-112"/>
       </defs>
       <use xlink:href="#DejaVuSans-80"/>
       <use x="58.552734" xlink:href="#DejaVuSans-114"/>
       <use x="97.416016" xlink:href="#DejaVuSans-101"/>
       <use x="158.939453" xlink:href="#DejaVuSans-45"/>
       <use x="195.023438" xlink:href="#DejaVuSans-97"/>
       <use x="256.302734" xlink:href="#DejaVuSans-100"/>
       <use x="319.779297" xlink:href="#DejaVuSans-105"/>
       <use x="347.5625" xlink:href="#DejaVuSans-112"/>
       <use x="411.039062" xlink:href="#DejaVuSans-111"/>
       <use x="472.220703" xlink:href="#DejaVuSans-99"/>
       <use x="527.201172" xlink:href="#DejaVuSans-121"/>
       <use x="586.380859" xlink:href="#DejaVuSans-116"/>
       <use x="625.589844" xlink:href="#DejaVuSans-101"/>
       <use x="687.113281" xlink:href="#DejaVuSans-115"/>
      </g>
     </g>
    </g>
    <g id="xtick_13">
     <g id="text_13">
      <!-- Duct cells -->
      <g style="fill:#262626;" transform="translate(525.51353 374.972031)rotate(-45)scale(0.132 -0.132)">
       <defs>
        <path d="M 19.671875 64.796875 
L 19.671875 8.109375 
L 31.59375 8.109375 
Q 46.6875 8.109375 53.6875 14.9375 
Q 60.6875 21.78125 60.6875 36.53125 
Q 60.6875 51.171875 53.6875 57.984375 
Q 46.6875 64.796875 31.59375 64.796875 
z
M 9.8125 72.90625 
L 30.078125 72.90625 
Q 51.265625 72.90625 61.171875 64.09375 
Q 71.09375 55.28125 71.09375 36.53125 
Q 71.09375 17.671875 61.125 8.828125 
Q 51.171875 0 30.078125 0 
L 9.8125 0 
z
" id="DejaVuSans-68"/>
       </defs>
       <use xlink:href="#DejaVuSans-68"/>
       <use x="77.001953" xlink:href="#DejaVuSans-117"/>
       <use x="140.380859" xlink:href="#DejaVuSans-99"/>
       <use x="195.361328" xlink:href="#DejaVuSans-116"/>
       <use x="234.570312" xlink:href="#DejaVuSans-32"/>
       <use x="266.357422" xlink:href="#DejaVuSans-99"/>
       <use x="321.337891" xlink:href="#DejaVuSans-101"/>
       <use x="382.861328" xlink:href="#DejaVuSans-108"/>
       <use x="410.644531" xlink:href="#DejaVuSans-108"/>
       <use x="438.427734" xlink:href="#DejaVuSans-115"/>
      </g>
     </g>
    </g>
    <g id="xtick_14">
     <g id="text_14">
      <!-- microglia -->
      <g style="fill:#262626;" transform="translate(565.721449 372.174805)rotate(-45)scale(0.132 -0.132)">
       <use xlink:href="#DejaVuSans-109"/>
       <use x="97.412109" xlink:href="#DejaVuSans-105"/>
       <use x="125.195312" xlink:href="#DejaVuSans-99"/>
       <use x="180.175781" xlink:href="#DejaVuSans-114"/>
       <use x="219.039062" xlink:href="#DejaVuSans-111"/>
       <use x="280.220703" xlink:href="#DejaVuSans-103"/>
       <use x="343.697266" xlink:href="#DejaVuSans-108"/>
       <use x="371.480469" xlink:href="#DejaVuSans-105"/>
       <use x="399.263672" xlink:href="#DejaVuSans-97"/>
      </g>
     </g>
    </g>
    <g id="xtick_15">
     <g id="text_15">
      <!-- cKIT+ FACS sort -->
      <g style="fill:#262626;" transform="translate(571.405941 403.901007)rotate(-45)scale(0.132 -0.132)">
       <defs>
        <path d="M 9.8125 72.90625 
L 19.671875 72.90625 
L 19.671875 42.09375 
L 52.390625 72.90625 
L 65.09375 72.90625 
L 28.90625 38.921875 
L 67.671875 0 
L 54.6875 0 
L 19.671875 35.109375 
L 19.671875 0 
L 9.8125 0 
z
" id="DejaVuSans-75"/>
        <path d="M 9.8125 72.90625 
L 19.671875 72.90625 
L 19.671875 0 
L 9.8125 0 
z
" id="DejaVuSans-73"/>
        <path d="M -0.296875 72.90625 
L 61.375 72.90625 
L 61.375 64.59375 
L 35.5 64.59375 
L 35.5 0 
L 25.59375 0 
L 25.59375 64.59375 
L -0.296875 64.59375 
z
" id="DejaVuSans-84"/>
        <path d="M 34.1875 63.1875 
L 20.796875 26.90625 
L 47.609375 26.90625 
z
M 28.609375 72.90625 
L 39.796875 72.90625 
L 67.578125 0 
L 57.328125 0 
L 50.6875 18.703125 
L 17.828125 18.703125 
L 11.1875 0 
L 0.78125 0 
z
" id="DejaVuSans-65"/>
        <path d="M 53.515625 70.515625 
L 53.515625 60.890625 
Q 47.90625 63.578125 42.921875 64.890625 
Q 37.9375 66.21875 33.296875 66.21875 
Q 25.25 66.21875 20.875 63.09375 
Q 16.5 59.96875 16.5 54.203125 
Q 16.5 49.359375 19.40625 46.890625 
Q 22.3125 44.4375 30.421875 42.921875 
L 36.375 41.703125 
Q 47.40625 39.59375 52.65625 34.296875 
Q 57.90625 29 57.90625 20.125 
Q 57.90625 9.515625 50.796875 4.046875 
Q 43.703125 -1.421875 29.984375 -1.421875 
Q 24.8125 -1.421875 18.96875 -0.25 
Q 13.140625 0.921875 6.890625 3.21875 
L 6.890625 13.375 
Q 12.890625 10.015625 18.65625 8.296875 
Q 24.421875 6.59375 29.984375 6.59375 
Q 38.421875 6.59375 43.015625 9.90625 
Q 47.609375 13.234375 47.609375 19.390625 
Q 47.609375 24.75 44.3125 27.78125 
Q 41.015625 30.8125 33.5 32.328125 
L 27.484375 33.5 
Q 16.453125 35.6875 11.515625 40.375 
Q 6.59375 45.0625 6.59375 53.421875 
Q 6.59375 63.09375 13.40625 68.65625 
Q 20.21875 74.21875 32.171875 74.21875 
Q 37.3125 74.21875 42.625 73.28125 
Q 47.953125 72.359375 53.515625 70.515625 
z
" id="DejaVuSans-83"/>
       </defs>
       <use xlink:href="#DejaVuSans-99"/>
       <use x="54.980469" xlink:href="#DejaVuSans-75"/>
       <use x="120.556641" xlink:href="#DejaVuSans-73"/>
       <use x="150.048828" xlink:href="#DejaVuSans-84"/>
       <use x="211.132812" xlink:href="#DejaVuSans-43"/>
       <use x="294.921875" xlink:href="#DejaVuSans-32"/>
       <use x="326.708984" xlink:href="#DejaVuSans-70"/>
       <use x="375.103516" xlink:href="#DejaVuSans-65"/>
       <use x="441.761719" xlink:href="#DejaVuSans-67"/>
       <use x="511.585938" xlink:href="#DejaVuSans-83"/>
       <use x="575.0625" xlink:href="#DejaVuSans-32"/>
       <use x="606.849609" xlink:href="#DejaVuSans-115"/>
       <use x="658.949219" xlink:href="#DejaVuSans-111"/>
       <use x="720.130859" xlink:href="#DejaVuSans-114"/>
       <use x="761.244141" xlink:href="#DejaVuSans-116"/>
      </g>
     </g>
    </g>
    <g id="xtick_16">
     <g id="text_16">
      <!-- Glioblastoma -->
      <g style="fill:#262626;" transform="translate(622.117313 390.600328)rotate(-45)scale(0.132 -0.132)">
       <use xlink:href="#DejaVuSans-71"/>
       <use x="77.490234" xlink:href="#DejaVuSans-108"/>
       <use x="105.273438" xlink:href="#DejaVuSans-105"/>
       <use x="133.056641" xlink:href="#DejaVuSans-111"/>
       <use x="194.238281" xlink:href="#DejaVuSans-98"/>
       <use x="257.714844" xlink:href="#DejaVuSans-108"/>
       <use x="285.498047" xlink:href="#DejaVuSans-97"/>
       <use x="346.777344" xlink:href="#DejaVuSans-115"/>
       <use x="398.876953" xlink:href="#DejaVuSans-116"/>
       <use x="438.085938" xlink:href="#DejaVuSans-111"/>
       <use x="499.267578" xlink:href="#DejaVuSans-109"/>
       <use x="596.679688" xlink:href="#DejaVuSans-97"/>
      </g>
     </g>
    </g>
    <g id="xtick_17">
     <g id="text_17">
      <!-- cd44+ cells from BRCA1 mutation carrier -->
      <g style="fill:#262626;" transform="translate(528.64758 521.480755)rotate(-45)scale(0.132 -0.132)">
       <defs>
        <path d="M 37.796875 64.3125 
L 12.890625 25.390625 
L 37.796875 25.390625 
z
M 35.203125 72.90625 
L 47.609375 72.90625 
L 47.609375 25.390625 
L 58.015625 25.390625 
L 58.015625 17.1875 
L 47.609375 17.1875 
L 47.609375 0 
L 37.796875 0 
L 37.796875 17.1875 
L 4.890625 17.1875 
L 4.890625 26.703125 
z
" id="DejaVuSans-52"/>
        <path d="M 37.109375 75.984375 
L 37.109375 68.5 
L 28.515625 68.5 
Q 23.6875 68.5 21.796875 66.546875 
Q 19.921875 64.59375 19.921875 59.515625 
L 19.921875 54.6875 
L 34.71875 54.6875 
L 34.71875 47.703125 
L 19.921875 47.703125 
L 19.921875 0 
L 10.890625 0 
L 10.890625 47.703125 
L 2.296875 47.703125 
L 2.296875 54.6875 
L 10.890625 54.6875 
L 10.890625 58.5 
Q 10.890625 67.625 15.140625 71.796875 
Q 19.390625 75.984375 28.609375 75.984375 
z
" id="DejaVuSans-102"/>
        <path d="M 19.671875 34.8125 
L 19.671875 8.109375 
L 35.5 8.109375 
Q 43.453125 8.109375 47.28125 11.40625 
Q 51.125 14.703125 51.125 21.484375 
Q 51.125 28.328125 47.28125 31.5625 
Q 43.453125 34.8125 35.5 34.8125 
z
M 19.671875 64.796875 
L 19.671875 42.828125 
L 34.28125 42.828125 
Q 41.5 42.828125 45.03125 45.53125 
Q 48.578125 48.25 48.578125 53.8125 
Q 48.578125 59.328125 45.03125 62.0625 
Q 41.5 64.796875 34.28125 64.796875 
z
M 9.8125 72.90625 
L 35.015625 72.90625 
Q 46.296875 72.90625 52.390625 68.21875 
Q 58.5 63.53125 58.5 54.890625 
Q 58.5 48.1875 55.375 44.234375 
Q 52.25 40.28125 46.1875 39.3125 
Q 53.46875 37.75 57.5 32.78125 
Q 61.53125 27.828125 61.53125 20.40625 
Q 61.53125 10.640625 54.890625 5.3125 
Q 48.25 0 35.984375 0 
L 9.8125 0 
z
" id="DejaVuSans-66"/>
        <path d="M 44.390625 34.1875 
Q 47.5625 33.109375 50.5625 29.59375 
Q 53.5625 26.078125 56.59375 19.921875 
L 66.609375 0 
L 56 0 
L 46.6875 18.703125 
Q 43.0625 26.03125 39.671875 28.421875 
Q 36.28125 30.8125 30.421875 30.8125 
L 19.671875 30.8125 
L 19.671875 0 
L 9.8125 0 
L 9.8125 72.90625 
L 32.078125 72.90625 
Q 44.578125 72.90625 50.734375 67.671875 
Q 56.890625 62.453125 56.890625 51.90625 
Q 56.890625 45.015625 53.6875 40.46875 
Q 50.484375 35.9375 44.390625 34.1875 
z
M 19.671875 64.796875 
L 19.671875 38.921875 
L 32.078125 38.921875 
Q 39.203125 38.921875 42.84375 42.21875 
Q 46.484375 45.515625 46.484375 51.90625 
Q 46.484375 58.296875 42.84375 61.546875 
Q 39.203125 64.796875 32.078125 64.796875 
z
" id="DejaVuSans-82"/>
       </defs>
       <use xlink:href="#DejaVuSans-99"/>
       <use x="54.980469" xlink:href="#DejaVuSans-100"/>
       <use x="118.457031" xlink:href="#DejaVuSans-52"/>
       <use x="182.080078" xlink:href="#DejaVuSans-52"/>
       <use x="245.703125" xlink:href="#DejaVuSans-43"/>
       <use x="329.492188" xlink:href="#DejaVuSans-32"/>
       <use x="361.279297" xlink:href="#DejaVuSans-99"/>
       <use x="416.259766" xlink:href="#DejaVuSans-101"/>
       <use x="477.783203" xlink:href="#DejaVuSans-108"/>
       <use x="505.566406" xlink:href="#DejaVuSans-108"/>
       <use x="533.349609" xlink:href="#DejaVuSans-115"/>
       <use x="585.449219" xlink:href="#DejaVuSans-32"/>
       <use x="617.236328" xlink:href="#DejaVuSans-102"/>
       <use x="652.441406" xlink:href="#DejaVuSans-114"/>
       <use x="691.304688" xlink:href="#DejaVuSans-111"/>
       <use x="752.486328" xlink:href="#DejaVuSans-109"/>
       <use x="849.898438" xlink:href="#DejaVuSans-32"/>
       <use x="881.685547" xlink:href="#DejaVuSans-66"/>
       <use x="950.289062" xlink:href="#DejaVuSans-82"/>
       <use x="1014.771484" xlink:href="#DejaVuSans-67"/>
       <use x="1084.595703" xlink:href="#DejaVuSans-65"/>
       <use x="1153.003906" xlink:href="#DejaVuSans-49"/>
       <use x="1216.626953" xlink:href="#DejaVuSans-32"/>
       <use x="1248.414062" xlink:href="#DejaVuSans-109"/>
       <use x="1345.826172" xlink:href="#DejaVuSans-117"/>
       <use x="1409.205078" xlink:href="#DejaVuSans-116"/>
       <use x="1448.414062" xlink:href="#DejaVuSans-97"/>
       <use x="1509.693359" xlink:href="#DejaVuSans-116"/>
       <use x="1548.902344" xlink:href="#DejaVuSans-105"/>
       <use x="1576.685547" xlink:href="#DejaVuSans-111"/>
       <use x="1637.867188" xlink:href="#DejaVuSans-110"/>
       <use x="1701.246094" xlink:href="#DejaVuSans-32"/>
       <use x="1733.033203" xlink:href="#DejaVuSans-99"/>
       <use x="1788.013672" xlink:href="#DejaVuSans-97"/>
       <use x="1849.292969" xlink:href="#DejaVuSans-114"/>
       <use x="1888.65625" xlink:href="#DejaVuSans-114"/>
       <use x="1929.769531" xlink:href="#DejaVuSans-105"/>
       <use x="1957.552734" xlink:href="#DejaVuSans-101"/>
       <use x="2019.076172" xlink:href="#DejaVuSans-114"/>
      </g>
     </g>
    </g>
    <g id="xtick_18">
     <g id="text_18">
      <!-- Mesenchymal Stem Cells -->
      <g style="fill:#262626;" transform="translate(641.395242 446.143787)rotate(-45)scale(0.132 -0.132)">
       <use xlink:href="#DejaVuSans-77"/>
       <use x="86.279297" xlink:href="#DejaVuSans-101"/>
       <use x="147.802734" xlink:href="#DejaVuSans-115"/>
       <use x="199.902344" xlink:href="#DejaVuSans-101"/>
       <use x="261.425781" xlink:href="#DejaVuSans-110"/>
       <use x="324.804688" xlink:href="#DejaVuSans-99"/>
       <use x="379.785156" xlink:href="#DejaVuSans-104"/>
       <use x="443.164062" xlink:href="#DejaVuSans-121"/>
       <use x="502.34375" xlink:href="#DejaVuSans-109"/>
       <use x="599.755859" xlink:href="#DejaVuSans-97"/>
       <use x="661.035156" xlink:href="#DejaVuSans-108"/>
       <use x="688.818359" xlink:href="#DejaVuSans-32"/>
       <use x="720.605469" xlink:href="#DejaVuSans-83"/>
       <use x="784.082031" xlink:href="#DejaVuSans-116"/>
       <use x="823.291016" xlink:href="#DejaVuSans-101"/>
       <use x="884.814453" xlink:href="#DejaVuSans-109"/>
       <use x="982.226562" xlink:href="#DejaVuSans-32"/>
       <use x="1014.013672" xlink:href="#DejaVuSans-67"/>
       <use x="1083.837891" xlink:href="#DejaVuSans-101"/>
       <use x="1145.361328" xlink:href="#DejaVuSans-108"/>
       <use x="1173.144531" xlink:href="#DejaVuSans-108"/>
       <use x="1200.927734" xlink:href="#DejaVuSans-115"/>
      </g>
     </g>
    </g>
    <g id="xtick_19">
     <g id="text_19">
      <!-- WI-38 human lung fibroblast cells -->
      <g style="fill:#262626;" transform="translate(638.935985 486.013738)rotate(-45)scale(0.132 -0.132)">
       <defs>
        <path d="M 3.328125 72.90625 
L 13.28125 72.90625 
L 28.609375 11.28125 
L 43.890625 72.90625 
L 54.984375 72.90625 
L 70.3125 11.28125 
L 85.59375 72.90625 
L 95.609375 72.90625 
L 77.296875 0 
L 64.890625 0 
L 49.515625 63.28125 
L 33.984375 0 
L 21.578125 0 
z
" id="DejaVuSans-87"/>
        <path d="M 40.578125 39.3125 
Q 47.65625 37.796875 51.625 33 
Q 55.609375 28.21875 55.609375 21.1875 
Q 55.609375 10.40625 48.1875 4.484375 
Q 40.765625 -1.421875 27.09375 -1.421875 
Q 22.515625 -1.421875 17.65625 -0.515625 
Q 12.796875 0.390625 7.625 2.203125 
L 7.625 11.71875 
Q 11.71875 9.328125 16.59375 8.109375 
Q 21.484375 6.890625 26.8125 6.890625 
Q 36.078125 6.890625 40.9375 10.546875 
Q 45.796875 14.203125 45.796875 21.1875 
Q 45.796875 27.640625 41.28125 31.265625 
Q 36.765625 34.90625 28.71875 34.90625 
L 20.21875 34.90625 
L 20.21875 43.015625 
L 29.109375 43.015625 
Q 36.375 43.015625 40.234375 45.921875 
Q 44.09375 48.828125 44.09375 54.296875 
Q 44.09375 59.90625 40.109375 62.90625 
Q 36.140625 65.921875 28.71875 65.921875 
Q 24.65625 65.921875 20.015625 65.03125 
Q 15.375 64.15625 9.8125 62.3125 
L 9.8125 71.09375 
Q 15.4375 72.65625 20.34375 73.4375 
Q 25.25 74.21875 29.59375 74.21875 
Q 40.828125 74.21875 47.359375 69.109375 
Q 53.90625 64.015625 53.90625 55.328125 
Q 53.90625 49.265625 50.4375 45.09375 
Q 46.96875 40.921875 40.578125 39.3125 
z
" id="DejaVuSans-51"/>
        <path d="M 31.78125 34.625 
Q 24.75 34.625 20.71875 30.859375 
Q 16.703125 27.09375 16.703125 20.515625 
Q 16.703125 13.921875 20.71875 10.15625 
Q 24.75 6.390625 31.78125 6.390625 
Q 38.8125 6.390625 42.859375 10.171875 
Q 46.921875 13.96875 46.921875 20.515625 
Q 46.921875 27.09375 42.890625 30.859375 
Q 38.875 34.625 31.78125 34.625 
z
M 21.921875 38.8125 
Q 15.578125 40.375 12.03125 44.71875 
Q 8.5 49.078125 8.5 55.328125 
Q 8.5 64.0625 14.71875 69.140625 
Q 20.953125 74.21875 31.78125 74.21875 
Q 42.671875 74.21875 48.875 69.140625 
Q 55.078125 64.0625 55.078125 55.328125 
Q 55.078125 49.078125 51.53125 44.71875 
Q 48 40.375 41.703125 38.8125 
Q 48.828125 37.15625 52.796875 32.3125 
Q 56.78125 27.484375 56.78125 20.515625 
Q 56.78125 9.90625 50.3125 4.234375 
Q 43.84375 -1.421875 31.78125 -1.421875 
Q 19.734375 -1.421875 13.25 4.234375 
Q 6.78125 9.90625 6.78125 20.515625 
Q 6.78125 27.484375 10.78125 32.3125 
Q 14.796875 37.15625 21.921875 38.8125 
z
M 18.3125 54.390625 
Q 18.3125 48.734375 21.84375 45.5625 
Q 25.390625 42.390625 31.78125 42.390625 
Q 38.140625 42.390625 41.71875 45.5625 
Q 45.3125 48.734375 45.3125 54.390625 
Q 45.3125 60.0625 41.71875 63.234375 
Q 38.140625 66.40625 31.78125 66.40625 
Q 25.390625 66.40625 21.84375 63.234375 
Q 18.3125 60.0625 18.3125 54.390625 
z
" id="DejaVuSans-56"/>
       </defs>
       <use xlink:href="#DejaVuSans-87"/>
       <use x="98.876953" xlink:href="#DejaVuSans-73"/>
       <use x="128.369141" xlink:href="#DejaVuSans-45"/>
       <use x="164.453125" xlink:href="#DejaVuSans-51"/>
       <use x="228.076172" xlink:href="#DejaVuSans-56"/>
       <use x="291.699219" xlink:href="#DejaVuSans-32"/>
       <use x="323.486328" xlink:href="#DejaVuSans-104"/>
       <use x="386.865234" xlink:href="#DejaVuSans-117"/>
       <use x="450.244141" xlink:href="#DejaVuSans-109"/>
       <use x="547.65625" xlink:href="#DejaVuSans-97"/>
       <use x="608.935547" xlink:href="#DejaVuSans-110"/>
       <use x="672.314453" xlink:href="#DejaVuSans-32"/>
       <use x="704.101562" xlink:href="#DejaVuSans-108"/>
       <use x="731.884766" xlink:href="#DejaVuSans-117"/>
       <use x="795.263672" xlink:href="#DejaVuSans-110"/>
       <use x="858.642578" xlink:href="#DejaVuSans-103"/>
       <use x="922.119141" xlink:href="#DejaVuSans-32"/>
       <use x="953.90625" xlink:href="#DejaVuSans-102"/>
       <use x="989.111328" xlink:href="#DejaVuSans-105"/>
       <use x="1016.894531" xlink:href="#DejaVuSans-98"/>
       <use x="1080.371094" xlink:href="#DejaVuSans-114"/>
       <use x="1119.234375" xlink:href="#DejaVuSans-111"/>
       <use x="1180.416016" xlink:href="#DejaVuSans-98"/>
       <use x="1243.892578" xlink:href="#DejaVuSans-108"/>
       <use x="1271.675781" xlink:href="#DejaVuSans-97"/>
       <use x="1332.955078" xlink:href="#DejaVuSans-115"/>
       <use x="1385.054688" xlink:href="#DejaVuSans-116"/>
       <use x="1424.263672" xlink:href="#DejaVuSans-32"/>
       <use x="1456.050781" xlink:href="#DejaVuSans-99"/>
       <use x="1511.03125" xlink:href="#DejaVuSans-101"/>
       <use x="1572.554688" xlink:href="#DejaVuSans-108"/>
       <use x="1600.337891" xlink:href="#DejaVuSans-108"/>
       <use x="1628.121094" xlink:href="#DejaVuSans-115"/>
      </g>
     </g>
    </g>
    <g id="xtick_20">
     <g id="text_20">
      <!-- left ventricle apex tissue -->
      <g style="fill:#262626;" transform="translate(718.02943 444.330986)rotate(-45)scale(0.132 -0.132)">
       <defs>
        <path d="M 54.890625 54.6875 
L 35.109375 28.078125 
L 55.90625 0 
L 45.3125 0 
L 29.390625 21.484375 
L 13.484375 0 
L 2.875 0 
L 24.125 28.609375 
L 4.6875 54.6875 
L 15.28125 54.6875 
L 29.78125 35.203125 
L 44.28125 54.6875 
z
" id="DejaVuSans-120"/>
       </defs>
       <use xlink:href="#DejaVuSans-108"/>
       <use x="27.783203" xlink:href="#DejaVuSans-101"/>
       <use x="89.306641" xlink:href="#DejaVuSans-102"/>
       <use x="122.761719" xlink:href="#DejaVuSans-116"/>
       <use x="161.970703" xlink:href="#DejaVuSans-32"/>
       <use x="193.757812" xlink:href="#DejaVuSans-118"/>
       <use x="252.9375" xlink:href="#DejaVuSans-101"/>
       <use x="314.460938" xlink:href="#DejaVuSans-110"/>
       <use x="377.839844" xlink:href="#DejaVuSans-116"/>
       <use x="417.048828" xlink:href="#DejaVuSans-114"/>
       <use x="458.162109" xlink:href="#DejaVuSans-105"/>
       <use x="485.945312" xlink:href="#DejaVuSans-99"/>
       <use x="540.925781" xlink:href="#DejaVuSans-108"/>
       <use x="568.708984" xlink:href="#DejaVuSans-101"/>
       <use x="630.232422" xlink:href="#DejaVuSans-32"/>
       <use x="662.019531" xlink:href="#DejaVuSans-97"/>
       <use x="723.298828" xlink:href="#DejaVuSans-112"/>
       <use x="786.775391" xlink:href="#DejaVuSans-101"/>
       <use x="846.548828" xlink:href="#DejaVuSans-120"/>
       <use x="905.728516" xlink:href="#DejaVuSans-32"/>
       <use x="937.515625" xlink:href="#DejaVuSans-116"/>
       <use x="976.724609" xlink:href="#DejaVuSans-105"/>
       <use x="1004.507812" xlink:href="#DejaVuSans-115"/>
       <use x="1056.607422" xlink:href="#DejaVuSans-115"/>
       <use x="1108.707031" xlink:href="#DejaVuSans-117"/>
       <use x="1172.085938" xlink:href="#DejaVuSans-101"/>
      </g>
     </g>
    </g>
    <g id="xtick_21">
     <g id="text_21">
      <!-- gonad -->
      <g style="fill:#262626;" transform="translate(841.38555 358.38556)rotate(-45)scale(0.132 -0.132)">
       <use xlink:href="#DejaVuSans-103"/>
       <use x="63.476562" xlink:href="#DejaVuSans-111"/>
       <use x="124.658203" xlink:href="#DejaVuSans-110"/>
       <use x="188.037109" xlink:href="#DejaVuSans-97"/>
       <use x="249.316406" xlink:href="#DejaVuSans-100"/>
      </g>
     </g>
    </g>
    <g id="xtick_22">
     <g id="text_22">
      <!-- tumor -->
      <g style="fill:#262626;" transform="translate(879.77921 357.402593)rotate(-45)scale(0.132 -0.132)">
       <use xlink:href="#DejaVuSans-116"/>
       <use x="39.208984" xlink:href="#DejaVuSans-117"/>
       <use x="102.587891" xlink:href="#DejaVuSans-109"/>
       <use x="200" xlink:href="#DejaVuSans-111"/>
       <use x="261.181641" xlink:href="#DejaVuSans-114"/>
      </g>
     </g>
    </g>
    <g id="xtick_23">
     <g id="text_23">
      <!-- Glioma cells + lung fibroblast cells -->
      <g style="fill:#262626;" transform="translate(783.710594 490.881903)rotate(-45)scale(0.132 -0.132)">
       <use xlink:href="#DejaVuSans-71"/>
       <use x="77.490234" xlink:href="#DejaVuSans-108"/>
       <use x="105.273438" xlink:href="#DejaVuSans-105"/>
       <use x="133.056641" xlink:href="#DejaVuSans-111"/>
       <use x="194.238281" xlink:href="#DejaVuSans-109"/>
       <use x="291.650391" xlink:href="#DejaVuSans-97"/>
       <use x="352.929688" xlink:href="#DejaVuSans-32"/>
       <use x="384.716797" xlink:href="#DejaVuSans-99"/>
       <use x="439.697266" xlink:href="#DejaVuSans-101"/>
       <use x="501.220703" xlink:href="#DejaVuSans-108"/>
       <use x="529.003906" xlink:href="#DejaVuSans-108"/>
       <use x="556.787109" xlink:href="#DejaVuSans-115"/>
       <use x="608.886719" xlink:href="#DejaVuSans-32"/>
       <use x="640.673828" xlink:href="#DejaVuSans-43"/>
       <use x="724.462891" xlink:href="#DejaVuSans-32"/>
       <use x="756.25" xlink:href="#DejaVuSans-108"/>
       <use x="784.033203" xlink:href="#DejaVuSans-117"/>
       <use x="847.412109" xlink:href="#DejaVuSans-110"/>
       <use x="910.791016" xlink:href="#DejaVuSans-103"/>
       <use x="974.267578" xlink:href="#DejaVuSans-32"/>
       <use x="1006.054688" xlink:href="#DejaVuSans-102"/>
       <use x="1041.259766" xlink:href="#DejaVuSans-105"/>
       <use x="1069.042969" xlink:href="#DejaVuSans-98"/>
       <use x="1132.519531" xlink:href="#DejaVuSans-114"/>
       <use x="1171.382812" xlink:href="#DejaVuSans-111"/>
       <use x="1232.564453" xlink:href="#DejaVuSans-98"/>
       <use x="1296.041016" xlink:href="#DejaVuSans-108"/>
       <use x="1323.824219" xlink:href="#DejaVuSans-97"/>
       <use x="1385.103516" xlink:href="#DejaVuSans-115"/>
       <use x="1437.203125" xlink:href="#DejaVuSans-116"/>
       <use x="1476.412109" xlink:href="#DejaVuSans-32"/>
       <use x="1508.199219" xlink:href="#DejaVuSans-99"/>
       <use x="1563.179688" xlink:href="#DejaVuSans-101"/>
       <use x="1624.703125" xlink:href="#DejaVuSans-108"/>
       <use x="1652.486328" xlink:href="#DejaVuSans-108"/>
       <use x="1680.269531" xlink:href="#DejaVuSans-115"/>
      </g>
     </g>
    </g>
    <g id="xtick_24">
     <g id="text_24">
      <!-- primary mesothelial cells -->
      <g style="fill:#262626;" transform="translate(865.204578 446.798612)rotate(-45)scale(0.132 -0.132)">
       <use xlink:href="#DejaVuSans-112"/>
       <use x="63.476562" xlink:href="#DejaVuSans-114"/>
       <use x="104.589844" xlink:href="#DejaVuSans-105"/>
       <use x="132.373047" xlink:href="#DejaVuSans-109"/>
       <use x="229.785156" xlink:href="#DejaVuSans-97"/>
       <use x="291.064453" xlink:href="#DejaVuSans-114"/>
       <use x="332.177734" xlink:href="#DejaVuSans-121"/>
       <use x="391.357422" xlink:href="#DejaVuSans-32"/>
       <use x="423.144531" xlink:href="#DejaVuSans-109"/>
       <use x="520.556641" xlink:href="#DejaVuSans-101"/>
       <use x="582.080078" xlink:href="#DejaVuSans-115"/>
       <use x="634.179688" xlink:href="#DejaVuSans-111"/>
       <use x="695.361328" xlink:href="#DejaVuSans-116"/>
       <use x="734.570312" xlink:href="#DejaVuSans-104"/>
       <use x="797.949219" xlink:href="#DejaVuSans-101"/>
       <use x="859.472656" xlink:href="#DejaVuSans-108"/>
       <use x="887.255859" xlink:href="#DejaVuSans-105"/>
       <use x="915.039062" xlink:href="#DejaVuSans-97"/>
       <use x="976.318359" xlink:href="#DejaVuSans-108"/>
       <use x="1004.101562" xlink:href="#DejaVuSans-32"/>
       <use x="1035.888672" xlink:href="#DejaVuSans-99"/>
       <use x="1090.869141" xlink:href="#DejaVuSans-101"/>
       <use x="1152.392578" xlink:href="#DejaVuSans-108"/>
       <use x="1180.175781" xlink:href="#DejaVuSans-108"/>
       <use x="1207.958984" xlink:href="#DejaVuSans-115"/>
      </g>
     </g>
    </g>
    <g id="xtick_25">
     <g id="text_25">
      <!-- Gliomasphere Cell Line -->
      <g style="fill:#262626;" transform="translate(912.635991 436.777892)rotate(-45)scale(0.132 -0.132)">
       <defs>
        <path d="M 9.8125 72.90625 
L 19.671875 72.90625 
L 19.671875 8.296875 
L 55.171875 8.296875 
L 55.171875 0 
L 9.8125 0 
z
" id="DejaVuSans-76"/>
       </defs>
       <use xlink:href="#DejaVuSans-71"/>
       <use x="77.490234" xlink:href="#DejaVuSans-108"/>
       <use x="105.273438" xlink:href="#DejaVuSans-105"/>
       <use x="133.056641" xlink:href="#DejaVuSans-111"/>
       <use x="194.238281" xlink:href="#DejaVuSans-109"/>
       <use x="291.650391" xlink:href="#DejaVuSans-97"/>
       <use x="352.929688" xlink:href="#DejaVuSans-115"/>
       <use x="405.029297" xlink:href="#DejaVuSans-112"/>
       <use x="468.505859" xlink:href="#DejaVuSans-104"/>
       <use x="531.884766" xlink:href="#DejaVuSans-101"/>
       <use x="593.408203" xlink:href="#DejaVuSans-114"/>
       <use x="632.271484" xlink:href="#DejaVuSans-101"/>
       <use x="693.794922" xlink:href="#DejaVuSans-32"/>
       <use x="725.582031" xlink:href="#DejaVuSans-67"/>
       <use x="795.40625" xlink:href="#DejaVuSans-101"/>
       <use x="856.929688" xlink:href="#DejaVuSans-108"/>
       <use x="884.712891" xlink:href="#DejaVuSans-108"/>
       <use x="912.496094" xlink:href="#DejaVuSans-32"/>
       <use x="944.283203" xlink:href="#DejaVuSans-76"/>
       <use x="999.996094" xlink:href="#DejaVuSans-105"/>
       <use x="1027.779297" xlink:href="#DejaVuSans-110"/>
       <use x="1091.158203" xlink:href="#DejaVuSans-101"/>
      </g>
     </g>
    </g>
    <g id="text_26">
     <!-- cell type -->
     <g style="fill:#262626;" transform="translate(542.475339 538.363646)scale(0.144 -0.144)">
      <use xlink:href="#DejaVuSans-99"/>
      <use x="54.980469" xlink:href="#DejaVuSans-101"/>
      <use x="116.503906" xlink:href="#DejaVuSans-108"/>
      <use x="144.287109" xlink:href="#DejaVuSans-108"/>
      <use x="172.070312" xlink:href="#DejaVuSans-32"/>
      <use x="203.857422" xlink:href="#DejaVuSans-116"/>
      <use x="243.066406" xlink:href="#DejaVuSans-121"/>
      <use x="302.246094" xlink:href="#DejaVuSans-112"/>
      <use x="365.722656" xlink:href="#DejaVuSans-101"/>
     </g>
    </g>
   </g>
   <g id="matplotlib.axis_2">
    <g id="ytick_1">
     <g id="line2d_1">
      <path clip-path="url(#p89ebb8ef1d)" d="M 105.604794 310.525259 
L 1040.872134 310.525259 
" style="fill:none;stroke:#cccccc;stroke-linecap:round;stroke-width:0.8;"/>
     </g>
     <g id="text_27">
      <!-- 0.0 -->
      <g style="fill:#262626;" transform="translate(76.312669 315.540228)scale(0.132 -0.132)">
       <defs>
        <path d="M 10.6875 12.40625 
L 21 12.40625 
L 21 0 
L 10.6875 0 
z
" id="DejaVuSans-46"/>
       </defs>
       <use xlink:href="#DejaVuSans-48"/>
       <use x="63.623047" xlink:href="#DejaVuSans-46"/>
       <use x="95.410156" xlink:href="#DejaVuSans-48"/>
      </g>
     </g>
    </g>
    <g id="ytick_2">
     <g id="line2d_2">
      <path clip-path="url(#p89ebb8ef1d)" d="M 105.604794 257.812746 
L 1040.872134 257.812746 
" style="fill:none;stroke:#cccccc;stroke-linecap:round;stroke-width:0.8;"/>
     </g>
     <g id="text_28">
      <!-- 0.5 -->
      <g style="fill:#262626;" transform="translate(76.312669 262.827714)scale(0.132 -0.132)">
       <defs>
        <path d="M 10.796875 72.90625 
L 49.515625 72.90625 
L 49.515625 64.59375 
L 19.828125 64.59375 
L 19.828125 46.734375 
Q 21.96875 47.46875 24.109375 47.828125 
Q 26.265625 48.1875 28.421875 48.1875 
Q 40.625 48.1875 47.75 41.5 
Q 54.890625 34.8125 54.890625 23.390625 
Q 54.890625 11.625 47.5625 5.09375 
Q 40.234375 -1.421875 26.90625 -1.421875 
Q 22.3125 -1.421875 17.546875 -0.640625 
Q 12.796875 0.140625 7.71875 1.703125 
L 7.71875 11.625 
Q 12.109375 9.234375 16.796875 8.0625 
Q 21.484375 6.890625 26.703125 6.890625 
Q 35.15625 6.890625 40.078125 11.328125 
Q 45.015625 15.765625 45.015625 23.390625 
Q 45.015625 31 40.078125 35.4375 
Q 35.15625 39.890625 26.703125 39.890625 
Q 22.75 39.890625 18.8125 39.015625 
Q 14.890625 38.140625 10.796875 36.28125 
z
" id="DejaVuSans-53"/>
       </defs>
       <use xlink:href="#DejaVuSans-48"/>
       <use x="63.623047" xlink:href="#DejaVuSans-46"/>
       <use x="95.410156" xlink:href="#DejaVuSans-53"/>
      </g>
     </g>
    </g>
    <g id="ytick_3">
     <g id="line2d_3">
      <path clip-path="url(#p89ebb8ef1d)" d="M 105.604794 205.100232 
L 1040.872134 205.100232 
" style="fill:none;stroke:#cccccc;stroke-linecap:round;stroke-width:0.8;"/>
     </g>
     <g id="text_29">
      <!-- 1.0 -->
      <g style="fill:#262626;" transform="translate(76.312669 210.115201)scale(0.132 -0.132)">
       <use xlink:href="#DejaVuSans-49"/>
       <use x="63.623047" xlink:href="#DejaVuSans-46"/>
       <use x="95.410156" xlink:href="#DejaVuSans-48"/>
      </g>
     </g>
    </g>
    <g id="ytick_4">
     <g id="line2d_4">
      <path clip-path="url(#p89ebb8ef1d)" d="M 105.604794 152.387718 
L 1040.872134 152.387718 
" style="fill:none;stroke:#cccccc;stroke-linecap:round;stroke-width:0.8;"/>
     </g>
     <g id="text_30">
      <!-- 1.5 -->
      <g style="fill:#262626;" transform="translate(76.312669 157.402687)scale(0.132 -0.132)">
       <use xlink:href="#DejaVuSans-49"/>
       <use x="63.623047" xlink:href="#DejaVuSans-46"/>
       <use x="95.410156" xlink:href="#DejaVuSans-53"/>
      </g>
     </g>
    </g>
    <g id="ytick_5">
     <g id="line2d_5">
      <path clip-path="url(#p89ebb8ef1d)" d="M 105.604794 99.675205 
L 1040.872134 99.675205 
" style="fill:none;stroke:#cccccc;stroke-linecap:round;stroke-width:0.8;"/>
     </g>
     <g id="text_31">
      <!-- 2.0 -->
      <g style="fill:#262626;" transform="translate(76.312669 104.690173)scale(0.132 -0.132)">
       <defs>
        <path d="M 19.1875 8.296875 
L 53.609375 8.296875 
L 53.609375 0 
L 7.328125 0 
L 7.328125 8.296875 
Q 12.9375 14.109375 22.625 23.890625 
Q 32.328125 33.6875 34.8125 36.53125 
Q 39.546875 41.84375 41.421875 45.53125 
Q 43.3125 49.21875 43.3125 52.78125 
Q 43.3125 58.59375 39.234375 62.25 
Q 35.15625 65.921875 28.609375 65.921875 
Q 23.96875 65.921875 18.8125 64.3125 
Q 13.671875 62.703125 7.8125 59.421875 
L 7.8125 69.390625 
Q 13.765625 71.78125 18.9375 73 
Q 24.125 74.21875 28.421875 74.21875 
Q 39.75 74.21875 46.484375 68.546875 
Q 53.21875 62.890625 53.21875 53.421875 
Q 53.21875 48.921875 51.53125 44.890625 
Q 49.859375 40.875 45.40625 35.40625 
Q 44.1875 33.984375 37.640625 27.21875 
Q 31.109375 20.453125 19.1875 8.296875 
z
" id="DejaVuSans-50"/>
       </defs>
       <use xlink:href="#DejaVuSans-50"/>
       <use x="63.623047" xlink:href="#DejaVuSans-46"/>
       <use x="95.410156" xlink:href="#DejaVuSans-48"/>
      </g>
     </g>
    </g>
    <g id="ytick_6">
     <g id="line2d_6">
      <path clip-path="url(#p89ebb8ef1d)" d="M 105.604794 46.962691 
L 1040.872134 46.962691 
" style="fill:none;stroke:#cccccc;stroke-linecap:round;stroke-width:0.8;"/>
     </g>
     <g id="text_32">
      <!-- 2.5 -->
      <g style="fill:#262626;" transform="translate(76.312669 51.97766)scale(0.132 -0.132)">
       <use xlink:href="#DejaVuSans-50"/>
       <use x="63.623047" xlink:href="#DejaVuSans-46"/>
       <use x="95.410156" xlink:href="#DejaVuSans-53"/>
      </g>
     </g>
    </g>
    <g id="text_33">
     <!-- LV66 -->
     <g style="fill:#262626;" transform="translate(69.317919 177.805)rotate(-90)scale(0.144 -0.144)">
      <defs>
       <path d="M 28.609375 0 
L 0.78125 72.90625 
L 11.078125 72.90625 
L 34.1875 11.53125 
L 57.328125 72.90625 
L 67.578125 72.90625 
L 39.796875 0 
z
" id="DejaVuSans-86"/>
       <path d="M 33.015625 40.375 
Q 26.375 40.375 22.484375 35.828125 
Q 18.609375 31.296875 18.609375 23.390625 
Q 18.609375 15.53125 22.484375 10.953125 
Q 26.375 6.390625 33.015625 6.390625 
Q 39.65625 6.390625 43.53125 10.953125 
Q 47.40625 15.53125 47.40625 23.390625 
Q 47.40625 31.296875 43.53125 35.828125 
Q 39.65625 40.375 33.015625 40.375 
z
M 52.59375 71.296875 
L 52.59375 62.3125 
Q 48.875 64.0625 45.09375 64.984375 
Q 41.3125 65.921875 37.59375 65.921875 
Q 27.828125 65.921875 22.671875 59.328125 
Q 17.53125 52.734375 16.796875 39.40625 
Q 19.671875 43.65625 24.015625 45.921875 
Q 28.375 48.1875 33.59375 48.1875 
Q 44.578125 48.1875 50.953125 41.515625 
Q 57.328125 34.859375 57.328125 23.390625 
Q 57.328125 12.15625 50.6875 5.359375 
Q 44.046875 -1.421875 33.015625 -1.421875 
Q 20.359375 -1.421875 13.671875 8.265625 
Q 6.984375 17.96875 6.984375 36.375 
Q 6.984375 53.65625 15.1875 63.9375 
Q 23.390625 74.21875 37.203125 74.21875 
Q 40.921875 74.21875 44.703125 73.484375 
Q 48.484375 72.75 52.59375 71.296875 
z
" id="DejaVuSans-54"/>
      </defs>
      <use xlink:href="#DejaVuSans-76"/>
      <use x="44.712891" xlink:href="#DejaVuSans-86"/>
      <use x="113.121094" xlink:href="#DejaVuSans-54"/>
      <use x="176.744141" xlink:href="#DejaVuSans-54"/>
     </g>
    </g>
   </g>
   <g id="patch_3">
    <path d="M 105.604794 313.796 
L 105.604794 7.2 
" style="fill:none;stroke:#cccccc;stroke-linecap:square;stroke-linejoin:miter;"/>
   </g>
   <g id="patch_4">
    <path d="M 105.604794 313.796 
L 1040.872134 313.796 
" style="fill:none;stroke:#cccccc;stroke-linecap:square;stroke-linejoin:miter;"/>
   </g>
   <g id="PathCollection_1">
    <defs>
     <path d="M 0 2.5 
C 0.663008 2.5 1.29895 2.236584 1.767767 1.767767 
C 2.236584 1.29895 2.5 0.663008 2.5 -0 
C 2.5 -0.663008 2.236584 -1.29895 1.767767 -1.767767 
C 1.29895 -2.236584 0.663008 -2.5 0 -2.5 
C -0.663008 -2.5 -1.29895 -2.236584 -1.767767 -1.767767 
C -2.236584 -1.29895 -2.5 -0.663008 -2.5 0 
C -2.5 0.663008 -2.236584 1.29895 -1.767767 1.767767 
C -1.29895 2.236584 -0.663008 2.5 0 2.5 
z
" id="C0_0_3a85e3a54a"/>
    </defs>
    <g clip-path="url(#p89ebb8ef1d)">
     <use style="fill:#f8889a;" x="123.551113" xlink:href="#C0_0_3a85e3a54a" y="21.136182"/>
    </g>
    <g clip-path="url(#p89ebb8ef1d)">
     <use style="fill:#f8889a;" x="126.877967" xlink:href="#C0_0_3a85e3a54a" y="21.957362"/>
    </g>
    <g clip-path="url(#p89ebb8ef1d)">
     <use style="fill:#f8889a;" x="120.872025" xlink:href="#C0_0_3a85e3a54a" y="30.897897"/>
    </g>
    <g clip-path="url(#p89ebb8ef1d)">
     <use style="fill:#f8889a;" x="127.331944" xlink:href="#C0_0_3a85e3a54a" y="31.201681"/>
    </g>
    <g clip-path="url(#p89ebb8ef1d)">
     <use style="fill:#f8889a;" x="126.841346" xlink:href="#C0_0_3a85e3a54a" y="31.800943"/>
    </g>
    <g clip-path="url(#p89ebb8ef1d)">
     <use style="fill:#f8889a;" x="126.943937" xlink:href="#C0_0_3a85e3a54a" y="32.430372"/>
    </g>
    <g clip-path="url(#p89ebb8ef1d)">
     <use style="fill:#f8889a;" x="126.098384" xlink:href="#C0_0_3a85e3a54a" y="32.842073"/>
    </g>
    <g clip-path="url(#p89ebb8ef1d)">
     <use style="fill:#f8889a;" x="122.021727" xlink:href="#C0_0_3a85e3a54a" y="33.624247"/>
    </g>
    <g clip-path="url(#p89ebb8ef1d)">
     <use style="fill:#f8889a;" x="125.63436" xlink:href="#C0_0_3a85e3a54a" y="33.785676"/>
    </g>
    <g clip-path="url(#p89ebb8ef1d)">
     <use style="fill:#f8889a;" x="123.446304" xlink:href="#C0_0_3a85e3a54a" y="34.63109"/>
    </g>
    <g clip-path="url(#p89ebb8ef1d)">
     <use style="fill:#f8889a;" x="125.06391" xlink:href="#C0_0_3a85e3a54a" y="39.387585"/>
    </g>
    <g clip-path="url(#p89ebb8ef1d)">
     <use style="fill:#f8889a;" x="127.553839" xlink:href="#C0_0_3a85e3a54a" y="39.757428"/>
    </g>
    <g clip-path="url(#p89ebb8ef1d)">
     <use style="fill:#f8889a;" x="124.597486" xlink:href="#C0_0_3a85e3a54a" y="40.022135"/>
    </g>
    <g clip-path="url(#p89ebb8ef1d)">
     <use style="fill:#f8889a;" x="126.244938" xlink:href="#C0_0_3a85e3a54a" y="40.207804"/>
    </g>
    <g clip-path="url(#p89ebb8ef1d)">
     <use style="fill:#f8889a;" x="127.525962" xlink:href="#C0_0_3a85e3a54a" y="40.209384"/>
    </g>
    <g clip-path="url(#p89ebb8ef1d)">
     <use style="fill:#f8889a;" x="127.240617" xlink:href="#C0_0_3a85e3a54a" y="41.803098"/>
    </g>
    <g clip-path="url(#p89ebb8ef1d)">
     <use style="fill:#f8889a;" x="128.021659" xlink:href="#C0_0_3a85e3a54a" y="43.854828"/>
    </g>
    <g clip-path="url(#p89ebb8ef1d)">
     <use style="fill:#f8889a;" x="121.557797" xlink:href="#C0_0_3a85e3a54a" y="44.74147"/>
    </g>
    <g clip-path="url(#p89ebb8ef1d)">
     <use style="fill:#f8889a;" x="123.72275" xlink:href="#C0_0_3a85e3a54a" y="45.284148"/>
    </g>
    <g clip-path="url(#p89ebb8ef1d)">
     <use style="fill:#f8889a;" x="125.949155" xlink:href="#C0_0_3a85e3a54a" y="52.130458"/>
    </g>
    <g clip-path="url(#p89ebb8ef1d)">
     <use style="fill:#f8889a;" x="125.354337" xlink:href="#C0_0_3a85e3a54a" y="53.61382"/>
    </g>
    <g clip-path="url(#p89ebb8ef1d)">
     <use style="fill:#f8889a;" x="121.92127" xlink:href="#C0_0_3a85e3a54a" y="53.857342"/>
    </g>
    <g clip-path="url(#p89ebb8ef1d)">
     <use style="fill:#f8889a;" x="125.591066" xlink:href="#C0_0_3a85e3a54a" y="66.22061"/>
    </g>
    <g clip-path="url(#p89ebb8ef1d)">
     <use style="fill:#f8889a;" x="125.02139" xlink:href="#C0_0_3a85e3a54a" y="66.567378"/>
    </g>
    <g clip-path="url(#p89ebb8ef1d)">
     <use style="fill:#f8889a;" x="124.124277" xlink:href="#C0_0_3a85e3a54a" y="70.892106"/>
    </g>
    <g clip-path="url(#p89ebb8ef1d)">
     <use style="fill:#f8889a;" x="126.872673" xlink:href="#C0_0_3a85e3a54a" y="71.232202"/>
    </g>
    <g clip-path="url(#p89ebb8ef1d)">
     <use style="fill:#f8889a;" x="123.558755" xlink:href="#C0_0_3a85e3a54a" y="71.285256"/>
    </g>
    <g clip-path="url(#p89ebb8ef1d)">
     <use style="fill:#f8889a;" x="121.036847" xlink:href="#C0_0_3a85e3a54a" y="77.926297"/>
    </g>
    <g clip-path="url(#p89ebb8ef1d)">
     <use style="fill:#f8889a;" x="121.276786" xlink:href="#C0_0_3a85e3a54a" y="78.169731"/>
    </g>
    <g clip-path="url(#p89ebb8ef1d)">
     <use style="fill:#f8889a;" x="120.761844" xlink:href="#C0_0_3a85e3a54a" y="78.721569"/>
    </g>
    <g clip-path="url(#p89ebb8ef1d)">
     <use style="fill:#f8889a;" x="121.462755" xlink:href="#C0_0_3a85e3a54a" y="99.990075"/>
    </g>
    <g clip-path="url(#p89ebb8ef1d)">
     <use style="fill:#f8889a;" x="126.305096" xlink:href="#C0_0_3a85e3a54a" y="100.024205"/>
    </g>
    <g clip-path="url(#p89ebb8ef1d)">
     <use style="fill:#f8889a;" x="123.133661" xlink:href="#C0_0_3a85e3a54a" y="100.123251"/>
    </g>
   </g>
   <g id="PathCollection_2">
    <defs>
     <path d="M 0 2.5 
C 0.663008 2.5 1.29895 2.236584 1.767767 1.767767 
C 2.236584 1.29895 2.5 0.663008 2.5 -0 
C 2.5 -0.663008 2.236584 -1.29895 1.767767 -1.767767 
C 1.29895 -2.236584 0.663008 -2.5 0 -2.5 
C -0.663008 -2.5 -1.29895 -2.236584 -1.767767 -1.767767 
C -2.236584 -1.29895 -2.5 -0.663008 -2.5 0 
C -2.5 0.663008 -2.236584 1.29895 -1.767767 1.767767 
C -1.29895 2.236584 -0.663008 2.5 0 2.5 
z
" id="C1_0_2788a18428"/>
    </defs>
    <g clip-path="url(#p89ebb8ef1d)">
     <use style="fill:#f88b7c;" x="160.250179" xlink:href="#C1_0_2788a18428" y="73.133617"/>
    </g>
    <g clip-path="url(#p89ebb8ef1d)">
     <use style="fill:#f88b7c;" x="161.235398" xlink:href="#C1_0_2788a18428" y="79.600589"/>
    </g>
    <g clip-path="url(#p89ebb8ef1d)">
     <use style="fill:#f88b7c;" x="160.776013" xlink:href="#C1_0_2788a18428" y="118.196249"/>
    </g>
    <g clip-path="url(#p89ebb8ef1d)">
     <use style="fill:#f88b7c;" x="159.783129" xlink:href="#C1_0_2788a18428" y="188.200669"/>
    </g>
    <g clip-path="url(#p89ebb8ef1d)">
     <use style="fill:#f88b7c;" x="158.363436" xlink:href="#C1_0_2788a18428" y="195.779444"/>
    </g>
   </g>
   <g id="PathCollection_3">
    <defs>
     <path d="M 0 2.5 
C 0.663008 2.5 1.29895 2.236584 1.767767 1.767767 
C 2.236584 1.29895 2.5 0.663008 2.5 -0 
C 2.5 -0.663008 2.236584 -1.29895 1.767767 -1.767767 
C 1.29895 -2.236584 0.663008 -2.5 0 -2.5 
C -0.663008 -2.5 -1.29895 -2.236584 -1.767767 -1.767767 
C -2.236584 -1.29895 -2.5 -0.663008 -2.5 0 
C -2.5 0.663008 -2.236584 1.29895 -1.767767 1.767767 
C -1.29895 2.236584 -0.663008 2.5 0 2.5 
z
" id="C2_0_4c598b21e9"/>
    </defs>
    <g clip-path="url(#p89ebb8ef1d)">
     <use style="fill:#f88e44;" x="199.081499" xlink:href="#C2_0_4c598b21e9" y="107.880124"/>
    </g>
    <g clip-path="url(#p89ebb8ef1d)">
     <use style="fill:#f88e44;" x="198.372987" xlink:href="#C2_0_4c598b21e9" y="113.483741"/>
    </g>
    <g clip-path="url(#p89ebb8ef1d)">
     <use style="fill:#f88e44;" x="198.30912" xlink:href="#C2_0_4c598b21e9" y="119.93901"/>
    </g>
   </g>
   <g id="PathCollection_4">
    <defs>
     <path d="M 0 2.5 
C 0.663008 2.5 1.29895 2.236584 1.767767 1.767767 
C 2.236584 1.29895 2.5 0.663008 2.5 -0 
C 2.5 -0.663008 2.236584 -1.29895 1.767767 -1.767767 
C 1.29895 -2.236584 0.663008 -2.5 0 -2.5 
C -0.663008 -2.5 -1.29895 -2.236584 -1.767767 -1.767767 
C -2.236584 -1.29895 -2.5 -0.663008 -2.5 0 
C -2.5 0.663008 -2.236584 1.29895 -1.767767 1.767767 
C -1.29895 2.236584 -0.663008 2.5 0 2.5 
z
" id="C3_0_4e40ad86e5"/>
    </defs>
    <g clip-path="url(#p89ebb8ef1d)">
     <use style="fill:#e29b37;" x="233.6477" xlink:href="#C3_0_4e40ad86e5" y="108.775512"/>
    </g>
    <g clip-path="url(#p89ebb8ef1d)">
     <use style="fill:#e29b37;" x="236.498784" xlink:href="#C3_0_4e40ad86e5" y="115.904116"/>
    </g>
    <g clip-path="url(#p89ebb8ef1d)">
     <use style="fill:#e29b37;" x="237.043204" xlink:href="#C3_0_4e40ad86e5" y="152.664765"/>
    </g>
   </g>
   <g id="PathCollection_5">
    <defs>
     <path d="M 0 2.5 
C 0.663008 2.5 1.29895 2.236584 1.767767 1.767767 
C 2.236584 1.29895 2.5 0.663008 2.5 0 
C 2.5 -0.663008 2.236584 -1.29895 1.767767 -1.767767 
C 1.29895 -2.236584 0.663008 -2.5 0 -2.5 
C -0.663008 -2.5 -1.29895 -2.236584 -1.767767 -1.767767 
C -2.236584 -1.29895 -2.5 -0.663008 -2.5 0 
C -2.5 0.663008 -2.236584 1.29895 -1.767767 1.767767 
C -1.29895 2.236584 -0.663008 2.5 0 2.5 
z
" id="m81ac4de051"/>
    </defs>
    <g clip-path="url(#p89ebb8ef1d)">
     <use style="fill:#cea337;" x="272.82099" xlink:href="#m81ac4de051" y="226.375522"/>
    </g>
   </g>
   <g id="PathCollection_6">
    <defs>
     <path d="M 0 2.5 
C 0.663008 2.5 1.29895 2.236584 1.767767 1.767767 
C 2.236584 1.29895 2.5 0.663008 2.5 -0 
C 2.5 -0.663008 2.236584 -1.29895 1.767767 -1.767767 
C 1.29895 -2.236584 0.663008 -2.5 0 -2.5 
C -0.663008 -2.5 -1.29895 -2.236584 -1.767767 -1.767767 
C -2.236584 -1.29895 -2.5 -0.663008 -2.5 0 
C -2.5 0.663008 -2.236584 1.29895 -1.767767 1.767767 
C -1.29895 2.236584 -0.663008 2.5 0 2.5 
z
" id="C4_0_d808699bc2"/>
    </defs>
    <g clip-path="url(#p89ebb8ef1d)">
     <use style="fill:#bcaa36;" x="311.477382" xlink:href="#C4_0_d808699bc2" y="233.358235"/>
    </g>
    <g clip-path="url(#p89ebb8ef1d)">
     <use style="fill:#bcaa36;" x="311.205673" xlink:href="#C4_0_d808699bc2" y="263.95607"/>
    </g>
   </g>
   <g id="PathCollection_7">
    <defs>
     <path d="M 0 2.5 
C 0.663008 2.5 1.29895 2.236584 1.767767 1.767767 
C 2.236584 1.29895 2.5 0.663008 2.5 -0 
C 2.5 -0.663008 2.236584 -1.29895 1.767767 -1.767767 
C 1.29895 -2.236584 0.663008 -2.5 0 -2.5 
C -0.663008 -2.5 -1.29895 -2.236584 -1.767767 -1.767767 
C -2.236584 -1.29895 -2.5 -0.663008 -2.5 0 
C -2.5 0.663008 -2.236584 1.29895 -1.767767 1.767767 
C -1.29895 2.236584 -0.663008 2.5 0 2.5 
z
" id="C5_0_5bdf5c0f62"/>
    </defs>
    <g clip-path="url(#p89ebb8ef1d)">
     <use style="fill:#a9b036;" x="347.475708" xlink:href="#C5_0_5bdf5c0f62" y="258.541105"/>
    </g>
    <g clip-path="url(#p89ebb8ef1d)">
     <use style="fill:#a9b036;" x="345.685493" xlink:href="#C5_0_5bdf5c0f62" y="292.836177"/>
    </g>
    <g clip-path="url(#p89ebb8ef1d)">
     <use style="fill:#a9b036;" x="351.457411" xlink:href="#C5_0_5bdf5c0f62" y="295.016136"/>
    </g>
    <g clip-path="url(#p89ebb8ef1d)">
     <use style="fill:#a9b036;" x="346.809873" xlink:href="#C5_0_5bdf5c0f62" y="296.628913"/>
    </g>
    <g clip-path="url(#p89ebb8ef1d)">
     <use style="fill:#a9b036;" x="349.107292" xlink:href="#C5_0_5bdf5c0f62" y="296.765915"/>
    </g>
    <g clip-path="url(#p89ebb8ef1d)">
     <use style="fill:#a9b036;" x="349.414879" xlink:href="#C5_0_5bdf5c0f62" y="296.854833"/>
    </g>
   </g>
   <g id="PathCollection_8">
    <defs>
     <path d="M 0 2.5 
C 0.663008 2.5 1.29895 2.236584 1.767767 1.767767 
C 2.236584 1.29895 2.5 0.663008 2.5 -0 
C 2.5 -0.663008 2.236584 -1.29895 1.767767 -1.767767 
C 1.29895 -2.236584 0.663008 -2.5 0 -2.5 
C -0.663008 -2.5 -1.29895 -2.236584 -1.767767 -1.767767 
C -2.236584 -1.29895 -2.5 -0.663008 -2.5 0 
C -2.5 0.663008 -2.236584 1.29895 -1.767767 1.767767 
C -1.29895 2.236584 -0.663008 2.5 0 2.5 
z
" id="C6_0_f9b0f413dc"/>
    </defs>
    <g clip-path="url(#p89ebb8ef1d)">
     <use style="fill:#91b636;" x="385.438839" xlink:href="#C6_0_f9b0f413dc" y="277.99272"/>
    </g>
    <g clip-path="url(#p89ebb8ef1d)">
     <use style="fill:#91b636;" x="384.823474" xlink:href="#C6_0_f9b0f413dc" y="287.281761"/>
    </g>
    <g clip-path="url(#p89ebb8ef1d)">
     <use style="fill:#91b636;" x="386.774375" xlink:href="#C6_0_f9b0f413dc" y="293.484555"/>
    </g>
   </g>
   <g id="PathCollection_9">
    <defs>
     <path d="M 0 2.5 
C 0.663008 2.5 1.29895 2.236584 1.767767 1.767767 
C 2.236584 1.29895 2.5 0.663008 2.5 0 
C 2.5 -0.663008 2.236584 -1.29895 1.767767 -1.767767 
C 1.29895 -2.236584 0.663008 -2.5 0 -2.5 
C -0.663008 -2.5 -1.29895 -2.236584 -1.767767 -1.767767 
C -2.236584 -1.29895 -2.5 -0.663008 -2.5 0 
C -2.5 0.663008 -2.236584 1.29895 -1.767767 1.767767 
C -1.29895 2.236584 -0.663008 2.5 0 2.5 
z
" id="m95528cc363"/>
    </defs>
    <g clip-path="url(#p89ebb8ef1d)">
     <use style="fill:#6cbd36;" x="424.46318" xlink:href="#m95528cc363" y="279.348073"/>
    </g>
   </g>
   <g id="PathCollection_10">
    <defs>
     <path d="M 0 2.5 
C 0.663008 2.5 1.29895 2.236584 1.767767 1.767767 
C 2.236584 1.29895 2.5 0.663008 2.5 -0 
C 2.5 -0.663008 2.236584 -1.29895 1.767767 -1.767767 
C 1.29895 -2.236584 0.663008 -2.5 0 -2.5 
C -0.663008 -2.5 -1.29895 -2.236584 -1.767767 -1.767767 
C -2.236584 -1.29895 -2.5 -0.663008 -2.5 0 
C -2.5 0.663008 -2.236584 1.29895 -1.767767 1.767767 
C -1.29895 2.236584 -0.663008 2.5 0 2.5 
z
" id="C7_0_c7bc8b8630"/>
    </defs>
    <g clip-path="url(#p89ebb8ef1d)">
     <use style="fill:#37c15a;" x="458.354266" xlink:href="#C7_0_c7bc8b8630" y="279.421371"/>
    </g>
    <g clip-path="url(#p89ebb8ef1d)">
     <use style="fill:#37c15a;" x="458.212698" xlink:href="#C7_0_c7bc8b8630" y="280.887568"/>
    </g>
    <g clip-path="url(#p89ebb8ef1d)">
     <use style="fill:#37c15a;" x="459.536034" xlink:href="#C7_0_c7bc8b8630" y="296.798478"/>
    </g>
    <g clip-path="url(#p89ebb8ef1d)">
     <use style="fill:#37c15a;" x="459.036997" xlink:href="#C7_0_c7bc8b8630" y="298.98234"/>
    </g>
    <g clip-path="url(#p89ebb8ef1d)">
     <use style="fill:#37c15a;" x="457.29979" xlink:href="#C7_0_c7bc8b8630" y="299.658451"/>
    </g>
   </g>
   <g id="PathCollection_11">
    <defs>
     <path d="M 0 2.5 
C 0.663008 2.5 1.29895 2.236584 1.767767 1.767767 
C 2.236584 1.29895 2.5 0.663008 2.5 -0 
C 2.5 -0.663008 2.236584 -1.29895 1.767767 -1.767767 
C 1.29895 -2.236584 0.663008 -2.5 0 -2.5 
C -0.663008 -2.5 -1.29895 -2.236584 -1.767767 -1.767767 
C -2.236584 -1.29895 -2.5 -0.663008 -2.5 0 
C -2.5 0.663008 -2.236584 1.29895 -1.767767 1.767767 
C -1.29895 2.236584 -0.663008 2.5 0 2.5 
z
" id="C8_0_92d1df0d86"/>
    </defs>
    <g clip-path="url(#p89ebb8ef1d)">
     <use style="fill:#38bf85;" x="498.449704" xlink:href="#C8_0_92d1df0d86" y="282.866238"/>
    </g>
    <g clip-path="url(#p89ebb8ef1d)">
     <use style="fill:#38bf85;" x="497.407573" xlink:href="#C8_0_92d1df0d86" y="292.148735"/>
    </g>
    <g clip-path="url(#p89ebb8ef1d)">
     <use style="fill:#38bf85;" x="498.774425" xlink:href="#C8_0_92d1df0d86" y="295.245096"/>
    </g>
    <g clip-path="url(#p89ebb8ef1d)">
     <use style="fill:#38bf85;" x="495.93207" xlink:href="#C8_0_92d1df0d86" y="299.756667"/>
    </g>
   </g>
   <g id="PathCollection_12">
    <defs>
     <path d="M 0 2.5 
C 0.663008 2.5 1.29895 2.236584 1.767767 1.767767 
C 2.236584 1.29895 2.5 0.663008 2.5 -0 
C 2.5 -0.663008 2.236584 -1.29895 1.767767 -1.767767 
C 1.29895 -2.236584 0.663008 -2.5 0 -2.5 
C -0.663008 -2.5 -1.29895 -2.236584 -1.767767 -1.767767 
C -2.236584 -1.29895 -2.5 -0.663008 -2.5 0 
C -2.5 0.663008 -2.236584 1.29895 -1.767767 1.767767 
C -1.29895 2.236584 -0.663008 2.5 0 2.5 
z
" id="C9_0_66d3a6dabf"/>
    </defs>
    <g clip-path="url(#p89ebb8ef1d)">
     <use style="fill:#3abd9b;" x="532.269377" xlink:href="#C9_0_66d3a6dabf" y="288.095601"/>
    </g>
    <g clip-path="url(#p89ebb8ef1d)">
     <use style="fill:#3abd9b;" x="537.656399" xlink:href="#C9_0_66d3a6dabf" y="288.700467"/>
    </g>
    <g clip-path="url(#p89ebb8ef1d)">
     <use style="fill:#3abd9b;" x="539.392199" xlink:href="#C9_0_66d3a6dabf" y="292.559958"/>
    </g>
    <g clip-path="url(#p89ebb8ef1d)">
     <use style="fill:#3abd9b;" x="534.581875" xlink:href="#C9_0_66d3a6dabf" y="293.245235"/>
    </g>
   </g>
   <g id="PathCollection_13">
    <defs>
     <path d="M 0 2.5 
C 0.663008 2.5 1.29895 2.236584 1.767767 1.767767 
C 2.236584 1.29895 2.5 0.663008 2.5 0 
C 2.5 -0.663008 2.236584 -1.29895 1.767767 -1.767767 
C 1.29895 -2.236584 0.663008 -2.5 0 -2.5 
C -0.663008 -2.5 -1.29895 -2.236584 -1.767767 -1.767767 
C -2.236584 -1.29895 -2.5 -0.663008 -2.5 0 
C -2.5 0.663008 -2.236584 1.29895 -1.767767 1.767767 
C -1.29895 2.236584 -0.663008 2.5 0 2.5 
z
" id="m69215183b4"/>
    </defs>
    <g clip-path="url(#p89ebb8ef1d)">
     <use style="fill:#3abcab;" x="569.614029" xlink:href="#m69215183b4" y="288.311036"/>
    </g>
   </g>
   <g id="PathCollection_14">
    <defs>
     <path d="M 0 2.5 
C 0.663008 2.5 1.29895 2.236584 1.767767 1.767767 
C 2.236584 1.29895 2.5 0.663008 2.5 -0 
C 2.5 -0.663008 2.236584 -1.29895 1.767767 -1.767767 
C 1.29895 -2.236584 0.663008 -2.5 0 -2.5 
C -0.663008 -2.5 -1.29895 -2.236584 -1.767767 -1.767767 
C -2.236584 -1.29895 -2.5 -0.663008 -2.5 0 
C -2.5 0.663008 -2.236584 1.29895 -1.767767 1.767767 
C -1.29895 2.236584 -0.663008 2.5 0 2.5 
z
" id="Ca_0_162a30a2c0"/>
    </defs>
    <g clip-path="url(#p89ebb8ef1d)">
     <use style="fill:#3bbbb9;" x="607.31944" xlink:href="#Ca_0_162a30a2c0" y="289.19472"/>
    </g>
    <g clip-path="url(#p89ebb8ef1d)">
     <use style="fill:#3bbbb9;" x="612.511166" xlink:href="#Ca_0_162a30a2c0" y="299.380304"/>
    </g>
   </g>
   <g id="PathCollection_15">
    <defs>
     <path d="M 0 2.5 
C 0.663008 2.5 1.29895 2.236584 1.767767 1.767767 
C 2.236584 1.29895 2.5 0.663008 2.5 0 
C 2.5 -0.663008 2.236584 -1.29895 1.767767 -1.767767 
C 1.29895 -2.236584 0.663008 -2.5 0 -2.5 
C -0.663008 -2.5 -1.29895 -2.236584 -1.767767 -1.767767 
C -2.236584 -1.29895 -2.5 -0.663008 -2.5 0 
C -2.5 0.663008 -2.236584 1.29895 -1.767767 1.767767 
C -1.29895 2.236584 -0.663008 2.5 0 2.5 
z
" id="mad9ec740ce"/>
    </defs>
    <g clip-path="url(#p89ebb8ef1d)">
     <use style="fill:#3cb9c6;" x="650.11556" xlink:href="#mad9ec740ce" y="289.528856"/>
    </g>
   </g>
   <g id="PathCollection_16">
    <defs>
     <path d="M 0 2.5 
C 0.663008 2.5 1.29895 2.236584 1.767767 1.767767 
C 2.236584 1.29895 2.5 0.663008 2.5 0 
C 2.5 -0.663008 2.236584 -1.29895 1.767767 -1.767767 
C 1.29895 -2.236584 0.663008 -2.5 0 -2.5 
C -0.663008 -2.5 -1.29895 -2.236584 -1.767767 -1.767767 
C -2.236584 -1.29895 -2.5 -0.663008 -2.5 0 
C -2.5 0.663008 -2.236584 1.29895 -1.767767 1.767767 
C -1.29895 2.236584 -0.663008 2.5 0 2.5 
z
" id="mafe41f78bf"/>
    </defs>
    <g clip-path="url(#p89ebb8ef1d)">
     <use style="fill:#3db7d6;" x="687.847684" xlink:href="#mafe41f78bf" y="289.700145"/>
    </g>
   </g>
   <g id="PathCollection_17">
    <defs>
     <path d="M 0 2.5 
C 0.663008 2.5 1.29895 2.236584 1.767767 1.767767 
C 2.236584 1.29895 2.5 0.663008 2.5 0 
C 2.5 -0.663008 2.236584 -1.29895 1.767767 -1.767767 
C 1.29895 -2.236584 0.663008 -2.5 0 -2.5 
C -0.663008 -2.5 -1.29895 -2.236584 -1.767767 -1.767767 
C -2.236584 -1.29895 -2.5 -0.663008 -2.5 0 
C -2.5 0.663008 -2.236584 1.29895 -1.767767 1.767767 
C -1.29895 2.236584 -0.663008 2.5 0 2.5 
z
" id="m9b018b87bf"/>
    </defs>
    <g clip-path="url(#p89ebb8ef1d)">
     <use style="fill:#3fb4ea;" x="725.013346" xlink:href="#m9b018b87bf" y="290.081443"/>
    </g>
   </g>
   <g id="PathCollection_18">
    <defs>
     <path d="M 0 2.5 
C 0.663008 2.5 1.29895 2.236584 1.767767 1.767767 
C 2.236584 1.29895 2.5 0.663008 2.5 -0 
C 2.5 -0.663008 2.236584 -1.29895 1.767767 -1.767767 
C 1.29895 -2.236584 0.663008 -2.5 0 -2.5 
C -0.663008 -2.5 -1.29895 -2.236584 -1.767767 -1.767767 
C -2.236584 -1.29895 -2.5 -0.663008 -2.5 0 
C -2.5 0.663008 -2.236584 1.29895 -1.767767 1.767767 
C -1.29895 2.236584 -0.663008 2.5 0 2.5 
z
" id="Cb_0_05c8245506"/>
    </defs>
    <g clip-path="url(#p89ebb8ef1d)">
     <use style="fill:#6fadf6;" x="762.059554" xlink:href="#Cb_0_05c8245506" y="291.061546"/>
    </g>
    <g clip-path="url(#p89ebb8ef1d)">
     <use style="fill:#6fadf6;" x="759.750576" xlink:href="#Cb_0_05c8245506" y="292.526253"/>
    </g>
    <g clip-path="url(#p89ebb8ef1d)">
     <use style="fill:#6fadf6;" x="756.565682" xlink:href="#Cb_0_05c8245506" y="293.325544"/>
    </g>
    <g clip-path="url(#p89ebb8ef1d)">
     <use style="fill:#6fadf6;" x="759.383981" xlink:href="#Cb_0_05c8245506" y="294.478272"/>
    </g>
    <g clip-path="url(#p89ebb8ef1d)">
     <use style="fill:#6fadf6;" x="762.645239" xlink:href="#Cb_0_05c8245506" y="294.679335"/>
    </g>
    <g clip-path="url(#p89ebb8ef1d)">
     <use style="fill:#6fadf6;" x="757.587751" xlink:href="#Cb_0_05c8245506" y="295.476556"/>
    </g>
    <g clip-path="url(#p89ebb8ef1d)">
     <use style="fill:#6fadf6;" x="761.74555" xlink:href="#Cb_0_05c8245506" y="295.869169"/>
    </g>
    <g clip-path="url(#p89ebb8ef1d)">
     <use style="fill:#6fadf6;" x="761.661411" xlink:href="#Cb_0_05c8245506" y="299.280703"/>
    </g>
   </g>
   <g id="PathCollection_19">
    <defs>
     <path d="M 0 2.5 
C 0.663008 2.5 1.29895 2.236584 1.767767 1.767767 
C 2.236584 1.29895 2.5 0.663008 2.5 -0 
C 2.5 -0.663008 2.236584 -1.29895 1.767767 -1.767767 
C 1.29895 -2.236584 0.663008 -2.5 0 -2.5 
C -0.663008 -2.5 -1.29895 -2.236584 -1.767767 -1.767767 
C -2.236584 -1.29895 -2.5 -0.663008 -2.5 0 
C -2.5 0.663008 -2.236584 1.29895 -1.767767 1.767767 
C -1.29895 2.236584 -0.663008 2.5 0 2.5 
z
" id="Cc_0_beffcab20d"/>
    </defs>
    <g clip-path="url(#p89ebb8ef1d)">
     <use style="fill:#98a4f6;" x="794.895484" xlink:href="#Cc_0_beffcab20d" y="291.982033"/>
    </g>
    <g clip-path="url(#p89ebb8ef1d)">
     <use style="fill:#98a4f6;" x="795.14354" xlink:href="#Cc_0_beffcab20d" y="295.236108"/>
    </g>
   </g>
   <g id="PathCollection_20">
    <defs>
     <path d="M 0 2.5 
C 0.663008 2.5 1.29895 2.236584 1.767767 1.767767 
C 2.236584 1.29895 2.5 0.663008 2.5 -0 
C 2.5 -0.663008 2.236584 -1.29895 1.767767 -1.767767 
C 1.29895 -2.236584 0.663008 -2.5 0 -2.5 
C -0.663008 -2.5 -1.29895 -2.236584 -1.767767 -1.767767 
C -2.236584 -1.29895 -2.5 -0.663008 -2.5 0 
C -2.5 0.663008 -2.236584 1.29895 -1.767767 1.767767 
C -1.29895 2.236584 -0.663008 2.5 0 2.5 
z
" id="Cd_0_ea5a8d7190"/>
    </defs>
    <g clip-path="url(#p89ebb8ef1d)">
     <use style="fill:#b79af6;" x="835.762221" xlink:href="#Cd_0_ea5a8d7190" y="292.02473"/>
    </g>
    <g clip-path="url(#p89ebb8ef1d)">
     <use style="fill:#b79af6;" x="836.133367" xlink:href="#Cd_0_ea5a8d7190" y="298.143639"/>
    </g>
   </g>
   <g id="PathCollection_21">
    <defs>
     <path d="M 0 2.5 
C 0.663008 2.5 1.29895 2.236584 1.767767 1.767767 
C 2.236584 1.29895 2.5 0.663008 2.5 0 
C 2.5 -0.663008 2.236584 -1.29895 1.767767 -1.767767 
C 1.29895 -2.236584 0.663008 -2.5 0 -2.5 
C -0.663008 -2.5 -1.29895 -2.236584 -1.767767 -1.767767 
C -2.236584 -1.29895 -2.5 -0.663008 -2.5 0 
C -2.5 0.663008 -2.236584 1.29895 -1.767767 1.767767 
C -1.29895 2.236584 -0.663008 2.5 0 2.5 
z
" id="mbd8e90ba06"/>
    </defs>
    <g clip-path="url(#p89ebb8ef1d)">
     <use style="fill:#d28ef6;" x="872.236795" xlink:href="#mbd8e90ba06" y="292.185938"/>
    </g>
   </g>
   <g id="PathCollection_22">
    <defs>
     <path d="M 0 2.5 
C 0.663008 2.5 1.29895 2.236584 1.767767 1.767767 
C 2.236584 1.29895 2.5 0.663008 2.5 -0 
C 2.5 -0.663008 2.236584 -1.29895 1.767767 -1.767767 
C 1.29895 -2.236584 0.663008 -2.5 0 -2.5 
C -0.663008 -2.5 -1.29895 -2.236584 -1.767767 -1.767767 
C -2.236584 -1.29895 -2.5 -0.663008 -2.5 0 
C -2.5 0.663008 -2.236584 1.29895 -1.767767 1.767767 
C -1.29895 2.236584 -0.663008 2.5 0 2.5 
z
" id="Ce_0_b4c7b6ee1d"/>
    </defs>
    <g clip-path="url(#p89ebb8ef1d)">
     <use style="fill:#f07df6;" x="908.050619" xlink:href="#Ce_0_b4c7b6ee1d" y="292.43962"/>
    </g>
    <g clip-path="url(#p89ebb8ef1d)">
     <use style="fill:#f07df6;" x="907.777717" xlink:href="#Ce_0_b4c7b6ee1d" y="292.531524"/>
    </g>
   </g>
   <g id="PathCollection_23">
    <defs>
     <path d="M 0 2.5 
C 0.663008 2.5 1.29895 2.236584 1.767767 1.767767 
C 2.236584 1.29895 2.5 0.663008 2.5 -0 
C 2.5 -0.663008 2.236584 -1.29895 1.767767 -1.767767 
C 1.29895 -2.236584 0.663008 -2.5 0 -2.5 
C -0.663008 -2.5 -1.29895 -2.236584 -1.767767 -1.767767 
C -2.236584 -1.29895 -2.5 -0.663008 -2.5 0 
C -2.5 0.663008 -2.236584 1.29895 -1.767767 1.767767 
C -1.29895 2.236584 -0.663008 2.5 0 2.5 
z
" id="Cf_0_42ba5d719b"/>
    </defs>
    <g clip-path="url(#p89ebb8ef1d)">
     <use style="fill:#f67ede;" x="947.761872" xlink:href="#Cf_0_42ba5d719b" y="293.313829"/>
    </g>
    <g clip-path="url(#p89ebb8ef1d)">
     <use style="fill:#f67ede;" x="945.63072" xlink:href="#Cf_0_42ba5d719b" y="295.379354"/>
    </g>
    <g clip-path="url(#p89ebb8ef1d)">
     <use style="fill:#f67ede;" x="950.515182" xlink:href="#Cf_0_42ba5d719b" y="298.814991"/>
    </g>
   </g>
   <g id="PathCollection_24">
    <defs>
     <path d="M 0 2.5 
C 0.663008 2.5 1.29895 2.236584 1.767767 1.767767 
C 2.236584 1.29895 2.5 0.663008 2.5 -0 
C 2.5 -0.663008 2.236584 -1.29895 1.767767 -1.767767 
C 1.29895 -2.236584 0.663008 -2.5 0 -2.5 
C -0.663008 -2.5 -1.29895 -2.236584 -1.767767 -1.767767 
C -2.236584 -1.29895 -2.5 -0.663008 -2.5 0 
C -2.5 0.663008 -2.236584 1.29895 -1.767767 1.767767 
C -1.29895 2.236584 -0.663008 2.5 0 2.5 
z
" id="C10_0_de400b0a80"/>
    </defs>
    <g clip-path="url(#p89ebb8ef1d)">
     <use style="fill:#f782c7;" x="983.462113" xlink:href="#C10_0_de400b0a80" y="293.385541"/>
    </g>
    <g clip-path="url(#p89ebb8ef1d)">
     <use style="fill:#f782c7;" x="982.532782" xlink:href="#C10_0_de400b0a80" y="293.698076"/>
    </g>
    <g clip-path="url(#p89ebb8ef1d)">
     <use style="fill:#f782c7;" x="985.721856" xlink:href="#C10_0_de400b0a80" y="295.382283"/>
    </g>
    <g clip-path="url(#p89ebb8ef1d)">
     <use style="fill:#f782c7;" x="983.111886" xlink:href="#C10_0_de400b0a80" y="295.718056"/>
    </g>
    <g clip-path="url(#p89ebb8ef1d)">
     <use style="fill:#f782c7;" x="985.581889" xlink:href="#C10_0_de400b0a80" y="296.256101"/>
    </g>
    <g clip-path="url(#p89ebb8ef1d)">
     <use style="fill:#f782c7;" x="986.044225" xlink:href="#C10_0_de400b0a80" y="296.315864"/>
    </g>
    <g clip-path="url(#p89ebb8ef1d)">
     <use style="fill:#f782c7;" x="987.166673" xlink:href="#C10_0_de400b0a80" y="296.366352"/>
    </g>
    <g clip-path="url(#p89ebb8ef1d)">
     <use style="fill:#f782c7;" x="983.281904" xlink:href="#C10_0_de400b0a80" y="296.601767"/>
    </g>
    <g clip-path="url(#p89ebb8ef1d)">
     <use style="fill:#f782c7;" x="983.052361" xlink:href="#C10_0_de400b0a80" y="298.215659"/>
    </g>
    <g clip-path="url(#p89ebb8ef1d)">
     <use style="fill:#f782c7;" x="988.253369" xlink:href="#C10_0_de400b0a80" y="298.303539"/>
    </g>
    <g clip-path="url(#p89ebb8ef1d)">
     <use style="fill:#f782c7;" x="986.060138" xlink:href="#C10_0_de400b0a80" y="299.507593"/>
    </g>
    <g clip-path="url(#p89ebb8ef1d)">
     <use style="fill:#f782c7;" x="986.295889" xlink:href="#C10_0_de400b0a80" y="299.859818"/>
    </g>
   </g>
   <g id="PathCollection_25">
    <defs>
     <path d="M 0 2.5 
C 0.663008 2.5 1.29895 2.236584 1.767767 1.767767 
C 2.236584 1.29895 2.5 0.663008 2.5 -0 
C 2.5 -0.663008 2.236584 -1.29895 1.767767 -1.767767 
C 1.29895 -2.236584 0.663008 -2.5 0 -2.5 
C -0.663008 -2.5 -1.29895 -2.236584 -1.767767 -1.767767 
C -2.236584 -1.29895 -2.5 -0.663008 -2.5 0 
C -2.5 0.663008 -2.236584 1.29895 -1.767767 1.767767 
C -1.29895 2.236584 -0.663008 2.5 0 2.5 
z
" id="C11_0_54753dec74"/>
    </defs>
    <g clip-path="url(#p89ebb8ef1d)">
     <use style="fill:#f785b2;" x="1021.041858" xlink:href="#C11_0_54753dec74" y="293.942148"/>
    </g>
    <g clip-path="url(#p89ebb8ef1d)">
     <use style="fill:#f785b2;" x="1025.466512" xlink:href="#C11_0_54753dec74" y="297.052597"/>
    </g>
   </g>
  </g>
 </g>
 <defs>
  <clipPath id="p89ebb8ef1d">
   <rect height="306.596" width="935.26734" x="105.604794" y="7.2"/>
  </clipPath>
 </defs>
</svg>
